<svg width="115" height="30" viewBox="0 0 115 30" fill="none" xmlns="http://www.w3.org/2000/svg">
<g filter="url(#filter0_d_2056_137)">
<rect x="4" width="107" height="22" rx="7" fill="url(#paint0_linear_2056_137)"/>
</g>
<path d="M34.5998 18H31.5598V4.72H34.3798C35.8198 4.72 36.3598 5.5 36.3598 6.82V9.34C36.3598 10.22 36.0198 10.8 35.3198 10.92V11C35.9798 11.12 36.4998 11.46 36.4998 12.7V16.22C36.4998 17.4 35.9798 18 34.5998 18ZM34.4798 15.54V12.56C34.4798 12.1 34.2798 11.88 33.8998 11.88H33.5598V16.26H33.8998C34.2798 16.26 34.4798 16.02 34.4798 15.54ZM34.4598 9.56V7.18C34.4598 6.68 34.3598 6.46 33.9598 6.46H33.5598V10.22H33.9598C34.2998 10.22 34.4598 10 34.4598 9.56ZM39.7885 16.08V13.08C39.6485 13.16 39.4885 13.2 39.2885 13.26C38.9885 13.34 38.8685 13.56 38.8685 13.88V15.96C38.8685 16.26 39.0285 16.42 39.3285 16.42C39.6085 16.42 39.7285 16.3 39.7885 16.08ZM41.7085 18H39.9085L39.8685 17.28H39.7885C39.6085 17.6 39.3285 18.1 38.4085 18.1C37.2885 18.1 36.9685 17.4 36.9685 16.48V14.24C36.9685 12.96 37.4685 12.48 38.7685 12.14C39.4685 11.96 39.7685 11.88 39.7685 11.44V10.14C39.7685 9.88 39.6285 9.74 39.3485 9.74C39.0485 9.74 38.8885 9.9 38.8885 10.2V11.36H37.0885V9.96C37.0885 8.68 37.9885 8.08 39.4885 8.08C40.9485 8.08 41.7085 8.64 41.7085 9.84V18ZM45.161 15.76V14.44H47.001V15.76C47.001 17.32 46.301 18.1 44.701 18.1C43.121 18.1 42.381 17.34 42.381 15.76V10.42C42.381 8.84 43.121 8.08 44.721 8.08C46.301 8.08 47.001 8.84 47.001 10.42V11.68H45.161V10.42C45.161 10.02 45.021 9.82 44.721 9.82C44.421 9.82 44.261 10.02 44.261 10.42V15.76C44.261 16.16 44.421 16.36 44.701 16.36C45.001 16.36 45.161 16.16 45.161 15.76ZM52.674 18H50.634L50.014 14.48H49.934L49.614 15.48V18H47.674V4.56H49.614V11.62H49.694C49.754 11.3 49.834 10.92 50.614 8.16H52.694L51.434 12.2L52.674 18ZM57.6093 20.32C57.6093 21.88 56.8093 22.66 55.2293 22.66C53.6893 22.66 52.9093 21.88 52.9093 20.32V18.6H54.7693V20.32C54.7693 20.72 54.9293 20.92 55.2293 20.92C55.5293 20.92 55.6693 20.72 55.6693 20.32V17.28H55.5893C55.3493 17.76 54.9493 18 54.3693 18C53.1893 18 52.8693 17.24 52.8693 15.82V9.88C52.8693 8.76 53.4693 8.08 54.4093 8.08C55.0293 8.08 55.4293 8.4 55.7493 9.02H55.8293L55.8493 8.16H57.6093V20.32ZM54.8293 10.36V15.34C54.8293 15.96 54.8893 16.24 55.2693 16.24C55.6093 16.24 55.7293 15.94 55.7293 15.46V10.58C55.7293 10.08 55.6293 9.76 55.2893 9.76C54.9893 9.76 54.8293 9.96 54.8293 10.36ZM60.239 18H58.299V8.16H60.119L60.159 9.02H60.239C60.459 8.46 60.819 8.08 61.459 8.08C61.619 8.08 61.759 8.1 61.899 8.16V9.9C61.739 9.84 61.599 9.82 61.379 9.82C60.539 9.82 60.239 10.24 60.239 11.04V18ZM67.061 10.42V15.76C67.061 17.36 66.301 18.1 64.721 18.1C63.121 18.1 62.381 17.36 62.381 15.76V10.42C62.381 8.82 63.121 8.08 64.721 8.08C66.301 8.08 67.061 8.82 67.061 10.42ZM65.161 15.76V10.42C65.161 10.02 65.001 9.82 64.721 9.82C64.441 9.82 64.261 10.02 64.261 10.42V15.76C64.261 16.16 64.441 16.36 64.721 16.36C65.001 16.36 65.161 16.16 65.161 15.76ZM67.7326 8.16H69.6926V15.72C69.6926 16.24 69.7526 16.42 70.1126 16.42C70.4526 16.42 70.5326 16.24 70.5326 15.72V8.16H72.4926V18H70.6526L70.6326 17.16H70.5526C70.1926 17.86 69.8326 18.1 69.2126 18.1C67.9126 18.1 67.7326 17.08 67.7326 15.72V8.16ZM77.9618 18H76.0018V10.26C76.0018 9.94 75.8618 9.76 75.6018 9.76C75.3618 9.76 75.2018 9.9 75.1218 10.2V18H73.1818V8.16H75.0018L75.0418 9.02H75.1218C75.4418 8.34 75.9018 8.08 76.4618 8.08C77.3418 8.08 77.9618 8.74 77.9618 9.86V18ZM83.3905 18H81.6305L81.6105 17.16H81.5305C81.2505 17.8 80.8305 18.1 80.2105 18.1C79.2505 18.1 78.6505 17.4 78.6505 16.32V9.84C78.6505 8.76 79.2705 8.08 80.1905 8.08C80.7105 8.08 81.1105 8.28 81.3905 8.8H81.4705V4.56H83.3905V18ZM80.6105 10.36V15.82C80.6105 16.22 80.7705 16.42 81.0705 16.42C81.3305 16.42 81.4705 16.26 81.5105 15.96V10.2C81.4705 9.9 81.3305 9.76 81.0705 9.76C80.7705 9.76 80.6105 9.96 80.6105 10.36Z" fill="white"/>
<defs>
<filter id="filter0_d_2056_137" x="0" y="0" width="115" height="30" filterUnits="userSpaceOnUse" color-interpolation-filters="sRGB">
<feFlood flood-opacity="0" result="BackgroundImageFix"/>
<feColorMatrix in="SourceAlpha" type="matrix" values="0 0 0 0 0 0 0 0 0 0 0 0 0 0 0 0 0 0 127 0" result="hardAlpha"/>
<feOffset dy="4"/>
<feGaussianBlur stdDeviation="2"/>
<feComposite in2="hardAlpha" operator="out"/>
<feColorMatrix type="matrix" values="0 0 0 0 0 0 0 0 0 0 0 0 0 0 0 0 0 0 0.25 0"/>
<feBlend mode="normal" in2="BackgroundImageFix" result="effect1_dropShadow_2056_137"/>
<feBlend mode="normal" in="SourceGraphic" in2="effect1_dropShadow_2056_137" result="shape"/>
</filter>
<linearGradient id="paint0_linear_2056_137" x1="57.5" y1="22" x2="57.5" y2="0" gradientUnits="userSpaceOnUse">
<stop stop-color="#737373"/>
<stop offset="1" stop-color="#D9D9D9"/>
</linearGradient>
</defs>
</svg>
