<svg width="115" height="30" viewBox="0 0 115 30" fill="none" xmlns="http://www.w3.org/2000/svg">
<g filter="url(#filter0_d_2056_117)">
<rect x="4" width="107" height="22" rx="7" fill="url(#paint0_linear_2056_117)"/>
</g>
<path d="M46.7384 18H43.6984V4.72H46.5184C47.9584 4.72 48.4984 5.5 48.4984 6.82V9.34C48.4984 10.22 48.1584 10.8 47.4584 10.92V11C48.1184 11.12 48.6384 11.46 48.6384 12.7V16.22C48.6384 17.4 48.1184 18 46.7384 18ZM46.6184 15.54V12.56C46.6184 12.1 46.4184 11.88 46.0384 11.88H45.6984V16.26H46.0384C46.4184 16.26 46.6184 16.02 46.6184 15.54ZM46.5984 9.56V7.18C46.5984 6.68 46.4984 6.46 46.0984 6.46H45.6984V10.22H46.0984C46.4384 10.22 46.5984 10 46.5984 9.56ZM51.1472 18H49.2072V8.16H51.0272L51.0672 9.02H51.1472C51.3672 8.46 51.7272 8.08 52.3672 8.08C52.5272 8.08 52.6672 8.1 52.8072 8.16V9.9C52.6472 9.84 52.5072 9.82 52.2872 9.82C51.4472 9.82 51.1472 10.24 51.1472 11.04V18ZM55.2292 18H53.2892V8.16H55.2292V18ZM55.2292 7.14H53.2892V5.36H55.2292V7.14ZM60.6659 20.32C60.6659 21.88 59.8659 22.66 58.2859 22.66C56.7459 22.66 55.9659 21.88 55.9659 20.32V18.6H57.8259V20.32C57.8259 20.72 57.9859 20.92 58.2859 20.92C58.5859 20.92 58.7259 20.72 58.7259 20.32V17.28H58.6459C58.4059 17.76 58.0059 18 57.4259 18C56.2459 18 55.9259 17.24 55.9259 15.82V9.88C55.9259 8.76 56.5259 8.08 57.4659 8.08C58.0859 8.08 58.4859 8.4 58.8059 9.02H58.8859L58.9059 8.16H60.6659V20.32ZM57.8859 10.36V15.34C57.8859 15.96 57.9459 16.24 58.3259 16.24C58.6659 16.24 58.7859 15.94 58.7859 15.46V10.58C58.7859 10.08 58.6859 9.76 58.3459 9.76C58.0459 9.76 57.8859 9.96 57.8859 10.36ZM66.1356 18H64.1756V10.26C64.1756 9.92 64.0356 9.76 63.7756 9.76C63.4956 9.76 63.3356 9.96 63.2956 10.36V18H61.3556V4.56H63.2956V8.88H63.3756C63.6156 8.34 64.0356 8.08 64.6556 8.08C65.7556 8.08 66.1356 8.92 66.1356 9.96V18ZM69.6044 15.76V12.52H71.2644V15.76C71.2644 17.34 70.7444 18.1 69.1644 18.1C67.5644 18.1 66.8244 17.34 66.8244 15.76V5.5H68.7444V8.16H71.2644V9.9H68.7444V15.76C68.7444 16.16 68.8844 16.36 69.1844 16.36C69.4644 16.36 69.6044 16.16 69.6044 15.76Z" fill="white"/>
<defs>
<filter id="filter0_d_2056_117" x="0" y="0" width="115" height="30" filterUnits="userSpaceOnUse" color-interpolation-filters="sRGB">
<feFlood flood-opacity="0" result="BackgroundImageFix"/>
<feColorMatrix in="SourceAlpha" type="matrix" values="0 0 0 0 0 0 0 0 0 0 0 0 0 0 0 0 0 0 127 0" result="hardAlpha"/>
<feOffset dy="4"/>
<feGaussianBlur stdDeviation="2"/>
<feComposite in2="hardAlpha" operator="out"/>
<feColorMatrix type="matrix" values="0 0 0 0 0 0 0 0 0 0 0 0 0 0 0 0 0 0 0.25 0"/>
<feBlend mode="normal" in2="BackgroundImageFix" result="effect1_dropShadow_2056_117"/>
<feBlend mode="normal" in="SourceGraphic" in2="effect1_dropShadow_2056_117" result="shape"/>
</filter>
<linearGradient id="paint0_linear_2056_117" x1="57.5" y1="22" x2="57.5" y2="0" gradientUnits="userSpaceOnUse">
<stop stop-color="#737373"/>
<stop offset="1" stop-color="#D9D9D9"/>
</linearGradient>
</defs>
</svg>
