<svg width="115" height="30" viewBox="0 0 115 30" fill="none" xmlns="http://www.w3.org/2000/svg">
<g filter="url(#filter0_d_2056_87)">
<rect x="4" width="107" height="22" rx="7" fill="url(#paint0_linear_2056_87)"/>
</g>
<path d="M42.2825 15.64V12.58H44.1825V15.5C44.1825 17.24 43.3625 18.1 41.8025 18.1C40.2025 18.1 39.3625 17.16 39.3625 15.48V7.22C39.3625 5.48 40.1625 4.64 41.7825 4.64C43.3225 4.64 44.1825 5.38 44.1825 7.2V9.48H42.2825V7.12C42.2825 6.72 42.1225 6.52 41.8225 6.52C41.5225 6.52 41.3825 6.72 41.3825 7.12V15.64C41.3825 16.06 41.4825 16.24 41.8025 16.24C42.1225 16.24 42.2825 16.06 42.2825 15.64ZM46.7917 18H44.8517V4.56H46.7917V18ZM52.1684 10.42V15.76C52.1684 17.36 51.4084 18.1 49.8284 18.1C48.2284 18.1 47.4884 17.36 47.4884 15.76V10.42C47.4884 8.82 48.2284 8.08 49.8284 8.08C51.4084 8.08 52.1684 8.82 52.1684 10.42ZM50.2684 15.76V10.42C50.2684 10.02 50.1084 9.82 49.8284 9.82C49.5484 9.82 49.3684 10.02 49.3684 10.42V15.76C49.3684 16.16 49.5484 16.36 49.8284 16.36C50.1084 16.36 50.2684 16.16 50.2684 15.76ZM57.42 11.14H55.6V10.08C55.6 9.8 55.44 9.66 55.16 9.66C54.9 9.66 54.7 9.78 54.7 10.04V11.18C54.7 11.5 54.74 11.62 55.14 11.92C55.64 12.28 56.28 12.54 56.78 12.96C57.22 13.32 57.5 13.76 57.5 14.76V16.1C57.5 17.44 56.78 18.1 55.2 18.1C53.52 18.1 52.78 17.38 52.78 16.02V14.84H54.6V16.08C54.6 16.38 54.78 16.52 55.1 16.52C55.42 16.52 55.56 16.38 55.56 16.14V14.82C55.56 14.5 55.48 14.3 54.98 13.94C54.54 13.62 53.74 13.14 53.38 12.74C52.96 12.28 52.86 11.76 52.86 11.18V9.86C52.86 8.76 53.68 8.08 55.1 8.08C56.6 8.08 57.42 8.86 57.42 10.18V11.14ZM62.8134 14.68V15.76C62.8134 17.32 62.0334 18.1 60.4334 18.1C58.8534 18.1 58.1134 17.34 58.1134 15.76V10.42C58.1134 8.84 58.8534 8.08 60.4534 8.08C62.0334 8.08 62.8134 8.84 62.8134 10.42V13.64H59.9934V15.8C59.9934 16.2 60.1534 16.4 60.4334 16.4C60.7334 16.4 60.8934 16.2 60.8934 15.8V14.68H62.8134ZM60.8934 12.26V10.38C60.8934 9.96 60.7534 9.78 60.4534 9.78C60.1534 9.78 59.9934 9.96 59.9934 10.38V12.26H60.8934ZM68.1605 15.64V4.72H70.1805V15.48C70.1805 17.16 69.3405 18.1 67.7405 18.1C66.1805 18.1 65.2805 17.24 65.2805 15.5V4.72H67.2605V15.64C67.2605 16.04 67.4205 16.24 67.7205 16.24C68.0205 16.24 68.1605 16.04 68.1605 15.64ZM73.6278 15.82V10.36C73.6278 9.96 73.4678 9.76 73.1678 9.76C72.9078 9.76 72.7678 9.9 72.7278 10.2V15.96C72.7678 16.26 72.9078 16.42 73.1678 16.42C73.4678 16.42 73.6278 16.22 73.6278 15.82ZM72.7678 22.66H70.8478V8.16H72.6078L72.6278 9.02H72.7078C73.0278 8.36 73.4078 8.08 74.0278 8.08C74.9878 8.08 75.5878 8.76 75.5878 9.84V16.32C75.5878 17.4 74.9678 18.1 74.0478 18.1C73.5278 18.1 73.1078 17.88 72.8478 17.38H72.7678V22.66Z" fill="white"/>
<defs>
<filter id="filter0_d_2056_87" x="0" y="0" width="115" height="30" filterUnits="userSpaceOnUse" color-interpolation-filters="sRGB">
<feFlood flood-opacity="0" result="BackgroundImageFix"/>
<feColorMatrix in="SourceAlpha" type="matrix" values="0 0 0 0 0 0 0 0 0 0 0 0 0 0 0 0 0 0 127 0" result="hardAlpha"/>
<feOffset dy="4"/>
<feGaussianBlur stdDeviation="2"/>
<feComposite in2="hardAlpha" operator="out"/>
<feColorMatrix type="matrix" values="0 0 0 0 0 0 0 0 0 0 0 0 0 0 0 0 0 0 0.25 0"/>
<feBlend mode="normal" in2="BackgroundImageFix" result="effect1_dropShadow_2056_87"/>
<feBlend mode="normal" in="SourceGraphic" in2="effect1_dropShadow_2056_87" result="shape"/>
</filter>
<linearGradient id="paint0_linear_2056_87" x1="57.5" y1="22" x2="57.5" y2="0" gradientUnits="userSpaceOnUse">
<stop stop-color="#737373"/>
<stop offset="1" stop-color="#D9D9D9"/>
</linearGradient>
</defs>
</svg>
