<svg width="232" height="41" viewBox="0 0 232 41" fill="none" xmlns="http://www.w3.org/2000/svg">
<g filter="url(#filter0_d_2056_125)">
<rect x="4" width="224" height="33" rx="7" fill="url(#paint0_linear_2056_125)"/>
</g>
<path d="M61.6473 25H59.2713V22.648H61.6473V25ZM61.2873 20.872H59.6553C59.4153 19.312 59.2233 17.656 59.2233 15.952V9.064H61.7193V15.088C61.7193 17.128 61.5753 19.048 61.2873 20.872ZM65.2333 25H62.8573V22.648H65.2333V25ZM64.8733 20.872H63.2413C63.0013 19.312 62.8093 17.656 62.8093 15.952V9.064H65.3053V15.088C65.3053 17.128 65.1613 19.048 64.8733 20.872ZM68.8192 25H66.4432V22.648H68.8192V25ZM68.4592 20.872H66.8272C66.5872 19.312 66.3952 17.656 66.3952 15.952V9.064H68.8912V15.088C68.8912 17.128 68.7472 19.048 68.4592 20.872ZM79.4945 25H76.4225V9.064H79.4945C81.3905 9.064 82.3265 10.024 82.3265 11.944V21.976C82.3265 24.088 81.3425 25 79.4945 25ZM78.8225 22.816H79.3265C79.6865 22.816 79.8785 22.36 79.8785 21.448V12.496C79.8785 11.656 79.6385 11.248 79.1585 11.248H78.8225V22.816ZM87.7348 25H83.0788V9.064H87.5908V11.248H85.4788V15.544H87.3268V17.752H85.4788V22.816H87.7348V25ZM93.0104 25H88.2584V9.064H90.7064V22.768H93.0104V25ZM98.2348 25H93.5788V9.064H98.0908V11.248H95.9788V15.544H97.8268V17.752H95.9788V22.816H98.2348V25ZM102.742 25H100.318V11.248H98.6144V9.064H104.47V11.248H102.742V25ZM109.696 25H105.04V9.064H109.552V11.248H107.44V15.544H109.288V17.752H107.44V22.816H109.696V25ZM118.663 25H116.239L115.975 21.376H114.751L114.511 25H112.135L113.695 9.064H117.103L118.663 25ZM115.327 13.12L114.895 19.288H115.831L115.423 13.12H115.327ZM123.878 25H119.126V9.064H121.574V22.768H123.878V25ZM129.198 25H124.446V9.064H126.894V22.768H129.198V25ZM135.041 25H131.969V9.064H135.041C136.937 9.064 137.873 10.024 137.873 11.944V21.976C137.873 24.088 136.889 25 135.041 25ZM134.369 22.816H134.873C135.233 22.816 135.425 22.36 135.425 21.448V12.496C135.425 11.656 135.185 11.248 134.705 11.248H134.369V22.816ZM144.678 25H142.254L141.99 21.376H140.766L140.526 25H138.15L139.71 9.064H143.118L144.678 25ZM141.342 13.12L140.91 19.288H141.846L141.438 13.12H141.342ZM148.211 25H145.787V11.248H144.083V9.064H149.939V11.248H148.211V25ZM155.834 25H153.41L153.146 21.376H151.922L151.682 25H149.306L150.866 9.064H154.274L155.834 25ZM152.498 13.12L152.066 19.288H153.002L152.594 13.12H152.498ZM165.499 25H163.123V22.648H165.499V25ZM165.139 20.872H163.507C163.267 19.312 163.075 17.656 163.075 15.952V9.064H165.571V15.088C165.571 17.128 165.427 19.048 165.139 20.872ZM169.085 25H166.709V22.648H169.085V25ZM168.725 20.872H167.093C166.853 19.312 166.661 17.656 166.661 15.952V9.064H169.157V15.088C169.157 17.128 169.013 19.048 168.725 20.872ZM172.671 25H170.295V22.648H172.671V25ZM172.311 20.872H170.679C170.439 19.312 170.247 17.656 170.247 15.952V9.064H172.743V15.088C172.743 17.128 172.599 19.048 172.311 20.872Z" fill="white"/>
<defs>
<filter id="filter0_d_2056_125" x="0" y="0" width="232" height="41" filterUnits="userSpaceOnUse" color-interpolation-filters="sRGB">
<feFlood flood-opacity="0" result="BackgroundImageFix"/>
<feColorMatrix in="SourceAlpha" type="matrix" values="0 0 0 0 0 0 0 0 0 0 0 0 0 0 0 0 0 0 127 0" result="hardAlpha"/>
<feOffset dy="4"/>
<feGaussianBlur stdDeviation="2"/>
<feComposite in2="hardAlpha" operator="out"/>
<feColorMatrix type="matrix" values="0 0 0 0 0 0 0 0 0 0 0 0 0 0 0 0 0 0 0.25 0"/>
<feBlend mode="normal" in2="BackgroundImageFix" result="effect1_dropShadow_2056_125"/>
<feBlend mode="normal" in="SourceGraphic" in2="effect1_dropShadow_2056_125" result="shape"/>
</filter>
<linearGradient id="paint0_linear_2056_125" x1="116" y1="33" x2="116" y2="0" gradientUnits="userSpaceOnUse">
<stop stop-color="#404040"/>
<stop offset="1" stop-color="#9B9B9B"/>
</linearGradient>
</defs>
</svg>
