<svg width="115" height="30" viewBox="0 0 115 30" fill="none" xmlns="http://www.w3.org/2000/svg">
<g filter="url(#filter0_d_2056_47)">
<rect x="4" width="107" height="22" rx="7" fill="url(#paint0_linear_2056_47)"/>
</g>
<path d="M38.8895 18H37.5895L37.5095 17.48H37.4295C37.2495 17.78 36.9695 18.1 36.2095 18.1C34.8695 18.1 34.0695 17.14 34.0695 15.48V7.3C34.0695 5.62 34.9095 4.64 36.4695 4.64C38.0495 4.64 38.8895 5.64 38.8895 7.34V8.82H36.9895V7.12C36.9895 6.72 36.8295 6.52 36.5295 6.52C36.2295 6.52 36.0895 6.72 36.0895 7.12V15.64C36.0895 16.04 36.2295 16.24 36.5295 16.24C36.8295 16.24 36.9895 16.04 36.9895 15.64V12.96H36.4095V11.16H38.8895V18ZM44.2388 10.42V15.76C44.2388 17.36 43.4788 18.1 41.8988 18.1C40.2988 18.1 39.5588 17.36 39.5588 15.76V10.42C39.5588 8.82 40.2988 8.08 41.8988 8.08C43.4788 8.08 44.2388 8.82 44.2388 10.42ZM42.3388 15.76V10.42C42.3388 10.02 42.1788 9.82 41.8988 9.82C41.6188 9.82 41.4388 10.02 41.4388 10.42V15.76C41.4388 16.16 41.6188 16.36 41.8988 16.36C42.1788 16.36 42.3388 16.16 42.3388 15.76ZM50.0263 18H48.0063V6.54H46.5863V4.72H51.4663V6.54H50.0263V18ZM55.7622 10.42V15.76C55.7622 17.36 55.0022 18.1 53.4222 18.1C51.8222 18.1 51.0822 17.36 51.0822 15.76V10.42C51.0822 8.82 51.8222 8.08 53.4222 8.08C55.0022 8.08 55.7622 8.82 55.7622 10.42ZM53.8622 15.76V10.42C53.8622 10.02 53.7022 9.82 53.4222 9.82C53.1422 9.82 52.9622 10.02 52.9622 10.42V15.76C52.9622 16.16 53.1422 16.36 53.4222 16.36C53.7022 16.36 53.8622 16.16 53.8622 15.76ZM63.2097 18H61.1697V11.82H60.2697V18H58.2297V4.72H60.2697V10H61.1697V4.72H63.2097V18ZM68.6952 7.34V15.5C68.6952 17.24 67.8152 18.1 66.2552 18.1C64.6552 18.1 63.7752 17.16 63.7752 15.48V7.3C63.7752 5.62 64.6752 4.64 66.2352 4.64C67.7952 4.64 68.6952 5.64 68.6952 7.34ZM66.6952 15.64V7.12C66.6952 6.72 66.5352 6.52 66.2352 6.52C65.9352 6.52 65.7952 6.72 65.7952 7.12V15.64C65.7952 16.04 65.9352 16.24 66.2352 16.24C66.5352 16.24 66.6952 16.04 66.6952 15.64ZM76.5848 18H74.7848V12.86C74.7848 12.2 74.8248 9.42 74.8648 8.74H74.7848L73.7848 18H72.0648L71.0648 8.74H70.9848C71.0448 9.4 71.0648 10.08 71.0648 12.86V18H69.2648V4.72H72.3248L72.9248 13.1H73.0048L73.6248 4.72H76.5848V18ZM81.0941 18H77.2141V4.72H80.9741V6.54H79.2141V10.12H80.7541V11.96H79.2141V16.18H81.0941V18Z" fill="white"/>
<defs>
<filter id="filter0_d_2056_47" x="0" y="0" width="115" height="30" filterUnits="userSpaceOnUse" color-interpolation-filters="sRGB">
<feFlood flood-opacity="0" result="BackgroundImageFix"/>
<feColorMatrix in="SourceAlpha" type="matrix" values="0 0 0 0 0 0 0 0 0 0 0 0 0 0 0 0 0 0 127 0" result="hardAlpha"/>
<feOffset dy="4"/>
<feGaussianBlur stdDeviation="2"/>
<feComposite in2="hardAlpha" operator="out"/>
<feColorMatrix type="matrix" values="0 0 0 0 0 0 0 0 0 0 0 0 0 0 0 0 0 0 0.25 0"/>
<feBlend mode="normal" in2="BackgroundImageFix" result="effect1_dropShadow_2056_47"/>
<feBlend mode="normal" in="SourceGraphic" in2="effect1_dropShadow_2056_47" result="shape"/>
</filter>
<linearGradient id="paint0_linear_2056_47" x1="57.5" y1="22" x2="57.5" y2="0" gradientUnits="userSpaceOnUse">
<stop stop-color="#737373"/>
<stop offset="1" stop-color="#D9D9D9"/>
</linearGradient>
</defs>
</svg>
