<svg width="115" height="30" viewBox="0 0 115 30" fill="none" xmlns="http://www.w3.org/2000/svg">
<g filter="url(#filter0_d_2056_115)">
<rect x="4" width="107" height="22" rx="7" fill="url(#paint0_linear_2056_115)"/>
</g>
<path d="M40.5888 18H39.2888L39.2088 17.48H39.1288C38.9488 17.78 38.6688 18.1 37.9088 18.1C36.5688 18.1 35.7688 17.14 35.7688 15.48V7.3C35.7688 5.62 36.6088 4.64 38.1688 4.64C39.7488 4.64 40.5888 5.64 40.5888 7.34V8.82H38.6888V7.12C38.6888 6.72 38.5288 6.52 38.2288 6.52C37.9288 6.52 37.7888 6.72 37.7888 7.12V15.64C37.7888 16.04 37.9288 16.24 38.2288 16.24C38.5288 16.24 38.6888 16.04 38.6888 15.64V12.96H38.1087V11.16H40.5888V18ZM43.198 18H41.258V8.16H43.078L43.118 9.02H43.198C43.418 8.46 43.778 8.08 44.418 8.08C44.578 8.08 44.718 8.1 44.858 8.16V9.9C44.698 9.84 44.558 9.82 44.338 9.82C43.498 9.82 43.198 10.24 43.198 11.04V18ZM47.9623 16.08V13.08C47.8223 13.16 47.6623 13.2 47.4623 13.26C47.1623 13.34 47.0423 13.56 47.0423 13.88V15.96C47.0423 16.26 47.2023 16.42 47.5023 16.42C47.7823 16.42 47.9023 16.3 47.9623 16.08ZM49.8823 18H48.0823L48.0423 17.28H47.9623C47.7823 17.6 47.5023 18.1 46.5823 18.1C45.4623 18.1 45.1423 17.4 45.1423 16.48V14.24C45.1423 12.96 45.6423 12.48 46.9423 12.14C47.6423 11.96 47.9423 11.88 47.9423 11.44V10.14C47.9423 9.88 47.8023 9.74 47.5223 9.74C47.2223 9.74 47.0623 9.9 47.0623 10.2V11.36H45.2623V9.96C45.2623 8.68 46.1623 8.08 47.6623 8.08C49.1223 8.08 49.8823 8.64 49.8823 9.84V18ZM52.5148 8.16V15.64C52.5148 16.06 52.6748 16.24 52.9548 16.24C53.2148 16.24 53.3948 16.06 53.4148 15.64V8.16H55.2948V20.32C55.2948 21.9 54.5148 22.66 52.9148 22.66C51.3348 22.66 50.5948 21.9 50.5948 20.32V18.6H52.4548V20.32C52.4548 20.72 52.6148 20.92 52.9148 20.92C53.2148 20.92 53.3548 20.72 53.3548 20.32V17.28H53.2748C52.9748 17.84 52.5748 18 52.0348 18C50.8948 18 50.5548 17.24 50.5548 16.08V8.16H52.5148ZM60.5645 11.14H58.7445V10.08C58.7445 9.8 58.5845 9.66 58.3045 9.66C58.0445 9.66 57.8445 9.78 57.8445 10.04V11.18C57.8445 11.5 57.8845 11.62 58.2845 11.92C58.7845 12.28 59.4245 12.54 59.9245 12.96C60.3645 13.32 60.6445 13.76 60.6445 14.76V16.1C60.6445 17.44 59.9245 18.1 58.3445 18.1C56.6645 18.1 55.9245 17.38 55.9245 16.02V14.84H57.7445V16.08C57.7445 16.38 57.9245 16.52 58.2445 16.52C58.5645 16.52 58.7045 16.38 58.7045 16.14V14.82C58.7045 14.5 58.6245 14.3 58.1245 13.94C57.6845 13.62 56.8845 13.14 56.5245 12.74C56.1045 12.28 56.0045 11.76 56.0045 11.18V9.86C56.0045 8.76 56.8245 8.08 58.2445 8.08C59.7445 8.08 60.5645 8.86 60.5645 10.18V11.14ZM64.038 15.76V14.44H65.878V15.76C65.878 17.32 65.178 18.1 63.578 18.1C61.998 18.1 61.258 17.34 61.258 15.76V10.42C61.258 8.84 61.998 8.08 63.598 8.08C65.178 8.08 65.878 8.84 65.878 10.42V11.68H64.038V10.42C64.038 10.02 63.898 9.82 63.598 9.82C63.298 9.82 63.138 10.02 63.138 10.42V15.76C63.138 16.16 63.298 16.36 63.578 16.36C63.878 16.36 64.038 16.16 64.038 15.76ZM69.2709 16.08V13.08C69.1309 13.16 68.9709 13.2 68.7709 13.26C68.4709 13.34 68.3509 13.56 68.3509 13.88V15.96C68.3509 16.26 68.5109 16.42 68.8109 16.42C69.0909 16.42 69.2109 16.3 69.2709 16.08ZM71.1909 18H69.3909L69.3509 17.28H69.2709C69.0909 17.6 68.8109 18.1 67.8909 18.1C66.7709 18.1 66.4509 17.4 66.4509 16.48V14.24C66.4509 12.96 66.9509 12.48 68.2509 12.14C68.9509 11.96 69.2509 11.88 69.2509 11.44V10.14C69.2509 9.88 69.1109 9.74 68.8309 9.74C68.5309 9.74 68.3709 9.9 68.3709 10.2V11.36H66.5709V9.96C66.5709 8.68 67.4709 8.08 68.9709 8.08C70.4309 8.08 71.1909 8.64 71.1909 9.84V18ZM73.8034 18H71.8634V4.56H73.8034V18ZM79.2002 14.68V15.76C79.2002 17.32 78.4202 18.1 76.8202 18.1C75.2402 18.1 74.5002 17.34 74.5002 15.76V10.42C74.5002 8.84 75.2402 8.08 76.8402 8.08C78.4202 8.08 79.2002 8.84 79.2002 10.42V13.64H76.3802V15.8C76.3802 16.2 76.5402 16.4 76.8202 16.4C77.1202 16.4 77.2802 16.2 77.2802 15.8V14.68H79.2002ZM77.2802 12.26V10.38C77.2802 9.96 77.1402 9.78 76.8402 9.78C76.5402 9.78 76.3802 9.96 76.3802 10.38V12.26H77.2802Z" fill="white"/>
<defs>
<filter id="filter0_d_2056_115" x="0" y="0" width="115" height="30" filterUnits="userSpaceOnUse" color-interpolation-filters="sRGB">
<feFlood flood-opacity="0" result="BackgroundImageFix"/>
<feColorMatrix in="SourceAlpha" type="matrix" values="0 0 0 0 0 0 0 0 0 0 0 0 0 0 0 0 0 0 127 0" result="hardAlpha"/>
<feOffset dy="4"/>
<feGaussianBlur stdDeviation="2"/>
<feComposite in2="hardAlpha" operator="out"/>
<feColorMatrix type="matrix" values="0 0 0 0 0 0 0 0 0 0 0 0 0 0 0 0 0 0 0.25 0"/>
<feBlend mode="normal" in2="BackgroundImageFix" result="effect1_dropShadow_2056_115"/>
<feBlend mode="normal" in="SourceGraphic" in2="effect1_dropShadow_2056_115" result="shape"/>
</filter>
<linearGradient id="paint0_linear_2056_115" x1="57.5" y1="22" x2="57.5" y2="0" gradientUnits="userSpaceOnUse">
<stop stop-color="#737373"/>
<stop offset="1" stop-color="#D9D9D9"/>
</linearGradient>
</defs>
</svg>
