<svg width="661" height="87" viewBox="0 0 661 87" fill="none" xmlns="http://www.w3.org/2000/svg">
<rect width="661" height="87" rx="7" fill="#D9D9D9"/>
<path d="M244.774 53.28V31.44H248.814V52.96C248.814 56.32 247.134 58.2 243.934 58.2C240.814 58.2 239.014 56.48 239.014 53V31.44H242.974V53.28C242.974 54.08 243.294 54.48 243.894 54.48C244.494 54.48 244.774 54.08 244.774 53.28ZM263.829 47.92H262.149V58H258.069V31.44H263.829C266.709 31.44 267.789 33 267.789 35.64V43.76C267.789 46.4 266.709 47.92 263.829 47.92ZM262.149 35.08V44.44H262.989C263.629 44.44 263.949 43.96 263.949 43.12V36.12C263.949 35.4 263.629 35.08 262.989 35.08H262.149ZM284.692 58H276.772V31.44H280.852V54.28H284.692V58ZM303.047 36.68V53C303.047 56.48 301.287 58.2 298.167 58.2C294.967 58.2 293.207 56.32 293.207 52.96V36.6C293.207 33.24 295.007 31.28 298.127 31.28C301.247 31.28 303.047 33.28 303.047 36.68ZM299.047 53.28V36.24C299.047 35.44 298.727 35.04 298.127 35.04C297.527 35.04 297.247 35.44 297.247 36.24V53.28C297.247 54.08 297.527 54.48 298.127 54.48C298.727 54.48 299.047 54.08 299.047 53.28ZM322.273 58H318.233L317.793 51.96H315.753L315.353 58H311.393L313.993 31.44H319.673L322.273 58ZM316.713 38.2L315.993 48.48H317.553L316.873 38.2H316.713ZM336.165 58H331.045V31.44H336.165C339.325 31.44 340.885 33.04 340.885 36.24V52.96C340.885 56.48 339.245 58 336.165 58ZM335.045 54.36H335.885C336.485 54.36 336.805 53.6 336.805 52.08V37.16C336.805 35.76 336.405 35.08 335.605 35.08H335.045V54.36ZM371.771 58H367.691V45.64H365.891V58H361.811V31.44H365.891V42H367.691V31.44H371.771V58ZM388.782 58H381.022V31.44H388.542V35.08H385.022V42.24H388.102V45.92H385.022V54.36H388.782V58ZM401.655 58H397.655V31.44H403.455C406.335 31.44 407.375 33 407.375 35.64V41.6C407.375 43.36 406.535 44.56 405.215 44.8V44.96C406.535 45.16 407.455 45.96 407.455 48.16V58H403.455V47.8C403.455 47.08 403.175 46.68 402.535 46.68H401.655V58ZM403.455 42.04V36.12C403.455 35.4 403.135 35.08 402.455 35.08H401.655V43.36H402.455C403.135 43.36 403.455 42.88 403.455 42.04ZM424.313 58H416.553V31.44H424.073V35.08H420.553V42.24H423.633V45.92H420.553V54.36H424.313V58Z" fill="#A8A8A8"/>
</svg>
