<svg width="232" height="41" viewBox="0 0 232 41" fill="none" xmlns="http://www.w3.org/2000/svg">
<g filter="url(#filter0_d_2075_12)">
<rect x="4" width="224" height="33" rx="7" fill="url(#paint0_linear_2075_12)"/>
</g>
<path d="M94.4398 25H92.0158L91.7518 21.376H90.5278L90.2878 25H87.9118L89.4718 9.064H92.8798L94.4398 25ZM91.1038 13.12L90.6718 19.288H91.6078L91.1998 13.12H91.1038ZM97.351 25H94.903V9.064H97.351V25ZM102.694 25H100.294V9.064H103.774C105.502 9.064 106.126 10 106.126 11.584V15.16C106.126 16.216 105.622 16.936 104.83 17.08V17.176C105.622 17.296 106.174 17.776 106.174 19.096V25H103.774V18.88C103.774 18.448 103.606 18.208 103.222 18.208H102.694V25ZM103.774 15.424V11.872C103.774 11.44 103.582 11.248 103.174 11.248H102.694V16.216H103.174C103.582 16.216 103.774 15.928 103.774 15.424ZM111.489 25H106.833V9.064H111.345V11.248H109.233V15.544H111.081V17.752H109.233V22.816H111.489V25ZM115.996 25H113.572V11.248H111.868V9.064H117.724V11.248H115.996V25ZM123.938 12.208V22C123.938 24.088 122.882 25.12 121.01 25.12C119.09 25.12 118.034 23.992 118.034 21.976V12.16C118.034 10.144 119.114 8.968 120.986 8.968C122.858 8.968 123.938 10.168 123.938 12.208ZM121.538 22.168V11.944C121.538 11.464 121.346 11.224 120.986 11.224C120.626 11.224 120.458 11.464 120.458 11.944V22.168C120.458 22.648 120.626 22.888 120.986 22.888C121.346 22.888 121.538 22.648 121.538 22.168ZM128.078 22.168V9.064H130.502V21.976C130.502 23.992 129.494 25.12 127.574 25.12C125.702 25.12 124.622 24.088 124.622 22V9.064H126.998V22.168C126.998 22.648 127.19 22.888 127.55 22.888C127.91 22.888 128.078 22.648 128.078 22.168ZM134.759 22.168V18.496H137.039V22C137.039 24.088 136.055 25.12 134.183 25.12C132.263 25.12 131.255 23.992 131.255 21.976V12.064C131.255 9.976 132.215 8.968 134.159 8.968C136.007 8.968 137.039 9.856 137.039 12.04V14.776H134.759V11.944C134.759 11.464 134.567 11.224 134.207 11.224C133.847 11.224 133.679 11.464 133.679 11.944V22.168C133.679 22.672 133.799 22.888 134.183 22.888C134.567 22.888 134.759 22.672 134.759 22.168ZM143.77 25H141.322V17.584H140.242V25H137.794V9.064H140.242V15.4H141.322V9.064H143.77V25Z" fill="white"/>
<defs>
<filter id="filter0_d_2075_12" x="0" y="0" width="232" height="41" filterUnits="userSpaceOnUse" color-interpolation-filters="sRGB">
<feFlood flood-opacity="0" result="BackgroundImageFix"/>
<feColorMatrix in="SourceAlpha" type="matrix" values="0 0 0 0 0 0 0 0 0 0 0 0 0 0 0 0 0 0 127 0" result="hardAlpha"/>
<feOffset dy="4"/>
<feGaussianBlur stdDeviation="2"/>
<feComposite in2="hardAlpha" operator="out"/>
<feColorMatrix type="matrix" values="0 0 0 0 0 0 0 0 0 0 0 0 0 0 0 0 0 0 0.25 0"/>
<feBlend mode="normal" in2="BackgroundImageFix" result="effect1_dropShadow_2075_12"/>
<feBlend mode="normal" in="SourceGraphic" in2="effect1_dropShadow_2075_12" result="shape"/>
</filter>
<linearGradient id="paint0_linear_2075_12" x1="116" y1="33" x2="116" y2="0" gradientUnits="userSpaceOnUse">
<stop stop-color="#4CBD14"/>
<stop offset="1" stop-color="#68EF7E"/>
</linearGradient>
</defs>
</svg>
