<svg width="200" height="100" viewBox="0 0 200 100" fill="none" xmlns="http://www.w3.org/2000/svg">
<rect y="18" width="200" height="64" rx="7" fill="#1A1A1A"/>
<path d="M49.9409 45.536H45.3809V41.84C45.3809 40.928 44.9489 40.448 44.1809 40.448C43.3649 40.448 42.9809 40.976 42.9809 41.696V44.48C42.9809 46.256 43.1249 46.736 43.9889 47.696C45.6689 49.616 47.8289 51.104 49.0289 52.688C49.9409 53.936 50.3729 55.184 50.3729 57.776V62.048C50.3729 66.08 48.5009 68.24 44.1809 68.24C39.9089 68.24 38.0369 66.128 38.0369 62V58.448H42.6449V62.384C42.6449 63.248 43.1249 63.776 43.9889 63.776C44.8529 63.776 45.2369 63.248 45.2369 62.384V58.88C45.2369 56.528 44.9009 55.952 43.9409 54.896C42.4049 53.216 40.5809 51.776 39.4769 49.856C38.6129 48.368 38.1809 46.88 38.1809 44.24V41.552C38.1809 37.952 40.2449 35.936 44.0849 35.936C48.4049 35.936 49.9409 38.48 49.9409 42.416V45.536ZM63.8328 68H58.9848L58.4568 60.752H56.0088L55.5288 68H50.7768L53.8968 36.128H60.7128L63.8328 68ZM57.1608 44.24L56.2968 56.576H58.1688L57.3528 44.24H57.1608ZM72.1034 68H65.2874L62.1674 36.128H67.0154L68.6954 59.072H68.8874L70.5194 36.128H75.2234L72.1034 68ZM85.4617 68H76.1497V36.128H85.1737V40.496H80.9497V49.088H84.6457V53.504H80.9497V63.632H85.4617V68ZM97.8273 55.904H95.8113V68H90.9153V36.128H97.8273C101.283 36.128 102.579 38 102.579 41.168V50.912C102.579 54.08 101.283 55.904 97.8273 55.904ZM95.8113 40.496V51.728H96.8193C97.5873 51.728 97.9713 51.152 97.9713 50.144V41.744C97.9713 40.88 97.5873 40.496 96.8193 40.496H95.8113ZM115.711 68H110.815V53.168H108.655V68H103.759V36.128H108.655V48.8H110.815V36.128H115.711V68ZM128.876 42.416V62C128.876 66.176 126.764 68.24 123.02 68.24C119.18 68.24 117.068 65.984 117.068 61.952V42.32C117.068 38.288 119.228 35.936 122.972 35.936C126.716 35.936 128.876 38.336 128.876 42.416ZM124.076 62.336V41.888C124.076 40.928 123.692 40.448 122.972 40.448C122.252 40.448 121.916 40.928 121.916 41.888V62.336C121.916 63.296 122.252 63.776 122.972 63.776C123.692 63.776 124.076 63.296 124.076 62.336ZM137.836 68H132.988V40.496H129.58V36.128H141.292V40.496H137.836V68ZM153.72 42.416V62C153.72 66.176 151.608 68.24 147.864 68.24C144.024 68.24 141.912 65.984 141.912 61.952V42.32C141.912 38.288 144.072 35.936 147.816 35.936C151.56 35.936 153.72 38.336 153.72 42.416ZM148.92 62.336V41.888C148.92 40.928 148.536 40.448 147.816 40.448C147.096 40.448 146.76 40.928 146.76 41.888V62.336C146.76 63.296 147.096 63.776 147.816 63.776C148.536 63.776 148.92 63.296 148.92 62.336ZM160.271 68H155.519V63.296H160.271V68ZM159.551 59.744H156.287C155.807 56.624 155.423 53.312 155.423 49.904V36.128H160.415V48.176C160.415 52.256 160.127 56.096 159.551 59.744Z" fill="white"/>
</svg>
