<svg width="196" height="200" viewBox="0 0 196 200" fill="none" xmlns="http://www.w3.org/2000/svg">
<rect x="0.5" y="0.5" width="195" height="199" rx="6.5" stroke="#A8A8A8"/>
<path d="M76.7901 33H72.5061L70.4181 16.404H70.2741C70.3821 18.204 70.4181 20.328 70.4181 25.332V33H67.2861V9.096H72.1461L73.6221 24.468H73.7661C73.6941 22.2 73.6221 20.004 73.6221 14.424V9.096H76.7901V33ZM86.6161 13.812V28.5C86.6161 31.632 85.0321 33.18 82.2241 33.18C79.3441 33.18 77.7601 31.488 77.7601 28.464V13.74C77.7601 10.716 79.3801 8.952 82.1881 8.952C84.9961 8.952 86.6161 10.752 86.6161 13.812ZM83.0161 28.752V13.416C83.0161 12.696 82.7281 12.336 82.1881 12.336C81.6481 12.336 81.3961 12.696 81.3961 13.416V28.752C81.3961 29.472 81.6481 29.832 82.1881 29.832C82.7281 29.832 83.0161 29.472 83.0161 28.752ZM91.2416 33H87.6416V9.096H92.8616C95.4536 9.096 96.3896 10.5 96.3896 12.876V18.24C96.3896 19.824 95.6336 20.904 94.4456 21.12V21.264C95.6336 21.444 96.4616 22.164 96.4616 24.144V33H92.8616V23.82C92.8616 23.172 92.6096 22.812 92.0336 22.812H91.2416V33ZM92.8616 18.636V13.308C92.8616 12.66 92.5736 12.372 91.9616 12.372H91.2416V19.824H91.9616C92.5736 19.824 92.8616 19.392 92.8616 18.636ZM110.626 33H107.386V23.748C107.386 22.56 107.458 17.556 107.53 16.332H107.386L105.586 33H102.49L100.69 16.332H100.546C100.654 17.52 100.69 18.744 100.69 23.748V33H97.4502V9.096H102.958L104.038 24.18H104.182L105.298 9.096H110.626V33ZM121.119 33H117.483L117.087 27.564H115.251L114.891 33H111.327L113.667 9.096H118.779L121.119 33ZM116.115 15.18L115.467 24.432H116.871L116.259 15.18H116.115ZM128.941 33H121.813V9.096H125.485V29.652H128.941V33ZM90.798 58H87.558V48.748C87.558 47.56 87.63 42.556 87.702 41.332H87.558L85.758 58H82.662L80.862 41.332H80.718C80.826 42.52 80.862 43.744 80.862 48.748V58H77.622V34.096H83.13L84.21 49.18H84.354L85.47 34.096H90.798V58ZM100.679 38.812V53.5C100.679 56.632 99.0946 58.18 96.2866 58.18C93.4066 58.18 91.8226 56.488 91.8226 53.464V38.74C91.8226 35.716 93.4426 33.952 96.2506 33.952C99.0586 33.952 100.679 35.752 100.679 38.812ZM97.0786 53.752V38.416C97.0786 37.696 96.7906 37.336 96.2506 37.336C95.7106 37.336 95.4586 37.696 95.4586 38.416V53.752C95.4586 54.472 95.7106 54.832 96.2506 54.832C96.7906 54.832 97.0786 54.472 97.0786 53.752ZM106.312 58H101.704V34.096H106.312C109.156 34.096 110.56 35.536 110.56 38.416V53.464C110.56 56.632 109.084 58 106.312 58ZM105.304 54.724H106.06C106.6 54.724 106.888 54.04 106.888 52.672V39.244C106.888 37.984 106.528 37.372 105.808 37.372H105.304V54.724ZM118.672 58H111.688V34.096H118.456V37.372H115.288V43.816H118.06V47.128H115.288V54.724H118.672V58Z" fill="black"/>
<path d="M29.7832 96H29.3047L32.8457 86.1016H33.4062L36.9609 96H36.4824L35.3203 92.7461H30.9453L29.7832 96ZM31.0957 92.3086H35.1699L33.1602 86.6758H33.1055L31.0957 92.3086ZM41.5 98.7891V88.5762H41.9375V90.3535H41.9922C42.375 89.2598 43.2227 88.4668 44.4531 88.4668C46.2305 88.4668 47.3652 90.0938 47.3652 92.3086C47.3652 94.5234 46.2168 96.1504 44.4531 96.1504C43.2363 96.1504 42.3613 95.3711 41.9922 94.25H41.9512V98.7891H41.5ZM41.9512 92.3086C41.9512 94.2637 42.8945 95.7266 44.4258 95.7266C45.9707 95.7266 46.9141 94.25 46.9141 92.3086C46.9141 90.3672 45.9844 88.8906 44.4258 88.8906C42.8809 88.8906 41.9512 90.3535 41.9512 92.3086ZM49.2246 96V88.5762H49.6621V96H49.2246ZM49.4434 87.2363C49.2383 87.2363 49.0605 87.0723 49.0605 86.8535C49.0605 86.6484 49.2383 86.4707 49.4434 86.4707C49.6621 86.4707 49.8398 86.6484 49.8398 86.8535C49.8398 87.0723 49.6621 87.2363 49.4434 87.2363ZM54.6797 96.1504C52.8203 96.1504 51.5215 94.5098 51.5215 92.3086C51.5215 90.1211 52.834 88.4668 54.666 88.4668C56.0332 88.4668 57.1543 89.3965 57.373 90.75H56.9082C56.7168 89.6562 55.8145 88.8906 54.6797 88.8906C53.1211 88.8906 51.959 90.3262 51.959 92.3086C51.959 94.2363 53.0664 95.7266 54.6797 95.7266C55.8145 95.7266 56.7441 94.9883 56.9219 93.8262H57.3867C57.168 95.2207 56.0742 96.1504 54.6797 96.1504ZM61.666 88.5762V88.9863H60.1074V94.3457C60.1074 95.2207 60.7363 95.6992 61.4336 95.6992L61.8848 95.6855V96.1094C61.7891 96.123 61.666 96.123 61.4199 96.123C60.4902 96.123 59.6699 95.4805 59.6699 94.3867V88.9863H58.5762V88.5762H59.6699V86.7988H60.1074V88.5762H61.666ZM68.4609 93.4707V88.5762H68.8984V96H68.4609V94.8105H68.4199C68.0645 95.5762 67.2305 96.0957 66.1914 96.0957C64.7148 96.0957 63.6758 95.0703 63.6758 93.5254V88.5762H64.127V93.5117C64.127 94.7832 65.002 95.6582 66.2598 95.6582C67.4902 95.6582 68.4609 94.7832 68.4609 93.4707ZM71.1543 96V88.5762H71.5918V89.752H71.6465C71.9746 88.9727 72.8223 88.4805 73.8203 88.4805H74.0391V88.918H73.8066C72.5215 88.918 71.6055 89.8066 71.6055 91.0645V96H71.1543ZM78.0039 96.1504C76.0215 96.1504 74.7363 94.5098 74.7363 92.3086C74.7363 90.1074 76.0625 88.4668 77.8535 88.4668C79.5488 88.4668 80.916 89.957 80.916 92.0078V92.3496H75.1738C75.1875 94.2295 76.2266 95.7266 78.0039 95.7266C79.2891 95.7266 79.9863 94.9199 80.2324 94.4414H80.7109C80.4102 95.248 79.4668 96.1504 78.0039 96.1504ZM75.1875 91.9258H80.4648C80.4648 90.2305 79.3164 88.8906 77.8535 88.8906C76.418 88.8906 75.2764 90.1895 75.1875 91.9258ZM85.9062 96V88.5762H86.3438V96H85.9062ZM86.125 87.2363C85.9199 87.2363 85.7422 87.0723 85.7422 86.8535C85.7422 86.6484 85.9199 86.4707 86.125 86.4707C86.3438 86.4707 86.5215 86.6484 86.5215 86.8535C86.5215 87.0723 86.3438 87.2363 86.125 87.2363ZM92.7559 90.2305C92.5781 89.3965 91.8809 88.8906 90.8691 88.877C89.7344 88.877 88.9414 89.5195 88.9414 90.4355C88.9414 91.1602 89.4336 91.6797 90.418 91.9258L91.5664 92.2129C92.7012 92.4863 93.2754 93.1699 93.2754 94.0996C93.2754 95.3027 92.2773 96.1504 90.7324 96.1504C89.3242 96.1504 88.4082 95.4531 88.2168 94.2227H88.6816C88.8594 95.207 89.584 95.7402 90.7324 95.7402C91.9902 95.7402 92.8242 95.0977 92.8242 94.1133C92.8242 93.3887 92.373 92.8555 91.4297 92.6367L90.2812 92.3496C89.1055 92.0625 88.5039 91.3926 88.5039 90.4492C88.5039 89.2734 89.4746 88.4531 90.8691 88.4668C92.168 88.4668 93.0156 89.1914 93.207 90.2305H92.7559ZM100.713 88.5762V88.9863H99.1543V94.3457C99.1543 95.2207 99.7832 95.6992 100.48 95.6992L100.932 95.6855V96.1094C100.836 96.123 100.713 96.123 100.467 96.123C99.5371 96.123 98.7168 95.4805 98.7168 94.3867V88.9863H97.623V88.5762H98.7168V86.7988H99.1543V88.5762H100.713ZM102.326 93.9766C102.326 92.8555 103.01 91.9258 104.965 91.7617C105.505 91.7139 106.742 91.625 107.125 91.5977V90.709C107.125 89.6016 106.332 88.877 105.088 88.877C104.035 88.877 103.174 89.3691 102.982 90.2305H102.518C102.695 89.123 103.775 88.4668 105.088 88.4668C106.496 88.4668 107.562 89.3008 107.562 90.7363V96H107.125V94.5645H107.084C106.66 95.4941 105.785 96.1641 104.637 96.1641C103.393 96.1641 102.326 95.3711 102.326 93.9766ZM102.777 93.9766C102.777 95.0566 103.598 95.7402 104.664 95.7402C106.059 95.7402 107.125 94.5645 107.125 92.9102V91.9941C106.749 92.0283 105.512 92.1377 105.088 92.1582C103.311 92.2949 102.777 93.0605 102.777 93.9766ZM109.846 96V86.1016H110.297V92.3496H110.352L114.18 88.5762H114.781L111.555 91.7754L114.918 96H114.344L111.227 92.0625L110.297 92.9648V96H109.846ZM118.842 96.1504C116.859 96.1504 115.574 94.5098 115.574 92.3086C115.574 90.1074 116.9 88.4668 118.691 88.4668C120.387 88.4668 121.754 89.957 121.754 92.0078V92.3496H116.012C116.025 94.2295 117.064 95.7266 118.842 95.7266C120.127 95.7266 120.824 94.9199 121.07 94.4414H121.549C121.248 95.248 120.305 96.1504 118.842 96.1504ZM116.025 91.9258H121.303C121.303 90.2305 120.154 88.8906 118.691 88.8906C117.256 88.8906 116.114 90.1895 116.025 91.9258ZM124.023 91.0918V96H123.572V88.5762H124.01V89.752H124.064C124.406 88.9863 125.24 88.4805 126.279 88.4805C127.77 88.4805 128.809 89.5059 128.809 91.0508V96H128.357V91.0645C128.357 89.7793 127.496 88.9043 126.225 88.9043C124.939 88.9043 124.023 89.793 124.023 91.0918ZM137.025 96.1504C135.043 96.1504 133.758 94.5098 133.758 92.3086C133.758 90.1074 135.084 88.4668 136.875 88.4668C138.57 88.4668 139.938 89.957 139.938 92.0078V92.3496H134.195C134.209 94.2295 135.248 95.7266 137.025 95.7266C138.311 95.7266 139.008 94.9199 139.254 94.4414H139.732C139.432 95.248 138.488 96.1504 137.025 96.1504ZM134.209 91.9258H139.486C139.486 90.2305 138.338 88.8906 136.875 88.8906C135.439 88.8906 134.298 90.1895 134.209 91.9258ZM146.787 88.5762L144.121 96H143.574L140.922 88.5762H141.387L143.834 95.4395H143.875L146.309 88.5762H146.787ZM150.998 96.1504C149.016 96.1504 147.73 94.5098 147.73 92.3086C147.73 90.1074 149.057 88.4668 150.848 88.4668C152.543 88.4668 153.91 89.957 153.91 92.0078V92.3496H148.168C148.182 94.2295 149.221 95.7266 150.998 95.7266C152.283 95.7266 152.98 94.9199 153.227 94.4414H153.705C153.404 95.248 152.461 96.1504 150.998 96.1504ZM148.182 91.9258H153.459C153.459 90.2305 152.311 88.8906 150.848 88.8906C149.412 88.8906 148.271 90.1895 148.182 91.9258ZM155.729 96V88.5762H156.166V89.752H156.221C156.549 88.9727 157.396 88.4805 158.395 88.4805H158.613V88.918H158.381C157.096 88.918 156.18 89.8066 156.18 91.0645V96H155.729ZM160.445 98.7891C160.363 98.7891 160.281 98.7891 160.227 98.7754V98.3516C160.268 98.3516 160.35 98.3652 160.432 98.3652C160.924 98.3652 161.539 98.2285 161.936 97.1484L162.305 96.123L159.598 88.5762H160.062L162.51 95.4395H162.551L164.984 88.5762H165.463L162.332 97.3125C161.99 98.2832 161.389 98.7891 160.445 98.7891ZM56.8604 103.576V103.986H55.3018V109.346C55.3018 110.221 55.9307 110.699 56.6279 110.699L57.0791 110.686V111.109C56.9834 111.123 56.8604 111.123 56.6143 111.123C55.6846 111.123 54.8643 110.48 54.8643 109.387V103.986H53.7705V103.576H54.8643V101.799H55.3018V103.576H56.8604ZM59.4854 106.092V111H59.0342V101.102H59.4854V104.752H59.5264C59.8818 103.973 60.7021 103.48 61.7549 103.48C63.2451 103.48 64.2842 104.506 64.2842 106.051V111H63.833V106.064C63.833 104.779 62.9717 103.904 61.7002 103.904C60.415 103.904 59.4854 104.793 59.4854 106.092ZM66.5264 111V103.576H66.9639V104.752H67.0186C67.3467 103.973 68.1943 103.48 69.1924 103.48H69.4111V103.918H69.1787C67.8936 103.918 66.9775 104.807 66.9775 106.064V111H66.5264ZM73.376 111.15C71.3936 111.15 70.1084 109.51 70.1084 107.309C70.1084 105.107 71.4346 103.467 73.2256 103.467C74.9209 103.467 76.2881 104.957 76.2881 107.008V107.35H70.5459C70.5596 109.229 71.5986 110.727 73.376 110.727C74.6611 110.727 75.3584 109.92 75.6045 109.441H76.083C75.7822 110.248 74.8389 111.15 73.376 111.15ZM70.5596 106.926H75.8369C75.8369 105.23 74.6885 103.891 73.2256 103.891C71.79 103.891 70.6484 105.189 70.5596 106.926ZM80.9502 111.15C78.9678 111.15 77.6826 109.51 77.6826 107.309C77.6826 105.107 79.0088 103.467 80.7998 103.467C82.4951 103.467 83.8623 104.957 83.8623 107.008V107.35H78.1201C78.1338 109.229 79.1729 110.727 80.9502 110.727C82.2354 110.727 82.9326 109.92 83.1787 109.441H83.6572C83.3564 110.248 82.4131 111.15 80.9502 111.15ZM78.1338 106.926H83.4111C83.4111 105.23 82.2627 103.891 80.7998 103.891C79.3643 103.891 78.2227 105.189 78.1338 106.926ZM92.9404 105.23C92.7627 104.396 92.0654 103.891 91.0537 103.877C89.9189 103.877 89.126 104.52 89.126 105.436C89.126 106.16 89.6182 106.68 90.6025 106.926L91.751 107.213C92.8857 107.486 93.46 108.17 93.46 109.1C93.46 110.303 92.4619 111.15 90.917 111.15C89.5088 111.15 88.5928 110.453 88.4014 109.223H88.8662C89.0439 110.207 89.7686 110.74 90.917 110.74C92.1748 110.74 93.0088 110.098 93.0088 109.113C93.0088 108.389 92.5576 107.855 91.6143 107.637L90.4658 107.35C89.29 107.062 88.6885 106.393 88.6885 105.449C88.6885 104.273 89.6592 103.453 91.0537 103.467C92.3525 103.467 93.2002 104.191 93.3916 105.23H92.9404ZM98.1357 111.15C96.1533 111.15 94.8682 109.51 94.8682 107.309C94.8682 105.107 96.1943 103.467 97.9854 103.467C99.6807 103.467 101.048 104.957 101.048 107.008V107.35H95.3057C95.3193 109.229 96.3584 110.727 98.1357 110.727C99.4209 110.727 100.118 109.92 100.364 109.441H100.843C100.542 110.248 99.5986 111.15 98.1357 111.15ZM95.3193 106.926H100.597C100.597 105.23 99.4482 103.891 97.9854 103.891C96.5498 103.891 95.4082 105.189 95.3193 106.926ZM105.601 111.15C103.741 111.15 102.442 109.51 102.442 107.309C102.442 105.121 103.755 103.467 105.587 103.467C106.954 103.467 108.075 104.396 108.294 105.75H107.829C107.638 104.656 106.735 103.891 105.601 103.891C104.042 103.891 102.88 105.326 102.88 107.309C102.88 109.236 103.987 110.727 105.601 110.727C106.735 110.727 107.665 109.988 107.843 108.826H108.308C108.089 110.221 106.995 111.15 105.601 111.15ZM112.806 111.15C111.015 111.15 109.688 109.523 109.688 107.309C109.688 105.094 111.015 103.467 112.806 103.467C114.597 103.467 115.937 105.107 115.937 107.309C115.937 109.523 114.597 111.15 112.806 111.15ZM112.806 110.727C114.378 110.727 115.485 109.236 115.485 107.309C115.485 105.381 114.364 103.891 112.806 103.891C111.247 103.891 110.126 105.381 110.126 107.309C110.126 109.236 111.247 110.727 112.806 110.727ZM118.192 106.092V111H117.741V103.576H118.179V104.752H118.233C118.575 103.986 119.409 103.48 120.448 103.48C121.938 103.48 122.978 104.506 122.978 106.051V111H122.526V106.064C122.526 104.779 121.665 103.904 120.394 103.904C119.108 103.904 118.192 104.793 118.192 106.092ZM127.708 111.15C125.931 111.15 124.796 109.523 124.796 107.309C124.796 105.094 125.944 103.467 127.708 103.467C128.925 103.467 129.8 104.246 130.155 105.354H130.21V101.102H130.647V111H130.21V109.25H130.155C129.772 110.357 128.925 111.15 127.708 111.15ZM127.722 110.727C129.267 110.727 130.21 109.264 130.21 107.309C130.21 105.354 129.267 103.891 127.722 103.891C126.177 103.891 125.247 105.367 125.247 107.309C125.247 109.25 126.177 110.727 127.722 110.727ZM137.251 105.23C137.073 104.396 136.376 103.891 135.364 103.877C134.229 103.877 133.437 104.52 133.437 105.436C133.437 106.16 133.929 106.68 134.913 106.926L136.062 107.213C137.196 107.486 137.771 108.17 137.771 109.1C137.771 110.303 136.772 111.15 135.228 111.15C133.819 111.15 132.903 110.453 132.712 109.223H133.177C133.354 110.207 134.079 110.74 135.228 110.74C136.485 110.74 137.319 110.098 137.319 109.113C137.319 108.389 136.868 107.855 135.925 107.637L134.776 107.35C133.601 107.062 132.999 106.393 132.999 105.449C132.999 104.273 133.97 103.453 135.364 103.467C136.663 103.467 137.511 104.191 137.702 105.23H137.251ZM140.382 110.33L139.507 113.516H139.138L139.917 110.33H140.382ZM33.4951 123.977C33.4951 122.855 34.1787 121.926 36.1338 121.762C36.6738 121.714 37.9111 121.625 38.2939 121.598V120.709C38.2939 119.602 37.501 118.877 36.2568 118.877C35.2041 118.877 34.3428 119.369 34.1514 120.23H33.6865C33.8643 119.123 34.9443 118.467 36.2568 118.467C37.665 118.467 38.7314 119.301 38.7314 120.736V126H38.2939V124.564H38.2529C37.8291 125.494 36.9541 126.164 35.8057 126.164C34.5615 126.164 33.4951 125.371 33.4951 123.977ZM33.9463 123.977C33.9463 125.057 34.7666 125.74 35.833 125.74C37.2275 125.74 38.2939 124.564 38.2939 122.91V121.994C37.918 122.028 36.6807 122.138 36.2568 122.158C34.4795 122.295 33.9463 123.061 33.9463 123.977ZM41.4658 121.092V126H41.0146V118.576H41.4521V119.752H41.5068C41.8486 118.986 42.6826 118.48 43.7217 118.48C45.2119 118.48 46.251 119.506 46.251 121.051V126H45.7998V121.064C45.7998 119.779 44.9385 118.904 43.667 118.904C42.3818 118.904 41.4658 119.793 41.4658 121.092ZM50.9814 126.15C49.2041 126.15 48.0693 124.523 48.0693 122.309C48.0693 120.094 49.2178 118.467 50.9814 118.467C52.1982 118.467 53.0732 119.246 53.4287 120.354H53.4834V116.102H53.9209V126H53.4834V124.25H53.4287C53.0459 125.357 52.1982 126.15 50.9814 126.15ZM50.9951 125.727C52.54 125.727 53.4834 124.264 53.4834 122.309C53.4834 120.354 52.54 118.891 50.9951 118.891C49.4502 118.891 48.5205 120.367 48.5205 122.309C48.5205 124.25 49.4502 125.727 50.9951 125.727ZM61.126 126L58.9248 118.576H59.3896L61.3857 125.371H61.4268L63.4365 118.576H63.8877L65.8975 125.357H65.9385L67.9346 118.576H68.3994L66.1846 126H65.6514L63.6826 119.342H63.6416L61.6729 126H61.126ZM70.4912 121.092V126H70.04V116.102H70.4912V119.752H70.5322C70.8877 118.973 71.708 118.48 72.7607 118.48C74.251 118.48 75.29 119.506 75.29 121.051V126H74.8389V121.064C74.8389 119.779 73.9775 118.904 72.7061 118.904C71.4209 118.904 70.4912 119.793 70.4912 121.092ZM80.376 126.15C78.3936 126.15 77.1084 124.51 77.1084 122.309C77.1084 120.107 78.4346 118.467 80.2256 118.467C81.9209 118.467 83.2881 119.957 83.2881 122.008V122.35H77.5459C77.5596 124.229 78.5986 125.727 80.376 125.727C81.6611 125.727 82.3584 124.92 82.6045 124.441H83.083C82.7822 125.248 81.8389 126.15 80.376 126.15ZM77.5596 121.926H82.8369C82.8369 120.23 81.6885 118.891 80.2256 118.891C78.79 118.891 77.6484 120.189 77.5596 121.926ZM85.5576 121.092V126H85.1064V118.576H85.5439V119.752H85.5986C85.9404 118.986 86.7744 118.48 87.8135 118.48C89.3037 118.48 90.3428 119.506 90.3428 121.051V126H89.8916V121.064C89.8916 119.779 89.0303 118.904 87.7588 118.904C86.4736 118.904 85.5576 119.793 85.5576 121.092ZM95.3193 123.977C95.3193 122.855 96.0029 121.926 97.958 121.762C98.498 121.714 99.7354 121.625 100.118 121.598V120.709C100.118 119.602 99.3252 118.877 98.0811 118.877C97.0283 118.877 96.167 119.369 95.9756 120.23H95.5107C95.6885 119.123 96.7686 118.467 98.0811 118.467C99.4893 118.467 100.556 119.301 100.556 120.736V126H100.118V124.564H100.077C99.6533 125.494 98.7783 126.164 97.6299 126.164C96.3857 126.164 95.3193 125.371 95.3193 123.977ZM95.7705 123.977C95.7705 125.057 96.5908 125.74 97.6572 125.74C99.0518 125.74 100.118 124.564 100.118 122.91V121.994C99.7422 122.028 98.5049 122.138 98.0811 122.158C96.3037 122.295 95.7705 123.061 95.7705 123.977ZM103.29 116.102V126H102.839V116.102H103.29ZM105.983 116.102V126H105.532V116.102H105.983ZM114.036 118.576V118.986H112.423L112.409 126H111.972V118.986H110.933V118.576H111.972V117.387C111.972 116.32 112.56 115.65 113.585 115.65C113.776 115.65 113.995 115.678 114.146 115.705V116.129C113.981 116.088 113.79 116.074 113.626 116.074C112.833 116.074 112.423 116.58 112.423 117.428V118.576H114.036ZM118.015 126.15C116.224 126.15 114.897 124.523 114.897 122.309C114.897 120.094 116.224 118.467 118.015 118.467C119.806 118.467 121.146 120.107 121.146 122.309C121.146 124.523 119.806 126.15 118.015 126.15ZM118.015 125.727C119.587 125.727 120.694 124.236 120.694 122.309C120.694 120.381 119.573 118.891 118.015 118.891C116.456 118.891 115.335 120.381 115.335 122.309C115.335 124.236 116.456 125.727 118.015 125.727ZM127.735 123.471V118.576H128.173V126H127.735V124.811H127.694C127.339 125.576 126.505 126.096 125.466 126.096C123.989 126.096 122.95 125.07 122.95 123.525V118.576H123.401V123.512C123.401 124.783 124.276 125.658 125.534 125.658C126.765 125.658 127.735 124.783 127.735 123.471ZM130.429 126V118.576H130.866V119.752H130.921C131.249 118.973 132.097 118.48 133.095 118.48H133.313V118.918H133.081C131.796 118.918 130.88 119.807 130.88 121.064V126H130.429ZM140.532 126.15C138.673 126.15 137.374 124.51 137.374 122.309C137.374 120.121 138.687 118.467 140.519 118.467C141.886 118.467 143.007 119.396 143.226 120.75H142.761C142.569 119.656 141.667 118.891 140.532 118.891C138.974 118.891 137.812 120.326 137.812 122.309C137.812 124.236 138.919 125.727 140.532 125.727C141.667 125.727 142.597 124.988 142.774 123.826H143.239C143.021 125.221 141.927 126.15 140.532 126.15ZM149.829 123.471V118.576H150.267V126H149.829V124.811H149.788C149.433 125.576 148.599 126.096 147.56 126.096C146.083 126.096 145.044 125.07 145.044 123.525V118.576H145.495V123.512C145.495 124.783 146.37 125.658 147.628 125.658C148.858 125.658 149.829 124.783 149.829 123.471ZM154.997 118.576V118.986H153.438V124.346C153.438 125.221 154.067 125.699 154.765 125.699L155.216 125.686V126.109C155.12 126.123 154.997 126.123 154.751 126.123C153.821 126.123 153.001 125.48 153.001 124.387V118.986H151.907V118.576H153.001V116.799H153.438V118.576H154.997ZM160.999 120.23C160.821 119.396 160.124 118.891 159.112 118.877C157.978 118.877 157.185 119.52 157.185 120.436C157.185 121.16 157.677 121.68 158.661 121.926L159.81 122.213C160.944 122.486 161.519 123.17 161.519 124.1C161.519 125.303 160.521 126.15 158.976 126.15C157.567 126.15 156.651 125.453 156.46 124.223H156.925C157.103 125.207 157.827 125.74 158.976 125.74C160.233 125.74 161.067 125.098 161.067 124.113C161.067 123.389 160.616 122.855 159.673 122.637L158.524 122.35C157.349 122.062 156.747 121.393 156.747 120.449C156.747 119.273 157.718 118.453 159.112 118.467C160.411 118.467 161.259 119.191 161.45 120.23H160.999ZM69.2744 138.977C69.2744 137.855 69.958 136.926 71.9131 136.762C72.4531 136.714 73.6904 136.625 74.0732 136.598V135.709C74.0732 134.602 73.2803 133.877 72.0361 133.877C70.9834 133.877 70.1221 134.369 69.9307 135.23H69.4658C69.6436 134.123 70.7236 133.467 72.0361 133.467C73.4443 133.467 74.5107 134.301 74.5107 135.736V141H74.0732V139.564H74.0322C73.6084 140.494 72.7334 141.164 71.585 141.164C70.3408 141.164 69.2744 140.371 69.2744 138.977ZM69.7256 138.977C69.7256 140.057 70.5459 140.74 71.6123 140.74C73.0068 140.74 74.0732 139.564 74.0732 137.91V136.994C73.6973 137.028 72.46 137.138 72.0361 137.158C70.2588 137.295 69.7256 138.061 69.7256 138.977ZM76.7939 141V133.576H77.2314V134.752H77.2861C77.6143 133.973 78.4619 133.48 79.46 133.48H79.6787V133.918H79.4463C78.1611 133.918 77.2451 134.807 77.2451 136.064V141H76.7939ZM83.6436 141.15C81.6611 141.15 80.376 139.51 80.376 137.309C80.376 135.107 81.7021 133.467 83.4932 133.467C85.1885 133.467 86.5557 134.957 86.5557 137.008V137.35H80.8135C80.8271 139.229 81.8662 140.727 83.6436 140.727C84.9287 140.727 85.626 139.92 85.8721 139.441H86.3506C86.0498 140.248 85.1064 141.15 83.6436 141.15ZM80.8271 136.926H86.1045C86.1045 135.23 84.9561 133.891 83.4932 133.891C82.0576 133.891 80.916 135.189 80.8271 136.926ZM93.9795 133.576V133.986H92.4209V139.346C92.4209 140.221 93.0498 140.699 93.7471 140.699L94.1982 140.686V141.109C94.1025 141.123 93.9795 141.123 93.7334 141.123C92.8037 141.123 91.9834 140.48 91.9834 139.387V133.986H90.8896V133.576H91.9834V131.799H92.4209V133.576H93.9795ZM95.5928 138.977C95.5928 137.855 96.2764 136.926 98.2314 136.762C98.7715 136.714 100.009 136.625 100.392 136.598V135.709C100.392 134.602 99.5986 133.877 98.3545 133.877C97.3018 133.877 96.4404 134.369 96.249 135.23H95.7842C95.9619 134.123 97.042 133.467 98.3545 133.467C99.7627 133.467 100.829 134.301 100.829 135.736V141H100.392V139.564H100.351C99.9268 140.494 99.0518 141.164 97.9033 141.164C96.6592 141.164 95.5928 140.371 95.5928 138.977ZM96.0439 138.977C96.0439 140.057 96.8643 140.74 97.9307 140.74C99.3252 140.74 100.392 139.564 100.392 137.91V136.994C100.016 137.028 98.7783 137.138 98.3545 137.158C96.5771 137.295 96.0439 138.061 96.0439 138.977ZM103.112 141V131.102H103.563V137.35H103.618L107.446 133.576H108.048L104.821 136.775L108.185 141H107.61L104.493 137.062L103.563 137.965V141H103.112ZM112.108 141.15C110.126 141.15 108.841 139.51 108.841 137.309C108.841 135.107 110.167 133.467 111.958 133.467C113.653 133.467 115.021 134.957 115.021 137.008V137.35H109.278C109.292 139.229 110.331 140.727 112.108 140.727C113.394 140.727 114.091 139.92 114.337 139.441H114.815C114.515 140.248 113.571 141.15 112.108 141.15ZM109.292 136.926H114.569C114.569 135.23 113.421 133.891 111.958 133.891C110.522 133.891 109.381 135.189 109.292 136.926ZM117.29 136.092V141H116.839V133.576H117.276V134.752H117.331C117.673 133.986 118.507 133.48 119.546 133.48C121.036 133.48 122.075 134.506 122.075 136.051V141H121.624V136.064C121.624 134.779 120.763 133.904 119.491 133.904C118.206 133.904 117.29 134.793 117.29 136.092ZM125.097 140.33L124.222 143.516H123.853L124.632 140.33H125.097ZM27.4111 148.576V148.986H25.8525V154.346C25.8525 155.221 26.4814 155.699 27.1787 155.699L27.6299 155.686V156.109C27.5342 156.123 27.4111 156.123 27.165 156.123C26.2354 156.123 25.415 155.48 25.415 154.387V148.986H24.3213V148.576H25.415V146.799H25.8525V148.576H27.4111ZM30.0361 151.092V156H29.585V146.102H30.0361V149.752H30.0771C30.4326 148.973 31.2529 148.48 32.3057 148.48C33.7959 148.48 34.835 149.506 34.835 151.051V156H34.3838V151.064C34.3838 149.779 33.5225 148.904 32.251 148.904C30.9658 148.904 30.0361 149.793 30.0361 151.092ZM39.9209 156.15C37.9385 156.15 36.6533 154.51 36.6533 152.309C36.6533 150.107 37.9795 148.467 39.7705 148.467C41.4658 148.467 42.833 149.957 42.833 152.008V152.35H37.0908C37.1045 154.229 38.1436 155.727 39.9209 155.727C41.2061 155.727 41.9033 154.92 42.1494 154.441H42.6279C42.3271 155.248 41.3838 156.15 39.9209 156.15ZM37.1045 151.926H42.3818C42.3818 150.23 41.2334 148.891 39.7705 148.891C38.335 148.891 37.1934 150.189 37.1045 151.926ZM47.7822 158.789V148.576H48.2197V150.354H48.2744C48.6572 149.26 49.5049 148.467 50.7354 148.467C52.5127 148.467 53.6475 150.094 53.6475 152.309C53.6475 154.523 52.499 156.15 50.7354 156.15C49.5186 156.15 48.6436 155.371 48.2744 154.25H48.2334V158.789H47.7822ZM48.2334 152.309C48.2334 154.264 49.1768 155.727 50.708 155.727C52.2529 155.727 53.1963 154.25 53.1963 152.309C53.1963 150.367 52.2666 148.891 50.708 148.891C49.1631 148.891 48.2334 150.354 48.2334 152.309ZM55.5068 156V148.576H55.9443V156H55.5068ZM55.7256 147.236C55.5205 147.236 55.3428 147.072 55.3428 146.854C55.3428 146.648 55.5205 146.471 55.7256 146.471C55.9443 146.471 56.1221 146.648 56.1221 146.854C56.1221 147.072 55.9443 147.236 55.7256 147.236ZM60.9619 156.15C59.1025 156.15 57.8037 154.51 57.8037 152.309C57.8037 150.121 59.1162 148.467 60.9482 148.467C62.3154 148.467 63.4365 149.396 63.6553 150.75H63.1904C62.999 149.656 62.0967 148.891 60.9619 148.891C59.4033 148.891 58.2412 150.326 58.2412 152.309C58.2412 154.236 59.3486 155.727 60.9619 155.727C62.0967 155.727 63.0264 154.988 63.2041 153.826H63.6689C63.4502 155.221 62.3564 156.15 60.9619 156.15ZM67.9482 148.576V148.986H66.3896V154.346C66.3896 155.221 67.0186 155.699 67.7158 155.699L68.167 155.686V156.109C68.0713 156.123 67.9482 156.123 67.7021 156.123C66.7725 156.123 65.9521 155.48 65.9521 154.387V148.986H64.8584V148.576H65.9521V146.799H66.3896V148.576H67.9482ZM74.7432 153.471V148.576H75.1807V156H74.7432V154.811H74.7021C74.3467 155.576 73.5127 156.096 72.4736 156.096C70.9971 156.096 69.958 155.07 69.958 153.525V148.576H70.4092V153.512C70.4092 154.783 71.2842 155.658 72.542 155.658C73.7725 155.658 74.7432 154.783 74.7432 153.471ZM77.4365 156V148.576H77.874V149.752H77.9287C78.2568 148.973 79.1045 148.48 80.1025 148.48H80.3213V148.918H80.0889C78.8037 148.918 77.8877 149.807 77.8877 151.064V156H77.4365ZM84.2861 156.15C82.3037 156.15 81.0186 154.51 81.0186 152.309C81.0186 150.107 82.3447 148.467 84.1357 148.467C85.8311 148.467 87.1982 149.957 87.1982 152.008V152.35H81.4561C81.4697 154.229 82.5088 155.727 84.2861 155.727C85.5713 155.727 86.2686 154.92 86.5146 154.441H86.9932C86.6924 155.248 85.749 156.15 84.2861 156.15ZM81.4697 151.926H86.7471C86.7471 150.23 85.5986 148.891 84.1357 148.891C82.7002 148.891 81.5586 150.189 81.4697 151.926ZM92.1885 156V148.576H92.626V156H92.1885ZM92.4072 147.236C92.2021 147.236 92.0244 147.072 92.0244 146.854C92.0244 146.648 92.2021 146.471 92.4072 146.471C92.626 146.471 92.8037 146.648 92.8037 146.854C92.8037 147.072 92.626 147.236 92.4072 147.236ZM99.0381 150.23C98.8604 149.396 98.1631 148.891 97.1514 148.877C96.0166 148.877 95.2236 149.52 95.2236 150.436C95.2236 151.16 95.7158 151.68 96.7002 151.926L97.8486 152.213C98.9834 152.486 99.5576 153.17 99.5576 154.1C99.5576 155.303 98.5596 156.15 97.0146 156.15C95.6064 156.15 94.6904 155.453 94.499 154.223H94.9639C95.1416 155.207 95.8662 155.74 97.0146 155.74C98.2725 155.74 99.1064 155.098 99.1064 154.113C99.1064 153.389 98.6553 152.855 97.7119 152.637L96.5635 152.35C95.3877 152.062 94.7861 151.393 94.7861 150.449C94.7861 149.273 95.7568 148.453 97.1514 148.467C98.4502 148.467 99.2979 149.191 99.4893 150.23H99.0381ZM107.214 156.15C105.423 156.15 104.097 154.523 104.097 152.309C104.097 150.094 105.423 148.467 107.214 148.467C109.005 148.467 110.345 150.107 110.345 152.309C110.345 154.523 109.005 156.15 107.214 156.15ZM107.214 155.727C108.786 155.727 109.894 154.236 109.894 152.309C109.894 150.381 108.772 148.891 107.214 148.891C105.655 148.891 104.534 150.381 104.534 152.309C104.534 154.236 105.655 155.727 107.214 155.727ZM116.935 153.471V148.576H117.372V156H116.935V154.811H116.894C116.538 155.576 115.704 156.096 114.665 156.096C113.188 156.096 112.149 155.07 112.149 153.525V148.576H112.601V153.512C112.601 154.783 113.476 155.658 114.733 155.658C115.964 155.658 116.935 154.783 116.935 153.471ZM122.103 148.576V148.986H120.544V154.346C120.544 155.221 121.173 155.699 121.87 155.699L122.321 155.686V156.109C122.226 156.123 122.103 156.123 121.856 156.123C120.927 156.123 120.106 155.48 120.106 154.387V148.986H119.013V148.576H120.106V146.799H120.544V148.576H122.103ZM124.112 158.789V148.576H124.55V150.354H124.604C124.987 149.26 125.835 148.467 127.065 148.467C128.843 148.467 129.978 150.094 129.978 152.309C129.978 154.523 128.829 156.15 127.065 156.15C125.849 156.15 124.974 155.371 124.604 154.25H124.563V158.789H124.112ZM124.563 152.309C124.563 154.264 125.507 155.727 127.038 155.727C128.583 155.727 129.526 154.25 129.526 152.309C129.526 150.367 128.597 148.891 127.038 148.891C125.493 148.891 124.563 150.354 124.563 152.309ZM136.581 153.471V148.576H137.019V156H136.581V154.811H136.54C136.185 155.576 135.351 156.096 134.312 156.096C132.835 156.096 131.796 155.07 131.796 153.525V148.576H132.247V153.512C132.247 154.783 133.122 155.658 134.38 155.658C135.61 155.658 136.581 154.783 136.581 153.471ZM141.749 148.576V148.986H140.19V154.346C140.19 155.221 140.819 155.699 141.517 155.699L141.968 155.686V156.109C141.872 156.123 141.749 156.123 141.503 156.123C140.573 156.123 139.753 155.48 139.753 154.387V148.986H138.659V148.576H139.753V146.799H140.19V148.576H141.749ZM148.489 156L146.288 148.576H146.753L148.749 155.371H148.79L150.8 148.576H151.251L153.261 155.357H153.302L155.298 148.576H155.763L153.548 156H153.015L151.046 149.342H151.005L149.036 156H148.489ZM157.444 156V148.576H157.882V156H157.444ZM157.663 147.236C157.458 147.236 157.28 147.072 157.28 146.854C157.28 146.648 157.458 146.471 157.663 146.471C157.882 146.471 158.06 146.648 158.06 146.854C158.06 147.072 157.882 147.236 157.663 147.236ZM162.64 148.576V148.986H161.081V154.346C161.081 155.221 161.71 155.699 162.407 155.699L162.858 155.686V156.109C162.763 156.123 162.64 156.123 162.394 156.123C161.464 156.123 160.644 155.48 160.644 154.387V148.986H159.55V148.576H160.644V146.799H161.081V148.576H162.64ZM165.265 151.092V156H164.813V146.102H165.265V149.752H165.306C165.661 148.973 166.481 148.48 167.534 148.48C169.024 148.48 170.063 149.506 170.063 151.051V156H169.612V151.064C169.612 149.779 168.751 148.904 167.479 148.904C166.194 148.904 165.265 149.793 165.265 151.092ZM72.4873 163.576V163.986H70.9287V169.346C70.9287 170.221 71.5576 170.699 72.2549 170.699L72.7061 170.686V171.109C72.6104 171.123 72.4873 171.123 72.2412 171.123C71.3115 171.123 70.4912 170.48 70.4912 169.387V163.986H69.3975V163.576H70.4912V161.799H70.9287V163.576H72.4873ZM75.1123 166.092V171H74.6611V161.102H75.1123V164.752H75.1533C75.5088 163.973 76.3291 163.48 77.3818 163.48C78.8721 163.48 79.9111 164.506 79.9111 166.051V171H79.46V166.064C79.46 164.779 78.5986 163.904 77.3271 163.904C76.042 163.904 75.1123 164.793 75.1123 166.092ZM84.9971 171.15C83.0146 171.15 81.7295 169.51 81.7295 167.309C81.7295 165.107 83.0557 163.467 84.8467 163.467C86.542 163.467 87.9092 164.957 87.9092 167.008V167.35H82.167C82.1807 169.229 83.2197 170.727 84.9971 170.727C86.2822 170.727 86.9795 169.92 87.2256 169.441H87.7041C87.4033 170.248 86.46 171.15 84.9971 171.15ZM82.1807 166.926H87.458C87.458 165.23 86.3096 163.891 84.8467 163.891C83.4111 163.891 82.2695 165.189 82.1807 166.926ZM95.5381 163.576V163.986H93.9248L93.9111 171H93.4736V163.986H92.4346V163.576H93.4736V162.387C93.4736 161.32 94.0615 160.65 95.0869 160.65C95.2783 160.65 95.4971 160.678 95.6475 160.705V161.129C95.4834 161.088 95.292 161.074 95.1279 161.074C94.335 161.074 93.9248 161.58 93.9248 162.428V163.576H95.5381ZM97.1377 171V163.576H97.5752V164.752H97.6299C97.958 163.973 98.8057 163.48 99.8037 163.48H100.022V163.918H99.79C98.5049 163.918 97.5889 164.807 97.5889 166.064V171H97.1377ZM100.979 168.977C100.979 167.855 101.663 166.926 103.618 166.762C104.158 166.714 105.396 166.625 105.778 166.598V165.709C105.778 164.602 104.985 163.877 103.741 163.877C102.688 163.877 101.827 164.369 101.636 165.23H101.171C101.349 164.123 102.429 163.467 103.741 163.467C105.149 163.467 106.216 164.301 106.216 165.736V171H105.778V169.564H105.737C105.313 170.494 104.438 171.164 103.29 171.164C102.046 171.164 100.979 170.371 100.979 168.977ZM101.431 168.977C101.431 170.057 102.251 170.74 103.317 170.74C104.712 170.74 105.778 169.564 105.778 167.91V166.994C105.402 167.028 104.165 167.138 103.741 167.158C101.964 167.295 101.431 168.061 101.431 168.977ZM108.499 171V163.576H108.937V164.684H108.991C109.265 163.959 110.003 163.48 110.987 163.48C112.081 163.48 112.737 164.055 113.011 164.971H113.052C113.312 164.055 114.091 163.48 115.212 163.48C116.675 163.48 117.413 164.492 117.413 166.01V171H116.962V166.023C116.962 164.738 116.388 163.904 115.144 163.904C113.872 163.904 113.175 164.793 113.175 166.037V171H112.737V165.996C112.737 164.752 112.163 163.904 110.919 163.904C109.675 163.904 108.95 164.807 108.95 166.064V171H108.499ZM122.499 171.15C120.517 171.15 119.231 169.51 119.231 167.309C119.231 165.107 120.558 163.467 122.349 163.467C124.044 163.467 125.411 164.957 125.411 167.008V167.35H119.669C119.683 169.229 120.722 170.727 122.499 170.727C123.784 170.727 124.481 169.92 124.728 169.441H125.206C124.905 170.248 123.962 171.15 122.499 171.15ZM119.683 166.926H124.96C124.96 165.23 123.812 163.891 122.349 163.891C120.913 163.891 119.771 165.189 119.683 166.926Z" fill="#1A1A1A"/>
</svg>
