<svg width="196" height="200" viewBox="0 0 196 200" fill="none" xmlns="http://www.w3.org/2000/svg">
<rect x="0.5" y="0.5" width="195" height="199" rx="6.5" stroke="#A8A8A8"/>
<path d="M99.982 33H96.346L95.95 27.564H94.114L93.754 33H90.19L92.53 9.096H97.642L99.982 33ZM94.978 15.18L94.33 24.432H95.734L95.122 15.18H94.978ZM104.349 33H100.677V9.096H104.349V33Z" fill="#1A1A1A"/>
<path d="M90.298 58H87.058V48.748C87.058 47.56 87.13 42.556 87.202 41.332H87.058L85.258 58H82.162L80.362 41.332H80.218C80.326 42.52 80.362 43.744 80.362 48.748V58H77.122V34.096H82.63L83.71 49.18H83.854L84.97 34.096H90.298V58ZM100.179 38.812V53.5C100.179 56.632 98.5946 58.18 95.7866 58.18C92.9066 58.18 91.3226 56.488 91.3226 53.464V38.74C91.3226 35.716 92.9426 33.952 95.7506 33.952C98.5586 33.952 100.179 35.752 100.179 38.812ZM96.5786 53.752V38.416C96.5786 37.696 96.2906 37.336 95.7506 37.336C95.2106 37.336 94.9586 37.696 94.9586 38.416V53.752C94.9586 54.472 95.2106 54.832 95.7506 54.832C96.2906 54.832 96.5786 54.472 96.5786 53.752ZM105.812 58H101.204V34.096H105.812C108.656 34.096 110.06 35.536 110.06 38.416V53.464C110.06 56.632 108.584 58 105.812 58ZM104.804 54.724H105.56C106.1 54.724 106.388 54.04 106.388 52.672V39.244C106.388 37.984 106.028 37.372 105.308 37.372H104.804V54.724ZM118.172 58H111.188V34.096H117.956V37.372H114.788V43.816H117.56V47.128H114.788V54.724H118.172V58ZM58.971 75.86H57.611C56.811 73.36 56.391 70.16 56.391 67C56.391 63.96 56.771 60.92 57.611 58.44H58.971C58.411 61.16 58.111 64.08 58.111 67.04C58.111 69.96 58.391 72.96 58.971 75.86ZM61.4304 73H59.4904V63.16H61.3104L61.3504 64.02H61.4304C61.6504 63.46 62.0104 63.08 62.6504 63.08C62.8104 63.08 62.9504 63.1 63.0904 63.16V64.9C62.9304 64.84 62.7904 64.82 62.5704 64.82C61.7304 64.82 61.4304 65.24 61.4304 66.04V73ZM68.2724 69.68V70.76C68.2724 72.32 67.4924 73.1 65.8924 73.1C64.3124 73.1 63.5724 72.34 63.5724 70.76V65.42C63.5724 63.84 64.3124 63.08 65.9124 63.08C67.4924 63.08 68.2724 63.84 68.2724 65.42V68.64H65.4524V70.8C65.4524 71.2 65.6124 71.4 65.8924 71.4C66.1924 71.4 66.3524 71.2 66.3524 70.8V69.68H68.2724ZM66.3524 67.26V65.38C66.3524 64.96 66.2124 64.78 65.9124 64.78C65.6124 64.78 65.4524 64.96 65.4524 65.38V67.26H66.3524ZM71.7235 70.76V69.44H73.5635V70.76C73.5635 72.32 72.8635 73.1 71.2635 73.1C69.6835 73.1 68.9435 72.34 68.9435 70.76V65.42C68.9435 63.84 69.6835 63.08 71.2835 63.08C72.8635 63.08 73.5635 63.84 73.5635 65.42V66.68H71.7235V65.42C71.7235 65.02 71.5835 64.82 71.2835 64.82C70.9835 64.82 70.8235 65.02 70.8235 65.42V70.76C70.8235 71.16 70.9835 71.36 71.2635 71.36C71.5635 71.36 71.7235 71.16 71.7235 70.76ZM78.9165 65.42V70.76C78.9165 72.36 78.1565 73.1 76.5765 73.1C74.9765 73.1 74.2365 72.36 74.2365 70.76V65.42C74.2365 63.82 74.9765 63.08 76.5765 63.08C78.1565 63.08 78.9165 63.82 78.9165 65.42ZM77.0165 70.76V65.42C77.0165 65.02 76.8565 64.82 76.5765 64.82C76.2965 64.82 76.1165 65.02 76.1165 65.42V70.76C76.1165 71.16 76.2965 71.36 76.5765 71.36C76.8565 71.36 77.0165 71.16 77.0165 70.76ZM87.108 73H85.148V65.26C85.148 64.94 85.008 64.76 84.748 64.76C84.508 64.76 84.348 64.9 84.288 65.2V73H82.408V65.26C82.408 64.94 82.268 64.76 82.008 64.76C81.768 64.76 81.608 64.9 81.528 65.2V73H79.588V63.16H81.408L81.448 64.02H81.528C81.828 63.34 82.248 63.08 82.768 63.08C83.388 63.08 83.928 63.46 84.148 64.12C84.508 63.36 85.008 63.08 85.548 63.08C86.428 63.08 87.108 63.78 87.108 64.86V73ZM95.3307 73H93.3707V65.26C93.3707 64.94 93.2307 64.76 92.9707 64.76C92.7307 64.76 92.5707 64.9 92.5107 65.2V73H90.6307V65.26C90.6307 64.94 90.4907 64.76 90.2307 64.76C89.9907 64.76 89.8307 64.9 89.7507 65.2V73H87.8107V63.16H89.6307L89.6707 64.02H89.7507C90.0507 63.34 90.4707 63.08 90.9907 63.08C91.6107 63.08 92.1507 63.46 92.3707 64.12C92.7307 63.36 93.2307 63.08 93.7707 63.08C94.6507 63.08 95.3307 63.78 95.3307 64.86V73ZM100.733 69.68V70.76C100.733 72.32 99.9534 73.1 98.3534 73.1C96.7734 73.1 96.0334 72.34 96.0334 70.76V65.42C96.0334 63.84 96.7734 63.08 98.3734 63.08C99.9534 63.08 100.733 63.84 100.733 65.42V68.64H97.9134V70.8C97.9134 71.2 98.0734 71.4 98.3534 71.4C98.6534 71.4 98.8134 71.2 98.8134 70.8V69.68H100.733ZM98.8134 67.26V65.38C98.8134 64.96 98.6734 64.78 98.3734 64.78C98.0734 64.78 97.9134 64.96 97.9134 65.38V67.26H98.8134ZM106.184 73H104.224V65.26C104.224 64.94 104.084 64.76 103.824 64.76C103.584 64.76 103.424 64.9 103.344 65.2V73H101.404V63.16H103.224L103.264 64.02H103.344C103.664 63.34 104.124 63.08 104.684 63.08C105.564 63.08 106.184 63.74 106.184 64.86V73ZM111.613 73H109.853L109.833 72.16H109.753C109.473 72.8 109.053 73.1 108.433 73.1C107.473 73.1 106.873 72.4 106.873 71.32V64.84C106.873 63.76 107.493 63.08 108.413 63.08C108.933 63.08 109.333 63.28 109.613 63.8H109.693V59.56H111.613V73ZM108.833 65.36V70.82C108.833 71.22 108.993 71.42 109.293 71.42C109.553 71.42 109.693 71.26 109.733 70.96V65.2C109.693 64.9 109.553 64.76 109.293 64.76C108.993 64.76 108.833 64.96 108.833 65.36ZM115.023 71.08V68.08C114.883 68.16 114.723 68.2 114.523 68.26C114.223 68.34 114.103 68.56 114.103 68.88V70.96C114.103 71.26 114.263 71.42 114.563 71.42C114.843 71.42 114.963 71.3 115.023 71.08ZM116.943 73H115.143L115.103 72.28H115.023C114.843 72.6 114.563 73.1 113.643 73.1C112.523 73.1 112.203 72.4 112.203 71.48V69.24C112.203 67.96 112.703 67.48 114.003 67.14C114.703 66.96 115.003 66.88 115.003 66.44V65.14C115.003 64.88 114.863 64.74 114.583 64.74C114.283 64.74 114.123 64.9 114.123 65.2V66.36H112.323V64.96C112.323 63.68 113.223 63.08 114.723 63.08C116.183 63.08 116.943 63.64 116.943 64.84V73ZM120.395 70.76V67.52H122.055V70.76C122.055 72.34 121.535 73.1 119.955 73.1C118.355 73.1 117.615 72.34 117.615 70.76V60.5H119.535V63.16H122.055V64.9H119.535V70.76C119.535 71.16 119.675 71.36 119.975 71.36C120.255 71.36 120.395 71.16 120.395 70.76ZM124.673 73H122.733V63.16H124.673V73ZM124.673 62.14H122.733V60.36H124.673V62.14ZM130.049 65.42V70.76C130.049 72.36 129.289 73.1 127.709 73.1C126.109 73.1 125.369 72.36 125.369 70.76V65.42C125.369 63.82 126.109 63.08 127.709 63.08C129.289 63.08 130.049 63.82 130.049 65.42ZM128.149 70.76V65.42C128.149 65.02 127.989 64.82 127.709 64.82C127.429 64.82 127.249 65.02 127.249 65.42V70.76C127.249 71.16 127.429 71.36 127.709 71.36C127.989 71.36 128.149 71.16 128.149 70.76ZM135.501 73H133.541V65.26C133.541 64.94 133.401 64.76 133.141 64.76C132.901 64.76 132.741 64.9 132.661 65.2V73H130.721V63.16H132.541L132.581 64.02H132.661C132.981 63.34 133.441 63.08 134.001 63.08C134.881 63.08 135.501 63.74 135.501 64.86V73ZM137.39 75.86H136.03C136.61 72.96 136.89 69.96 136.89 67.02C136.89 64.08 136.59 61.16 136.03 58.44H137.39C138.23 60.9 138.61 63.96 138.61 66.98C138.61 70.16 138.19 73.36 137.39 75.86Z" fill="black"/>
<path d="M23.5156 98.1016H23.9668V104.65C23.9668 106.66 22.4355 108.164 20.3574 108.164C18.2793 108.164 16.748 106.66 16.748 104.65V98.1016H17.1992V104.637C17.1992 106.414 18.5254 107.713 20.3574 107.713C22.1895 107.713 23.5156 106.414 23.5156 104.637V98.1016ZM26.4277 110.789V100.576H26.8652V102.354H26.9199C27.3027 101.26 28.1504 100.467 29.3809 100.467C31.1582 100.467 32.293 102.094 32.293 104.309C32.293 106.523 31.1445 108.15 29.3809 108.15C28.1641 108.15 27.2891 107.371 26.9199 106.25H26.8789V110.789H26.4277ZM26.8789 104.309C26.8789 106.264 27.8223 107.727 29.3535 107.727C30.8984 107.727 31.8418 106.25 31.8418 104.309C31.8418 102.367 30.9121 100.891 29.3535 100.891C27.8086 100.891 26.8789 102.354 26.8789 104.309ZM39.7168 100.576V100.986H38.1582V106.346C38.1582 107.221 38.7871 107.699 39.4844 107.699L39.9355 107.686V108.109C39.8398 108.123 39.7168 108.123 39.4707 108.123C38.541 108.123 37.7207 107.48 37.7207 106.387V100.986H36.627V100.576H37.7207V98.7988H38.1582V100.576H39.7168ZM44.3379 108.15C42.5469 108.15 41.2207 106.523 41.2207 104.309C41.2207 102.094 42.5469 100.467 44.3379 100.467C46.1289 100.467 47.4688 102.107 47.4688 104.309C47.4688 106.523 46.1289 108.15 44.3379 108.15ZM44.3379 107.727C45.9102 107.727 47.0176 106.236 47.0176 104.309C47.0176 102.381 45.8965 100.891 44.3379 100.891C42.7793 100.891 41.6582 102.381 41.6582 104.309C41.6582 106.236 42.7793 107.727 44.3379 107.727ZM54.8789 100.576V100.986H53.3203V106.346C53.3203 107.221 53.9492 107.699 54.6465 107.699L55.0977 107.686V108.109C55.002 108.123 54.8789 108.123 54.6328 108.123C53.7031 108.123 52.8828 107.48 52.8828 106.387V100.986H51.7891V100.576H52.8828V98.7988H53.3203V100.576H54.8789ZM58.4883 108L56.2871 100.576H56.752L58.748 107.371H58.7891L60.7988 100.576H61.25L63.2598 107.357H63.3008L65.2969 100.576H65.7617L63.5469 108H63.0137L61.0449 101.342H61.0039L59.0352 108H58.4883ZM69.8359 108.15C68.0449 108.15 66.7188 106.523 66.7188 104.309C66.7188 102.094 68.0449 100.467 69.8359 100.467C71.627 100.467 72.9668 102.107 72.9668 104.309C72.9668 106.523 71.627 108.15 69.8359 108.15ZM69.8359 107.727C71.4082 107.727 72.5156 106.236 72.5156 104.309C72.5156 102.381 71.3945 100.891 69.8359 100.891C68.2773 100.891 67.1562 102.381 67.1562 104.309C67.1562 106.236 68.2773 107.727 69.8359 107.727ZM77.9023 110.789V100.576H78.3398V102.354H78.3945C78.7773 101.26 79.625 100.467 80.8555 100.467C82.6328 100.467 83.7676 102.094 83.7676 104.309C83.7676 106.523 82.6191 108.15 80.8555 108.15C79.6387 108.15 78.7637 107.371 78.3945 106.25H78.3535V110.789H77.9023ZM78.3535 104.309C78.3535 106.264 79.2969 107.727 80.8281 107.727C82.373 107.727 83.3164 106.25 83.3164 104.309C83.3164 102.367 82.3867 100.891 80.8281 100.891C79.2832 100.891 78.3535 102.354 78.3535 104.309ZM88.4297 108.15C86.4473 108.15 85.1621 106.51 85.1621 104.309C85.1621 102.107 86.4883 100.467 88.2793 100.467C89.9746 100.467 91.3418 101.957 91.3418 104.008V104.35H85.5996C85.6133 106.229 86.6523 107.727 88.4297 107.727C89.7148 107.727 90.4121 106.92 90.6582 106.441H91.1367C90.8359 107.248 89.8926 108.15 88.4297 108.15ZM85.6133 103.926H90.8906C90.8906 102.23 89.7422 100.891 88.2793 100.891C86.8438 100.891 85.7021 102.189 85.6133 103.926ZM95.8535 108.15C94.0625 108.15 92.7363 106.523 92.7363 104.309C92.7363 102.094 94.0625 100.467 95.8535 100.467C97.6445 100.467 98.9844 102.107 98.9844 104.309C98.9844 106.523 97.6445 108.15 95.8535 108.15ZM95.8535 107.727C97.4258 107.727 98.5332 106.236 98.5332 104.309C98.5332 102.381 97.4121 100.891 95.8535 100.891C94.2949 100.891 93.1738 102.381 93.1738 104.309C93.1738 106.236 94.2949 107.727 95.8535 107.727ZM100.789 110.789V100.576H101.227V102.354H101.281C101.664 101.26 102.512 100.467 103.742 100.467C105.52 100.467 106.654 102.094 106.654 104.309C106.654 106.523 105.506 108.15 103.742 108.15C102.525 108.15 101.65 107.371 101.281 106.25H101.24V110.789H100.789ZM101.24 104.309C101.24 106.264 102.184 107.727 103.715 107.727C105.26 107.727 106.203 106.25 106.203 104.309C106.203 102.367 105.273 100.891 103.715 100.891C102.17 100.891 101.24 102.354 101.24 104.309ZM108.924 98.1016V108H108.473V98.1016H108.924ZM114.01 108.15C112.027 108.15 110.742 106.51 110.742 104.309C110.742 102.107 112.068 100.467 113.859 100.467C115.555 100.467 116.922 101.957 116.922 104.008V104.35H111.18C111.193 106.229 112.232 107.727 114.01 107.727C115.295 107.727 115.992 106.92 116.238 106.441H116.717C116.416 107.248 115.473 108.15 114.01 108.15ZM111.193 103.926H116.471C116.471 102.23 115.322 100.891 113.859 100.891C112.424 100.891 111.282 102.189 111.193 103.926ZM124.605 108.15C122.746 108.15 121.447 106.51 121.447 104.309C121.447 102.121 122.76 100.467 124.592 100.467C125.959 100.467 127.08 101.396 127.299 102.75H126.834C126.643 101.656 125.74 100.891 124.605 100.891C123.047 100.891 121.885 102.326 121.885 104.309C121.885 106.236 122.992 107.727 124.605 107.727C125.74 107.727 126.67 106.988 126.848 105.826H127.312C127.094 107.221 126 108.15 124.605 108.15ZM128.721 105.977C128.721 104.855 129.404 103.926 131.359 103.762C131.899 103.714 133.137 103.625 133.52 103.598V102.709C133.52 101.602 132.727 100.877 131.482 100.877C130.43 100.877 129.568 101.369 129.377 102.23H128.912C129.09 101.123 130.17 100.467 131.482 100.467C132.891 100.467 133.957 101.301 133.957 102.736V108H133.52V106.564H133.479C133.055 107.494 132.18 108.164 131.031 108.164C129.787 108.164 128.721 107.371 128.721 105.977ZM129.172 105.977C129.172 107.057 129.992 107.74 131.059 107.74C132.453 107.74 133.52 106.564 133.52 104.91V103.994C133.144 104.028 131.906 104.138 131.482 104.158C129.705 104.295 129.172 105.061 129.172 105.977ZM136.691 103.092V108H136.24V100.576H136.678V101.752H136.732C137.074 100.986 137.908 100.48 138.947 100.48C140.438 100.48 141.477 101.506 141.477 103.051V108H141.025V103.064C141.025 101.779 140.164 100.904 138.893 100.904C137.607 100.904 136.691 101.793 136.691 103.092ZM146.453 105.977C146.453 104.855 147.137 103.926 149.092 103.762C149.632 103.714 150.869 103.625 151.252 103.598V102.709C151.252 101.602 150.459 100.877 149.215 100.877C148.162 100.877 147.301 101.369 147.109 102.23H146.645C146.822 101.123 147.902 100.467 149.215 100.467C150.623 100.467 151.689 101.301 151.689 102.736V108H151.252V106.564H151.211C150.787 107.494 149.912 108.164 148.764 108.164C147.52 108.164 146.453 107.371 146.453 105.977ZM146.904 105.977C146.904 107.057 147.725 107.74 148.791 107.74C150.186 107.74 151.252 106.564 151.252 104.91V103.994C150.876 104.028 149.639 104.138 149.215 104.158C147.438 104.295 146.904 105.061 146.904 105.977ZM153.973 110.789V100.576H154.41V102.354H154.465C154.848 101.26 155.695 100.467 156.926 100.467C158.703 100.467 159.838 102.094 159.838 104.309C159.838 106.523 158.689 108.15 156.926 108.15C155.709 108.15 154.834 107.371 154.465 106.25H154.424V110.789H153.973ZM154.424 104.309C154.424 106.264 155.367 107.727 156.898 107.727C158.443 107.727 159.387 106.25 159.387 104.309C159.387 102.367 158.457 100.891 156.898 100.891C155.354 100.891 154.424 102.354 154.424 104.309ZM161.656 110.789V100.576H162.094V102.354H162.148C162.531 101.26 163.379 100.467 164.609 100.467C166.387 100.467 167.521 102.094 167.521 104.309C167.521 106.523 166.373 108.15 164.609 108.15C163.393 108.15 162.518 107.371 162.148 106.25H162.107V110.789H161.656ZM162.107 104.309C162.107 106.264 163.051 107.727 164.582 107.727C166.127 107.727 167.07 106.25 167.07 104.309C167.07 102.367 166.141 100.891 164.582 100.891C163.037 100.891 162.107 102.354 162.107 104.309ZM169.791 98.1016V108H169.34V98.1016H169.791ZM172.279 110.789C172.197 110.789 172.115 110.789 172.061 110.775V110.352C172.102 110.352 172.184 110.365 172.266 110.365C172.758 110.365 173.373 110.229 173.77 109.148L174.139 108.123L171.432 100.576H171.896L174.344 107.439H174.385L176.818 100.576H177.297L174.166 109.312C173.824 110.283 173.223 110.789 172.279 110.789ZM179.252 107.33L178.377 110.516H178.008L178.787 107.33H179.252ZM60.3408 123L57.6201 113.102H58.085L60.6006 122.303H60.6416L63.0889 113.102H63.6631L66.1104 122.303H66.165L68.667 113.102H69.1455L66.4248 123H65.8643L63.4033 113.826H63.3623L60.9014 123H60.3408ZM70.54 123V115.576H70.9775V123H70.54ZM70.7588 114.236C70.5537 114.236 70.376 114.072 70.376 113.854C70.376 113.648 70.5537 113.471 70.7588 113.471C70.9775 113.471 71.1553 113.648 71.1553 113.854C71.1553 114.072 70.9775 114.236 70.7588 114.236ZM73.7119 118.092V123H73.2607V115.576H73.6982V116.752H73.7529C74.0947 115.986 74.9287 115.48 75.9678 115.48C77.458 115.48 78.4971 116.506 78.4971 118.051V123H78.0459V118.064C78.0459 116.779 77.1846 115.904 75.9131 115.904C74.6279 115.904 73.7119 116.793 73.7119 118.092ZM80.7393 123V113.102H81.1904V119.35H81.2451L85.0732 115.576H85.6748L82.4482 118.775L85.8115 123H85.2373L82.1201 119.062L81.1904 119.965V123H80.7393ZM97.1045 118.543V118.967H93.3174V118.543H97.1045ZM101.972 113.102L105.294 122.426H105.349L108.671 113.102H109.149L105.595 123H105.034L101.493 113.102H101.972ZM119.226 115.576C119.13 114.277 118.146 113.375 116.669 113.375C115.179 113.375 114.112 114.277 114.112 115.521C114.112 116.533 114.851 117.176 116.163 117.572L117.271 117.914C118.884 118.393 119.813 119.145 119.813 120.457C119.813 122.016 118.528 123.164 116.587 123.164C114.728 123.164 113.524 122.125 113.429 120.635H113.88C113.976 121.893 115.028 122.727 116.587 122.727C118.241 122.727 119.362 121.811 119.362 120.457C119.362 119.404 118.665 118.803 117.147 118.338L116.013 117.996C114.454 117.518 113.661 116.711 113.661 115.535C113.661 114.045 114.946 112.951 116.669 112.951C118.405 112.951 119.581 114.059 119.677 115.576H119.226ZM121.823 123V115.576H122.261V123H121.823ZM122.042 114.236C121.837 114.236 121.659 114.072 121.659 113.854C121.659 113.648 121.837 113.471 122.042 113.471C122.261 113.471 122.438 113.648 122.438 113.854C122.438 114.072 122.261 114.236 122.042 114.236ZM127.142 125.939C125.802 125.939 124.653 125.406 124.394 124.244H124.872C125.091 125.105 126.034 125.516 127.142 125.516C128.646 125.516 129.534 124.75 129.534 123.15V121.223H129.479C129.124 122.33 128.181 122.986 127.032 122.986C125.282 122.986 124.12 121.496 124.12 119.295C124.12 117.066 125.255 115.467 127.032 115.467C128.263 115.467 129.11 116.246 129.493 117.354H129.534V115.576H129.972V123.164C129.972 125.01 128.864 125.939 127.142 125.939ZM127.046 122.562C128.563 122.562 129.534 121.305 129.534 119.295C129.534 117.354 128.591 115.891 127.046 115.891C125.501 115.891 124.571 117.367 124.571 119.295C124.571 121.236 125.515 122.562 127.046 122.562ZM132.706 118.092V123H132.255V115.576H132.692V116.752H132.747C133.089 115.986 133.923 115.48 134.962 115.48C136.452 115.48 137.491 116.506 137.491 118.051V123H137.04V118.064C137.04 116.779 136.179 115.904 134.907 115.904C133.622 115.904 132.706 116.793 132.706 118.092ZM39.1084 132.832V133.256H35.3213V132.832H39.1084ZM51.5225 131.191C51.2627 129.879 50.0732 128.402 48.1592 128.402C46.1768 128.402 44.4678 130.057 44.4678 133.051C44.4678 136.072 46.1768 137.699 48.1592 137.699C50.0732 137.699 51.2627 136.236 51.5225 134.91H51.9873C51.7275 136.4 50.4424 138.137 48.1592 138.137C45.7119 138.137 44.0166 136.1 44.0166 133.051C44.0166 130.002 45.7119 127.965 48.1592 127.965C50.4424 127.965 51.7275 129.688 51.9873 131.191H51.5225ZM54.3389 128.102V138H53.8877V128.102H54.3389ZM59.2744 138.15C57.4834 138.15 56.1572 136.523 56.1572 134.309C56.1572 132.094 57.4834 130.467 59.2744 130.467C61.0654 130.467 62.4053 132.107 62.4053 134.309C62.4053 136.523 61.0654 138.15 59.2744 138.15ZM59.2744 137.727C60.8467 137.727 61.9541 136.236 61.9541 134.309C61.9541 132.381 60.833 130.891 59.2744 130.891C57.7158 130.891 56.5947 132.381 56.5947 134.309C56.5947 136.236 57.7158 137.727 59.2744 137.727ZM68.3389 132.23C68.1611 131.396 67.4639 130.891 66.4521 130.877C65.3174 130.877 64.5244 131.52 64.5244 132.436C64.5244 133.16 65.0166 133.68 66.001 133.926L67.1494 134.213C68.2842 134.486 68.8584 135.17 68.8584 136.1C68.8584 137.303 67.8604 138.15 66.3154 138.15C64.9072 138.15 63.9912 137.453 63.7998 136.223H64.2646C64.4424 137.207 65.167 137.74 66.3154 137.74C67.5732 137.74 68.4072 137.098 68.4072 136.113C68.4072 135.389 67.9561 134.855 67.0127 134.637L65.8643 134.35C64.6885 134.062 64.0869 133.393 64.0869 132.449C64.0869 131.273 65.0576 130.453 66.4521 130.467C67.751 130.467 68.5986 131.191 68.79 132.23H68.3389ZM73.5342 138.15C71.5518 138.15 70.2666 136.51 70.2666 134.309C70.2666 132.107 71.5928 130.467 73.3838 130.467C75.0791 130.467 76.4463 131.957 76.4463 134.008V134.35H70.7041C70.7178 136.229 71.7568 137.727 73.5342 137.727C74.8193 137.727 75.5166 136.92 75.7627 136.441H76.2412C75.9404 137.248 74.9971 138.15 73.5342 138.15ZM70.7178 133.926H75.9951C75.9951 132.23 74.8467 130.891 73.3838 130.891C71.9482 130.891 70.8066 132.189 70.7178 133.926ZM88.3818 128.102H88.833V134.65C88.833 136.66 87.3018 138.164 85.2236 138.164C83.1455 138.164 81.6143 136.66 81.6143 134.65V128.102H82.0654V134.637C82.0654 136.414 83.3916 137.713 85.2236 137.713C87.0557 137.713 88.3818 136.414 88.3818 134.637V128.102ZM91.2939 140.789V130.576H91.7314V132.354H91.7861C92.1689 131.26 93.0166 130.467 94.2471 130.467C96.0244 130.467 97.1592 132.094 97.1592 134.309C97.1592 136.523 96.0107 138.15 94.2471 138.15C93.0303 138.15 92.1553 137.371 91.7861 136.25H91.7451V140.789H91.2939ZM91.7451 134.309C91.7451 136.264 92.6885 137.727 94.2197 137.727C95.7646 137.727 96.708 136.25 96.708 134.309C96.708 132.367 95.7783 130.891 94.2197 130.891C92.6748 130.891 91.7451 132.354 91.7451 134.309ZM105.745 133.543V133.967H101.958V133.543H105.745ZM116.505 130.576C116.409 129.277 115.425 128.375 113.948 128.375C112.458 128.375 111.392 129.277 111.392 130.521C111.392 131.533 112.13 132.176 113.442 132.572L114.55 132.914C116.163 133.393 117.093 134.145 117.093 135.457C117.093 137.016 115.808 138.164 113.866 138.164C112.007 138.164 110.804 137.125 110.708 135.635H111.159C111.255 136.893 112.308 137.727 113.866 137.727C115.521 137.727 116.642 136.811 116.642 135.457C116.642 134.404 115.944 133.803 114.427 133.338L113.292 132.996C111.733 132.518 110.94 131.711 110.94 130.535C110.94 129.045 112.226 127.951 113.948 127.951C115.685 127.951 116.86 129.059 116.956 130.576H116.505ZM123.847 135.471V130.576H124.284V138H123.847V136.811H123.806C123.45 137.576 122.616 138.096 121.577 138.096C120.101 138.096 119.062 137.07 119.062 135.525V130.576H119.513V135.512C119.513 136.783 120.388 137.658 121.646 137.658C122.876 137.658 123.847 136.783 123.847 135.471ZM126.54 138V130.576H126.978V131.752H127.032C127.36 130.973 128.208 130.48 129.206 130.48H129.425V130.918H129.192C127.907 130.918 126.991 131.807 126.991 133.064V138H126.54ZM130.778 140.789V130.576H131.216V132.354H131.271C131.653 131.26 132.501 130.467 133.731 130.467C135.509 130.467 136.644 132.094 136.644 134.309C136.644 136.523 135.495 138.15 133.731 138.15C132.515 138.15 131.64 137.371 131.271 136.25H131.229V140.789H130.778ZM131.229 134.309C131.229 136.264 132.173 137.727 133.704 137.727C135.249 137.727 136.192 136.25 136.192 134.309C136.192 132.367 135.263 130.891 133.704 130.891C132.159 130.891 131.229 132.354 131.229 134.309ZM138.462 138V130.576H138.899V131.752H138.954C139.282 130.973 140.13 130.48 141.128 130.48H141.347V130.918H141.114C139.829 130.918 138.913 131.807 138.913 133.064V138H138.462ZM142.741 138V130.576H143.179V138H142.741ZM142.96 129.236C142.755 129.236 142.577 129.072 142.577 128.854C142.577 128.648 142.755 128.471 142.96 128.471C143.179 128.471 143.356 128.648 143.356 128.854C143.356 129.072 143.179 129.236 142.96 129.236ZM149.591 132.23C149.413 131.396 148.716 130.891 147.704 130.877C146.569 130.877 145.776 131.52 145.776 132.436C145.776 133.16 146.269 133.68 147.253 133.926L148.401 134.213C149.536 134.486 150.11 135.17 150.11 136.1C150.11 137.303 149.112 138.15 147.567 138.15C146.159 138.15 145.243 137.453 145.052 136.223H145.517C145.694 137.207 146.419 137.74 147.567 137.74C148.825 137.74 149.659 137.098 149.659 136.113C149.659 135.389 149.208 134.855 148.265 134.637L147.116 134.35C145.94 134.062 145.339 133.393 145.339 132.449C145.339 131.273 146.31 130.453 147.704 130.467C149.003 130.467 149.851 131.191 150.042 132.23H149.591ZM154.786 138.15C152.804 138.15 151.519 136.51 151.519 134.309C151.519 132.107 152.845 130.467 154.636 130.467C156.331 130.467 157.698 131.957 157.698 134.008V134.35H151.956C151.97 136.229 153.009 137.727 154.786 137.727C156.071 137.727 156.769 136.92 157.015 136.441H157.493C157.192 137.248 156.249 138.15 154.786 138.15ZM151.97 133.926H157.247C157.247 132.23 156.099 130.891 154.636 130.891C153.2 130.891 152.059 132.189 151.97 133.926ZM160.296 137.33L159.421 140.516H159.052L159.831 137.33H160.296ZM27.5693 153.15C25.7783 153.15 24.4521 151.523 24.4521 149.309C24.4521 147.094 25.7783 145.467 27.5693 145.467C29.3604 145.467 30.7002 147.107 30.7002 149.309C30.7002 151.523 29.3604 153.15 27.5693 153.15ZM27.5693 152.727C29.1416 152.727 30.249 151.236 30.249 149.309C30.249 147.381 29.1279 145.891 27.5693 145.891C26.0107 145.891 24.8896 147.381 24.8896 149.309C24.8896 151.236 26.0107 152.727 27.5693 152.727ZM32.9561 148.092V153H32.5049V145.576H32.9424V146.752H32.9971C33.3389 145.986 34.1729 145.48 35.2119 145.48C36.7021 145.48 37.7412 146.506 37.7412 148.051V153H37.29V148.064C37.29 146.779 36.4287 145.904 35.1572 145.904C33.8721 145.904 32.9561 146.793 32.9561 148.092ZM40.4346 143.102V153H39.9834V143.102H40.4346ZM42.9229 155.789C42.8408 155.789 42.7588 155.789 42.7041 155.775V155.352C42.7451 155.352 42.8271 155.365 42.9092 155.365C43.4014 155.365 44.0166 155.229 44.4131 154.148L44.7822 153.123L42.0752 145.576H42.54L44.9873 152.439H45.0283L47.4619 145.576H47.9404L44.8096 154.312C44.4678 155.283 43.8662 155.789 42.9229 155.789ZM54.3115 153L52.1104 145.576H52.5752L54.5713 152.371H54.6123L56.6221 145.576H57.0732L59.083 152.357H59.124L61.1201 145.576H61.585L59.3701 153H58.8369L56.8682 146.342H56.8271L54.8584 153H54.3115ZM63.6768 148.092V153H63.2256V143.102H63.6768V146.752H63.7178C64.0732 145.973 64.8936 145.48 65.9463 145.48C67.4365 145.48 68.4756 146.506 68.4756 148.051V153H68.0244V148.064C68.0244 146.779 67.1631 145.904 65.8916 145.904C64.6064 145.904 63.6768 146.793 63.6768 148.092ZM73.5615 153.15C71.5791 153.15 70.2939 151.51 70.2939 149.309C70.2939 147.107 71.6201 145.467 73.4111 145.467C75.1064 145.467 76.4736 146.957 76.4736 149.008V149.35H70.7314C70.7451 151.229 71.7842 152.727 73.5615 152.727C74.8467 152.727 75.5439 151.92 75.79 151.441H76.2686C75.9678 152.248 75.0244 153.15 73.5615 153.15ZM70.7451 148.926H76.0225C76.0225 147.23 74.874 145.891 73.4111 145.891C71.9756 145.891 70.834 147.189 70.7451 148.926ZM78.7432 148.092V153H78.292V145.576H78.7295V146.752H78.7842C79.126 145.986 79.96 145.48 80.999 145.48C82.4893 145.48 83.5283 146.506 83.5283 148.051V153H83.0771V148.064C83.0771 146.779 82.2158 145.904 80.9443 145.904C79.6592 145.904 78.7432 146.793 78.7432 148.092ZM91.376 145.576V145.986H89.8174V151.346C89.8174 152.221 90.4463 152.699 91.1436 152.699L91.5947 152.686V153.109C91.499 153.123 91.376 153.123 91.1299 153.123C90.2002 153.123 89.3799 152.48 89.3799 151.387V145.986H88.2861V145.576H89.3799V143.799H89.8174V145.576H91.376ZM94.001 148.092V153H93.5498V143.102H94.001V146.752H94.042C94.3975 145.973 95.2178 145.48 96.2705 145.48C97.7607 145.48 98.7998 146.506 98.7998 148.051V153H98.3486V148.064C98.3486 146.779 97.4873 145.904 96.2158 145.904C94.9307 145.904 94.001 146.793 94.001 148.092ZM103.886 153.15C101.903 153.15 100.618 151.51 100.618 149.309C100.618 147.107 101.944 145.467 103.735 145.467C105.431 145.467 106.798 146.957 106.798 149.008V149.35H101.056C101.069 151.229 102.108 152.727 103.886 152.727C105.171 152.727 105.868 151.92 106.114 151.441H106.593C106.292 152.248 105.349 153.15 103.886 153.15ZM101.069 148.926H106.347C106.347 147.23 105.198 145.891 103.735 145.891C102.3 145.891 101.158 147.189 101.069 148.926ZM116.532 150.471V145.576H116.97V153H116.532V151.811H116.491C116.136 152.576 115.302 153.096 114.263 153.096C112.786 153.096 111.747 152.07 111.747 150.525V145.576H112.198V150.512C112.198 151.783 113.073 152.658 114.331 152.658C115.562 152.658 116.532 151.783 116.532 150.471ZM123.354 147.23C123.177 146.396 122.479 145.891 121.468 145.877C120.333 145.877 119.54 146.52 119.54 147.436C119.54 148.16 120.032 148.68 121.017 148.926L122.165 149.213C123.3 149.486 123.874 150.17 123.874 151.1C123.874 152.303 122.876 153.15 121.331 153.15C119.923 153.15 119.007 152.453 118.815 151.223H119.28C119.458 152.207 120.183 152.74 121.331 152.74C122.589 152.74 123.423 152.098 123.423 151.113C123.423 150.389 122.972 149.855 122.028 149.637L120.88 149.35C119.704 149.062 119.103 148.393 119.103 147.449C119.103 146.273 120.073 145.453 121.468 145.467C122.767 145.467 123.614 146.191 123.806 147.23H123.354ZM128.55 153.15C126.567 153.15 125.282 151.51 125.282 149.309C125.282 147.107 126.608 145.467 128.399 145.467C130.095 145.467 131.462 146.957 131.462 149.008V149.35H125.72C125.733 151.229 126.772 152.727 128.55 152.727C129.835 152.727 130.532 151.92 130.778 151.441H131.257C130.956 152.248 130.013 153.15 128.55 153.15ZM125.733 148.926H131.011C131.011 147.23 129.862 145.891 128.399 145.891C126.964 145.891 125.822 147.189 125.733 148.926ZM133.28 153V145.576H133.718V146.752H133.772C134.101 145.973 134.948 145.48 135.946 145.48H136.165V145.918H135.933C134.647 145.918 133.731 146.807 133.731 148.064V153H133.28ZM140.649 155.789V145.576H141.087V147.354H141.142C141.524 146.26 142.372 145.467 143.603 145.467C145.38 145.467 146.515 147.094 146.515 149.309C146.515 151.523 145.366 153.15 143.603 153.15C142.386 153.15 141.511 152.371 141.142 151.25H141.101V155.789H140.649ZM141.101 149.309C141.101 151.264 142.044 152.727 143.575 152.727C145.12 152.727 146.063 151.25 146.063 149.309C146.063 147.367 145.134 145.891 143.575 145.891C142.03 145.891 141.101 147.354 141.101 149.309ZM151.026 153.15C149.235 153.15 147.909 151.523 147.909 149.309C147.909 147.094 149.235 145.467 151.026 145.467C152.817 145.467 154.157 147.107 154.157 149.309C154.157 151.523 152.817 153.15 151.026 153.15ZM151.026 152.727C152.599 152.727 153.706 151.236 153.706 149.309C153.706 147.381 152.585 145.891 151.026 145.891C149.468 145.891 148.347 147.381 148.347 149.309C148.347 151.236 149.468 152.727 151.026 152.727ZM160.091 147.23C159.913 146.396 159.216 145.891 158.204 145.877C157.069 145.877 156.276 146.52 156.276 147.436C156.276 148.16 156.769 148.68 157.753 148.926L158.901 149.213C160.036 149.486 160.61 150.17 160.61 151.1C160.61 152.303 159.612 153.15 158.067 153.15C156.659 153.15 155.743 152.453 155.552 151.223H156.017C156.194 152.207 156.919 152.74 158.067 152.74C159.325 152.74 160.159 152.098 160.159 151.113C160.159 150.389 159.708 149.855 158.765 149.637L157.616 149.35C156.44 149.062 155.839 148.393 155.839 147.449C155.839 146.273 156.81 145.453 158.204 145.467C159.503 145.467 160.351 146.191 160.542 147.23H160.091ZM165.286 153.15C163.304 153.15 162.019 151.51 162.019 149.309C162.019 147.107 163.345 145.467 165.136 145.467C166.831 145.467 168.198 146.957 168.198 149.008V149.35H162.456C162.47 151.229 163.509 152.727 165.286 152.727C166.571 152.727 167.269 151.92 167.515 151.441H167.993C167.692 152.248 166.749 153.15 165.286 153.15ZM162.47 148.926H167.747C167.747 147.23 166.599 145.891 165.136 145.891C163.7 145.891 162.559 147.189 162.47 148.926ZM174.146 147.23C173.968 146.396 173.271 145.891 172.259 145.877C171.124 145.877 170.331 146.52 170.331 147.436C170.331 148.16 170.823 148.68 171.808 148.926L172.956 149.213C174.091 149.486 174.665 150.17 174.665 151.1C174.665 152.303 173.667 153.15 172.122 153.15C170.714 153.15 169.798 152.453 169.606 151.223H170.071C170.249 152.207 170.974 152.74 172.122 152.74C173.38 152.74 174.214 152.098 174.214 151.113C174.214 150.389 173.763 149.855 172.819 149.637L171.671 149.35C170.495 149.062 169.894 148.393 169.894 147.449C169.894 146.273 170.864 145.453 172.259 145.467C173.558 145.467 174.405 146.191 174.597 147.23H174.146Z" fill="#1A1A1A"/>
</svg>
