<svg width="196" height="200" viewBox="0 0 196 200" fill="none" xmlns="http://www.w3.org/2000/svg">
<rect x="0.5" y="0.5" width="195" height="199" rx="6.5" stroke="#A8A8A8"/>
<path d="M80.5455 16.152H77.1255V13.38C77.1255 12.696 76.8015 12.336 76.2255 12.336C75.6135 12.336 75.3255 12.732 75.3255 13.272V15.36C75.3255 16.692 75.4335 17.052 76.0815 17.772C77.3415 19.212 78.9615 20.328 79.8615 21.516C80.5455 22.452 80.8695 23.388 80.8695 25.332V28.536C80.8695 31.56 79.4655 33.18 76.2255 33.18C73.0215 33.18 71.6175 31.596 71.6175 28.5V25.836H75.0735V28.788C75.0735 29.436 75.4335 29.832 76.0815 29.832C76.7295 29.832 77.0175 29.436 77.0175 28.788V26.16C77.0175 24.396 76.7655 23.964 76.0455 23.172C74.8935 21.912 73.5255 20.832 72.6975 19.392C72.0495 18.276 71.7255 17.16 71.7255 15.18V13.164C71.7255 10.464 73.2735 8.952 76.1535 8.952C79.3935 8.952 80.5455 10.86 80.5455 13.812V16.152ZM88.8697 33H81.8857V9.096H88.6537V12.372H85.4857V18.816H88.2577V22.128H85.4857V29.724H88.8697V33ZM96.7832 33H89.6552V9.096H93.3272V29.652H96.7832V33ZM104.62 33H97.6357V9.096H104.404V12.372H101.236V18.816H104.008V22.128H101.236V29.724H104.62V33ZM110.661 28.752V23.244H114.081V28.5C114.081 31.632 112.605 33.18 109.797 33.18C106.917 33.18 105.405 31.488 105.405 28.464V13.596C105.405 10.464 106.845 8.952 109.761 8.952C112.533 8.952 114.081 10.284 114.081 13.56V17.664H110.661V13.416C110.661 12.696 110.373 12.336 109.833 12.336C109.293 12.336 109.041 12.696 109.041 13.416V28.752C109.041 29.508 109.221 29.832 109.797 29.832C110.373 29.832 110.661 29.508 110.661 28.752ZM120.909 33H117.273V12.372H114.717V9.096H123.501V12.372H120.909V33ZM66.55 49.36V41.404H66.406L64.534 49.36H66.55ZM70.006 58H66.478V52.384H62.158V49.396L65.83 34.096H70.006V49.36H71.338V52.384H70.006V58ZM80.7064 48.928H79.1944V58H75.5224V34.096H80.7064C83.2984 34.096 84.2704 35.5 84.2704 37.876V45.184C84.2704 47.56 83.2984 48.928 80.7064 48.928ZM79.1944 37.372V45.796H79.9504C80.5264 45.796 80.8144 45.364 80.8144 44.608V38.308C80.8144 37.66 80.5264 37.372 79.9504 37.372H79.1944ZM94.1192 58H90.4472V46.876H88.8272V58H85.1552V34.096H88.8272V43.6H90.4472V34.096H94.1192V58ZM103.993 38.812V53.5C103.993 56.632 102.409 58.18 99.6011 58.18C96.7211 58.18 95.1371 56.488 95.1371 53.464V38.74C95.1371 35.716 96.7571 33.952 99.5651 33.952C102.373 33.952 103.993 35.752 103.993 38.812ZM100.393 53.752V38.416C100.393 37.696 100.105 37.336 99.5651 37.336C99.0251 37.336 98.7731 37.696 98.7731 38.416V53.752C98.7731 54.472 99.0251 54.832 99.5651 54.832C100.105 54.832 100.393 54.472 100.393 53.752ZM110.713 58H107.077V37.372H104.521V34.096H113.305V37.372H110.713V58ZM122.626 38.812V53.5C122.626 56.632 121.042 58.18 118.234 58.18C115.354 58.18 113.77 56.488 113.77 53.464V38.74C113.77 35.716 115.39 33.952 118.198 33.952C121.006 33.952 122.626 35.752 122.626 38.812ZM119.026 53.752V38.416C119.026 37.696 118.738 37.336 118.198 37.336C117.658 37.336 117.406 37.696 117.406 38.416V53.752C117.406 54.472 117.658 54.832 118.198 54.832C118.738 54.832 119.026 54.472 119.026 53.752ZM132.366 41.152H128.946V38.38C128.946 37.696 128.622 37.336 128.046 37.336C127.434 37.336 127.146 37.732 127.146 38.272V40.36C127.146 41.692 127.254 42.052 127.902 42.772C129.162 44.212 130.782 45.328 131.682 46.516C132.366 47.452 132.69 48.388 132.69 50.332V53.536C132.69 56.56 131.286 58.18 128.046 58.18C124.842 58.18 123.438 56.596 123.438 53.5V50.836H126.894V53.788C126.894 54.436 127.254 54.832 127.902 54.832C128.55 54.832 128.838 54.436 128.838 53.788V51.16C128.838 49.396 128.586 48.964 127.866 48.172C126.714 46.912 125.346 45.832 124.518 44.392C123.87 43.276 123.546 42.16 123.546 40.18V38.164C123.546 35.464 125.094 33.952 127.974 33.952C131.214 33.952 132.366 35.86 132.366 38.812V41.152Z" fill="black"/>
<path d="M47.3311 108.102H47.7822V114.65C47.7822 116.66 46.251 118.164 44.1729 118.164C42.0947 118.164 40.5635 116.66 40.5635 114.65V108.102H41.0146V114.637C41.0146 116.414 42.3408 117.713 44.1729 117.713C46.0049 117.713 47.3311 116.414 47.3311 114.637V108.102ZM50.2432 120.789V110.576H50.6807V112.354H50.7354C51.1182 111.26 51.9658 110.467 53.1963 110.467C54.9736 110.467 56.1084 112.094 56.1084 114.309C56.1084 116.523 54.96 118.15 53.1963 118.15C51.9795 118.15 51.1045 117.371 50.7354 116.25H50.6943V120.789H50.2432ZM50.6943 114.309C50.6943 116.264 51.6377 117.727 53.1689 117.727C54.7139 117.727 55.6572 116.25 55.6572 114.309C55.6572 112.367 54.7275 110.891 53.1689 110.891C51.624 110.891 50.6943 112.354 50.6943 114.309ZM58.3779 108.102V118H57.9268V108.102H58.3779ZM63.3135 118.15C61.5225 118.15 60.1963 116.523 60.1963 114.309C60.1963 112.094 61.5225 110.467 63.3135 110.467C65.1045 110.467 66.4443 112.107 66.4443 114.309C66.4443 116.523 65.1045 118.15 63.3135 118.15ZM63.3135 117.727C64.8857 117.727 65.9932 116.236 65.9932 114.309C65.9932 112.381 64.8721 110.891 63.3135 110.891C61.7549 110.891 60.6338 112.381 60.6338 114.309C60.6338 116.236 61.7549 117.727 63.3135 117.727ZM67.8525 115.977C67.8525 114.855 68.5361 113.926 70.4912 113.762C71.0312 113.714 72.2686 113.625 72.6514 113.598V112.709C72.6514 111.602 71.8584 110.877 70.6143 110.877C69.5615 110.877 68.7002 111.369 68.5088 112.23H68.0439C68.2217 111.123 69.3018 110.467 70.6143 110.467C72.0225 110.467 73.0889 111.301 73.0889 112.736V118H72.6514V116.564H72.6104C72.1865 117.494 71.3115 118.164 70.1631 118.164C68.9189 118.164 67.8525 117.371 67.8525 115.977ZM68.3037 115.977C68.3037 117.057 69.124 117.74 70.1904 117.74C71.585 117.74 72.6514 116.564 72.6514 114.91V113.994C72.2754 114.028 71.0381 114.138 70.6143 114.158C68.8369 114.295 68.3037 115.061 68.3037 115.977ZM77.8604 118.15C76.083 118.15 74.9482 116.523 74.9482 114.309C74.9482 112.094 76.0967 110.467 77.8604 110.467C79.0771 110.467 79.9521 111.246 80.3076 112.354H80.3623V108.102H80.7998V118H80.3623V116.25H80.3076C79.9248 117.357 79.0771 118.15 77.8604 118.15ZM77.874 117.727C79.4189 117.727 80.3623 116.264 80.3623 114.309C80.3623 112.354 79.4189 110.891 77.874 110.891C76.3291 110.891 75.3994 112.367 75.3994 114.309C75.3994 116.25 76.3291 117.727 77.874 117.727ZM83.3154 118V110.576H83.7529V118H83.3154ZM83.5342 109.236C83.3291 109.236 83.1514 109.072 83.1514 108.854C83.1514 108.648 83.3291 108.471 83.5342 108.471C83.7529 108.471 83.9307 108.648 83.9307 108.854C83.9307 109.072 83.7529 109.236 83.5342 109.236ZM86.4873 113.092V118H86.0361V110.576H86.4736V111.752H86.5283C86.8701 110.986 87.7041 110.48 88.7432 110.48C90.2334 110.48 91.2725 111.506 91.2725 113.051V118H90.8213V113.064C90.8213 111.779 89.96 110.904 88.6885 110.904C87.4033 110.904 86.4873 111.793 86.4873 113.092ZM96.1123 120.939C94.7725 120.939 93.624 120.406 93.3643 119.244H93.8428C94.0615 120.105 95.0049 120.516 96.1123 120.516C97.6162 120.516 98.5049 119.75 98.5049 118.15V116.223H98.4502C98.0947 117.33 97.1514 117.986 96.0029 117.986C94.2529 117.986 93.0908 116.496 93.0908 114.295C93.0908 112.066 94.2256 110.467 96.0029 110.467C97.2334 110.467 98.0811 111.246 98.4639 112.354H98.5049V110.576H98.9424V118.164C98.9424 120.01 97.835 120.939 96.1123 120.939ZM96.0166 117.562C97.5342 117.562 98.5049 116.305 98.5049 114.295C98.5049 112.354 97.5615 110.891 96.0166 110.891C94.4717 110.891 93.542 112.367 93.542 114.295C93.542 116.236 94.4854 117.562 96.0166 117.562ZM104.056 115.73V115.375L108.704 108.102H109.21V115.293H110.509V115.73H109.21V118H108.772V115.73H104.056ZM104.644 115.293H108.772V108.881H108.704L104.644 115.252V115.293ZM115.581 120.789V110.576H116.019V112.354H116.073C116.456 111.26 117.304 110.467 118.534 110.467C120.312 110.467 121.446 112.094 121.446 114.309C121.446 116.523 120.298 118.15 118.534 118.15C117.317 118.15 116.442 117.371 116.073 116.25H116.032V120.789H115.581ZM116.032 114.309C116.032 116.264 116.976 117.727 118.507 117.727C120.052 117.727 120.995 116.25 120.995 114.309C120.995 112.367 120.065 110.891 118.507 110.891C116.962 110.891 116.032 112.354 116.032 114.309ZM123.716 113.092V118H123.265V108.102H123.716V111.752H123.757C124.112 110.973 124.933 110.48 125.985 110.48C127.476 110.48 128.515 111.506 128.515 113.051V118H128.063V113.064C128.063 111.779 127.202 110.904 125.931 110.904C124.646 110.904 123.716 111.793 123.716 113.092ZM133.45 118.15C131.659 118.15 130.333 116.523 130.333 114.309C130.333 112.094 131.659 110.467 133.45 110.467C135.241 110.467 136.581 112.107 136.581 114.309C136.581 116.523 135.241 118.15 133.45 118.15ZM133.45 117.727C135.022 117.727 136.13 116.236 136.13 114.309C136.13 112.381 135.009 110.891 133.45 110.891C131.892 110.891 130.771 112.381 130.771 114.309C130.771 116.236 131.892 117.727 133.45 117.727ZM140.86 110.576V110.986H139.302V116.346C139.302 117.221 139.931 117.699 140.628 117.699L141.079 117.686V118.109C140.983 118.123 140.86 118.123 140.614 118.123C139.685 118.123 138.864 117.48 138.864 116.387V110.986H137.771V110.576H138.864V108.799H139.302V110.576H140.86ZM145.481 118.15C143.69 118.15 142.364 116.523 142.364 114.309C142.364 112.094 143.69 110.467 145.481 110.467C147.272 110.467 148.612 112.107 148.612 114.309C148.612 116.523 147.272 118.15 145.481 118.15ZM145.481 117.727C147.054 117.727 148.161 116.236 148.161 114.309C148.161 112.381 147.04 110.891 145.481 110.891C143.923 110.891 142.802 112.381 142.802 114.309C142.802 116.236 143.923 117.727 145.481 117.727ZM154.546 112.23C154.368 111.396 153.671 110.891 152.659 110.877C151.524 110.877 150.731 111.52 150.731 112.436C150.731 113.16 151.224 113.68 152.208 113.926L153.356 114.213C154.491 114.486 155.065 115.17 155.065 116.1C155.065 117.303 154.067 118.15 152.522 118.15C151.114 118.15 150.198 117.453 150.007 116.223H150.472C150.649 117.207 151.374 117.74 152.522 117.74C153.78 117.74 154.614 117.098 154.614 116.113C154.614 115.389 154.163 114.855 153.22 114.637L152.071 114.35C150.896 114.062 150.294 113.393 150.294 112.449C150.294 111.273 151.265 110.453 152.659 110.467C153.958 110.467 154.806 111.191 154.997 112.23H154.546ZM48.4932 127.23C48.3154 126.396 47.6182 125.891 46.6064 125.877C45.4717 125.877 44.6787 126.52 44.6787 127.436C44.6787 128.16 45.1709 128.68 46.1553 128.926L47.3037 129.213C48.4385 129.486 49.0127 130.17 49.0127 131.1C49.0127 132.303 48.0146 133.15 46.4697 133.15C45.0615 133.15 44.1455 132.453 43.9541 131.223H44.4189C44.5967 132.207 45.3213 132.74 46.4697 132.74C47.7275 132.74 48.5615 132.098 48.5615 131.113C48.5615 130.389 48.1104 129.855 47.167 129.637L46.0186 129.35C44.8428 129.062 44.2412 128.393 44.2412 127.449C44.2412 126.273 45.2119 125.453 46.6064 125.467C47.9053 125.467 48.7529 126.191 48.9443 127.23H48.4932ZM51.2959 128.092V133H50.8447V123.102H51.2959V126.752H51.3369C51.6924 125.973 52.5127 125.48 53.5654 125.48C55.0557 125.48 56.0947 126.506 56.0947 128.051V133H55.6436V128.064C55.6436 126.779 54.7822 125.904 53.5107 125.904C52.2256 125.904 51.2959 126.793 51.2959 128.092ZM61.0303 133.15C59.2393 133.15 57.9131 131.523 57.9131 129.309C57.9131 127.094 59.2393 125.467 61.0303 125.467C62.8213 125.467 64.1611 127.107 64.1611 129.309C64.1611 131.523 62.8213 133.15 61.0303 133.15ZM61.0303 132.727C62.6025 132.727 63.71 131.236 63.71 129.309C63.71 127.381 62.5889 125.891 61.0303 125.891C59.4717 125.891 58.3506 127.381 58.3506 129.309C58.3506 131.236 59.4717 132.727 61.0303 132.727ZM67.3057 133L65.1045 125.576H65.5693L67.5654 132.371H67.6064L69.6162 125.576H70.0674L72.0771 132.357H72.1182L74.1143 125.576H74.5791L72.3643 133H71.8311L69.8623 126.342H69.8213L67.8525 133H67.3057ZM80.3486 127.23C80.1709 126.396 79.4736 125.891 78.4619 125.877C77.3271 125.877 76.5342 126.52 76.5342 127.436C76.5342 128.16 77.0264 128.68 78.0107 128.926L79.1592 129.213C80.2939 129.486 80.8682 130.17 80.8682 131.1C80.8682 132.303 79.8701 133.15 78.3252 133.15C76.917 133.15 76.001 132.453 75.8096 131.223H76.2744C76.4521 132.207 77.1768 132.74 78.3252 132.74C79.583 132.74 80.417 132.098 80.417 131.113C80.417 130.389 79.9658 129.855 79.0225 129.637L77.874 129.35C76.6982 129.062 76.0967 128.393 76.0967 127.449C76.0967 126.273 77.0674 125.453 78.4619 125.467C79.7607 125.467 80.6084 126.191 80.7998 127.23H80.3486ZM88.5244 133.15C86.7334 133.15 85.4072 131.523 85.4072 129.309C85.4072 127.094 86.7334 125.467 88.5244 125.467C90.3154 125.467 91.6553 127.107 91.6553 129.309C91.6553 131.523 90.3154 133.15 88.5244 133.15ZM88.5244 132.727C90.0967 132.727 91.2041 131.236 91.2041 129.309C91.2041 127.381 90.083 125.891 88.5244 125.891C86.9658 125.891 85.8447 127.381 85.8447 129.309C85.8447 131.236 86.9658 132.727 88.5244 132.727ZM93.9111 128.092V133H93.46V125.576H93.8975V126.752H93.9521C94.2939 125.986 95.1279 125.48 96.167 125.48C97.6572 125.48 98.6963 126.506 98.6963 128.051V133H98.2451V128.064C98.2451 126.779 97.3838 125.904 96.1123 125.904C94.8271 125.904 93.9111 126.793 93.9111 128.092ZM103.782 133.15C101.8 133.15 100.515 131.51 100.515 129.309C100.515 127.107 101.841 125.467 103.632 125.467C105.327 125.467 106.694 126.957 106.694 129.008V129.35H100.952C100.966 131.229 102.005 132.727 103.782 132.727C105.067 132.727 105.765 131.92 106.011 131.441H106.489C106.188 132.248 105.245 133.15 103.782 133.15ZM100.966 128.926H106.243C106.243 127.23 105.095 125.891 103.632 125.891C102.196 125.891 101.055 127.189 100.966 128.926ZM111.644 135.789V125.576H112.081V127.354H112.136C112.519 126.26 113.366 125.467 114.597 125.467C116.374 125.467 117.509 127.094 117.509 129.309C117.509 131.523 116.36 133.15 114.597 133.15C113.38 133.15 112.505 132.371 112.136 131.25H112.095V135.789H111.644ZM112.095 129.309C112.095 131.264 113.038 132.727 114.569 132.727C116.114 132.727 117.058 131.25 117.058 129.309C117.058 127.367 116.128 125.891 114.569 125.891C113.024 125.891 112.095 127.354 112.095 129.309ZM119.368 133V125.576H119.806V133H119.368ZM119.587 124.236C119.382 124.236 119.204 124.072 119.204 123.854C119.204 123.648 119.382 123.471 119.587 123.471C119.806 123.471 119.983 123.648 119.983 123.854C119.983 124.072 119.806 124.236 119.587 124.236ZM124.823 133.15C122.964 133.15 121.665 131.51 121.665 129.309C121.665 127.121 122.978 125.467 124.81 125.467C126.177 125.467 127.298 126.396 127.517 127.75H127.052C126.86 126.656 125.958 125.891 124.823 125.891C123.265 125.891 122.103 127.326 122.103 129.309C122.103 131.236 123.21 132.727 124.823 132.727C125.958 132.727 126.888 131.988 127.065 130.826H127.53C127.312 132.221 126.218 133.15 124.823 133.15ZM131.81 125.576V125.986H130.251V131.346C130.251 132.221 130.88 132.699 131.577 132.699L132.028 132.686V133.109C131.933 133.123 131.81 133.123 131.563 133.123C130.634 133.123 129.813 132.48 129.813 131.387V125.986H128.72V125.576H129.813V123.799H130.251V125.576H131.81ZM138.604 130.471V125.576H139.042V133H138.604V131.811H138.563C138.208 132.576 137.374 133.096 136.335 133.096C134.858 133.096 133.819 132.07 133.819 130.525V125.576H134.271V130.512C134.271 131.783 135.146 132.658 136.403 132.658C137.634 132.658 138.604 131.783 138.604 130.471ZM141.298 133V125.576H141.735V126.752H141.79C142.118 125.973 142.966 125.48 143.964 125.48H144.183V125.918H143.95C142.665 125.918 141.749 126.807 141.749 128.064V133H141.298ZM148.147 133.15C146.165 133.15 144.88 131.51 144.88 129.309C144.88 127.107 146.206 125.467 147.997 125.467C149.692 125.467 151.06 126.957 151.06 129.008V129.35H145.317C145.331 131.229 146.37 132.727 148.147 132.727C149.433 132.727 150.13 131.92 150.376 131.441H150.854C150.554 132.248 149.61 133.15 148.147 133.15ZM145.331 128.926H150.608C150.608 127.23 149.46 125.891 147.997 125.891C146.562 125.891 145.42 127.189 145.331 128.926ZM36.3799 148.15C34.5205 148.15 33.2217 146.51 33.2217 144.309C33.2217 142.121 34.5342 140.467 36.3662 140.467C37.7334 140.467 38.8545 141.396 39.0732 142.75H38.6084C38.417 141.656 37.5146 140.891 36.3799 140.891C34.8213 140.891 33.6592 142.326 33.6592 144.309C33.6592 146.236 34.7666 147.727 36.3799 147.727C37.5146 147.727 38.4443 146.988 38.6221 145.826H39.0869C38.8682 147.221 37.7744 148.15 36.3799 148.15ZM43.585 148.15C41.7939 148.15 40.4678 146.523 40.4678 144.309C40.4678 142.094 41.7939 140.467 43.585 140.467C45.376 140.467 46.7158 142.107 46.7158 144.309C46.7158 146.523 45.376 148.15 43.585 148.15ZM43.585 147.727C45.1572 147.727 46.2646 146.236 46.2646 144.309C46.2646 142.381 45.1436 140.891 43.585 140.891C42.0264 140.891 40.9053 142.381 40.9053 144.309C40.9053 146.236 42.0264 147.727 43.585 147.727ZM48.9717 143.092V148H48.5205V140.576H48.958V141.752H49.0127C49.3545 140.986 50.1885 140.48 51.2275 140.48C52.7178 140.48 53.7568 141.506 53.7568 143.051V148H53.3057V143.064C53.3057 141.779 52.4443 140.904 51.1729 140.904C49.8877 140.904 48.9717 141.793 48.9717 143.092ZM56.4502 143.092V148H55.999V140.576H56.4365V141.752H56.4912C56.833 140.986 57.667 140.48 58.7061 140.48C60.1963 140.48 61.2354 141.506 61.2354 143.051V148H60.7842V143.064C60.7842 141.779 59.9229 140.904 58.6514 140.904C57.3662 140.904 56.4502 141.793 56.4502 143.092ZM66.3213 148.15C64.3389 148.15 63.0537 146.51 63.0537 144.309C63.0537 142.107 64.3799 140.467 66.1709 140.467C67.8662 140.467 69.2334 141.957 69.2334 144.008V144.35H63.4912C63.5049 146.229 64.5439 147.727 66.3213 147.727C67.6064 147.727 68.3037 146.92 68.5498 146.441H69.0283C68.7275 147.248 67.7842 148.15 66.3213 148.15ZM63.5049 143.926H68.7822C68.7822 142.23 67.6338 140.891 66.1709 140.891C64.7354 140.891 63.5938 142.189 63.5049 143.926ZM73.7861 148.15C71.9268 148.15 70.6279 146.51 70.6279 144.309C70.6279 142.121 71.9404 140.467 73.7725 140.467C75.1396 140.467 76.2607 141.396 76.4795 142.75H76.0146C75.8232 141.656 74.9209 140.891 73.7861 140.891C72.2275 140.891 71.0654 142.326 71.0654 144.309C71.0654 146.236 72.1729 147.727 73.7861 147.727C74.9209 147.727 75.8506 146.988 76.0283 145.826H76.4932C76.2744 147.221 75.1807 148.15 73.7861 148.15ZM80.7725 140.576V140.986H79.2139V146.346C79.2139 147.221 79.8428 147.699 80.54 147.699L80.9912 147.686V148.109C80.8955 148.123 80.7725 148.123 80.5264 148.123C79.5967 148.123 78.7764 147.48 78.7764 146.387V140.986H77.6826V140.576H78.7764V138.799H79.2139V140.576H80.7725ZM85.5439 148.15C83.5615 148.15 82.2764 146.51 82.2764 144.309C82.2764 142.107 83.6025 140.467 85.3936 140.467C87.0889 140.467 88.4561 141.957 88.4561 144.008V144.35H82.7139C82.7275 146.229 83.7666 147.727 85.5439 147.727C86.8291 147.727 87.5264 146.92 87.7725 146.441H88.251C87.9502 147.248 87.0068 148.15 85.5439 148.15ZM82.7275 143.926H88.0049C88.0049 142.23 86.8564 140.891 85.3936 140.891C83.958 140.891 82.8164 142.189 82.7275 143.926ZM92.7627 148.15C90.9854 148.15 89.8506 146.523 89.8506 144.309C89.8506 142.094 90.999 140.467 92.7627 140.467C93.9795 140.467 94.8545 141.246 95.21 142.354H95.2646V138.102H95.7021V148H95.2646V146.25H95.21C94.8271 147.357 93.9795 148.15 92.7627 148.15ZM92.7764 147.727C94.3213 147.727 95.2646 146.264 95.2646 144.309C95.2646 142.354 94.3213 140.891 92.7764 140.891C91.2314 140.891 90.3018 142.367 90.3018 144.309C90.3018 146.25 91.2314 147.727 92.7764 147.727ZM101.526 148V138.102H101.978V142.354H102.019C102.388 141.246 103.263 140.467 104.479 140.467C106.243 140.467 107.392 142.094 107.392 144.309C107.392 146.523 106.257 148.15 104.479 148.15C103.249 148.15 102.401 147.357 102.019 146.25H101.964V148H101.526ZM101.978 144.309C101.978 146.264 102.921 147.727 104.452 147.727C106.011 147.727 106.94 146.25 106.94 144.309C106.94 142.367 105.997 140.891 104.452 140.891C102.921 140.891 101.978 142.354 101.978 144.309ZM109.183 150.789C109.101 150.789 109.019 150.789 108.964 150.775V150.352C109.005 150.352 109.087 150.365 109.169 150.365C109.661 150.365 110.276 150.229 110.673 149.148L111.042 148.123L108.335 140.576H108.8L111.247 147.439H111.288L113.722 140.576H114.2L111.069 149.312C110.728 150.283 110.126 150.789 109.183 150.789ZM118.575 145.977C118.575 144.855 119.259 143.926 121.214 143.762C121.754 143.714 122.991 143.625 123.374 143.598V142.709C123.374 141.602 122.581 140.877 121.337 140.877C120.284 140.877 119.423 141.369 119.231 142.23H118.767C118.944 141.123 120.024 140.467 121.337 140.467C122.745 140.467 123.812 141.301 123.812 142.736V148H123.374V146.564H123.333C122.909 147.494 122.034 148.164 120.886 148.164C119.642 148.164 118.575 147.371 118.575 145.977ZM119.026 145.977C119.026 147.057 119.847 147.74 120.913 147.74C122.308 147.74 123.374 146.564 123.374 144.91V143.994C122.998 144.028 121.761 144.138 121.337 144.158C119.56 144.295 119.026 145.061 119.026 145.977ZM131.905 140.576V140.986H130.292L130.278 148H129.841V140.986H128.802V140.576H129.841V139.387C129.841 138.32 130.429 137.65 131.454 137.65C131.646 137.65 131.864 137.678 132.015 137.705V138.129C131.851 138.088 131.659 138.074 131.495 138.074C130.702 138.074 130.292 138.58 130.292 139.428V140.576H131.905ZM133.505 148V140.576H133.942V141.752H133.997C134.325 140.973 135.173 140.48 136.171 140.48H136.39V140.918H136.157C134.872 140.918 133.956 141.807 133.956 143.064V148H133.505ZM137.347 145.977C137.347 144.855 138.03 143.926 139.985 143.762C140.525 143.714 141.763 143.625 142.146 143.598V142.709C142.146 141.602 141.353 140.877 140.108 140.877C139.056 140.877 138.194 141.369 138.003 142.23H137.538C137.716 141.123 138.796 140.467 140.108 140.467C141.517 140.467 142.583 141.301 142.583 142.736V148H142.146V146.564H142.104C141.681 147.494 140.806 148.164 139.657 148.164C138.413 148.164 137.347 147.371 137.347 145.977ZM137.798 145.977C137.798 147.057 138.618 147.74 139.685 147.74C141.079 147.74 142.146 146.564 142.146 144.91V143.994C141.77 144.028 140.532 144.138 140.108 144.158C138.331 144.295 137.798 145.061 137.798 145.977ZM144.866 148V140.576H145.304V141.684H145.358C145.632 140.959 146.37 140.48 147.354 140.48C148.448 140.48 149.104 141.055 149.378 141.971H149.419C149.679 141.055 150.458 140.48 151.579 140.48C153.042 140.48 153.78 141.492 153.78 143.01V148H153.329V143.023C153.329 141.738 152.755 140.904 151.511 140.904C150.239 140.904 149.542 141.793 149.542 143.037V148H149.104V142.996C149.104 141.752 148.53 140.904 147.286 140.904C146.042 140.904 145.317 141.807 145.317 143.064V148H144.866ZM158.866 148.15C156.884 148.15 155.599 146.51 155.599 144.309C155.599 142.107 156.925 140.467 158.716 140.467C160.411 140.467 161.778 141.957 161.778 144.008V144.35H156.036C156.05 146.229 157.089 147.727 158.866 147.727C160.151 147.727 160.849 146.92 161.095 146.441H161.573C161.272 147.248 160.329 148.15 158.866 148.15ZM156.05 143.926H161.327C161.327 142.23 160.179 140.891 158.716 140.891C157.28 140.891 156.139 142.189 156.05 143.926Z" fill="#1A1A1A"/>
</svg>
