<svg width="115" height="30" viewBox="0 0 115 30" fill="none" xmlns="http://www.w3.org/2000/svg">
<g filter="url(#filter0_d_2004_33)">
<rect x="4" width="107" height="22" rx="7" fill="url(#paint0_linear_2004_33)"/>
</g>
<path d="M26.0143 18H23.4543V4.72H26.0143C27.5943 4.72 28.3743 5.52 28.3743 7.12V15.48C28.3743 17.24 27.5543 18 26.0143 18ZM25.4543 16.18H25.8743C26.1743 16.18 26.3343 15.8 26.3343 15.04V7.58C26.3343 6.88 26.1343 6.54 25.7343 6.54H25.4543V16.18ZM33.7412 14.68V15.76C33.7412 17.32 32.9612 18.1 31.3612 18.1C29.7812 18.1 29.0412 17.34 29.0412 15.76V10.42C29.0412 8.84 29.7812 8.08 31.3812 8.08C32.9612 8.08 33.7412 8.84 33.7412 10.42V13.64H30.9212V15.8C30.9212 16.2 31.0812 16.4 31.3612 16.4C31.6612 16.4 31.8212 16.2 31.8212 15.8V14.68H33.7412ZM31.8212 12.26V10.38C31.8212 9.96 31.6812 9.78 31.3812 9.78C31.0812 9.78 30.9212 9.96 30.9212 10.38V12.26H31.8212ZM37.6965 18H35.1565L33.9365 8.16H35.8765L36.4365 15.08H36.5165L37.0965 8.16H38.9365L37.6965 18ZM43.8584 14.68V15.76C43.8584 17.32 43.0784 18.1 41.4784 18.1C39.8984 18.1 39.1584 17.34 39.1584 15.76V10.42C39.1584 8.84 39.8984 8.08 41.4984 8.08C43.0784 8.08 43.8584 8.84 43.8584 10.42V13.64H41.0384V15.8C41.0384 16.2 41.1984 16.4 41.4784 16.4C41.7784 16.4 41.9384 16.2 41.9384 15.8V14.68H43.8584ZM41.9384 12.26V10.38C41.9384 9.96 41.7984 9.78 41.4984 9.78C41.1984 9.78 41.0384 9.96 41.0384 10.38V12.26H41.9384ZM46.4695 18H44.5295V4.56H46.4695V18ZM51.8462 10.42V15.76C51.8462 17.36 51.0862 18.1 49.5062 18.1C47.9062 18.1 47.1662 17.36 47.1662 15.76V10.42C47.1662 8.82 47.9062 8.08 49.5062 8.08C51.0862 8.08 51.8462 8.82 51.8462 10.42ZM49.9462 15.76V10.42C49.9462 10.02 49.7862 9.82 49.5062 9.82C49.2262 9.82 49.0462 10.02 49.0462 10.42V15.76C49.0462 16.16 49.2262 16.36 49.5062 16.36C49.7862 16.36 49.9462 16.16 49.9462 15.76ZM55.2977 15.82V10.36C55.2977 9.96 55.1377 9.76 54.8377 9.76C54.5777 9.76 54.4377 9.9 54.3977 10.2V15.96C54.4377 16.26 54.5777 16.42 54.8377 16.42C55.1377 16.42 55.2977 16.22 55.2977 15.82ZM54.4377 22.66H52.5177V8.16H54.2777L54.2977 9.02H54.3777C54.6977 8.36 55.0777 8.08 55.6977 8.08C56.6577 8.08 57.2577 8.76 57.2577 9.84V16.32C57.2577 17.4 56.6377 18.1 55.7177 18.1C55.1977 18.1 54.7777 17.88 54.5177 17.38H54.4377V22.66ZM62.6474 14.68V15.76C62.6474 17.32 61.8674 18.1 60.2674 18.1C58.6874 18.1 57.9474 17.34 57.9474 15.76V10.42C57.9474 8.84 58.6874 8.08 60.2874 8.08C61.8674 8.08 62.6474 8.84 62.6474 10.42V13.64H59.8274V15.8C59.8274 16.2 59.9874 16.4 60.2674 16.4C60.5674 16.4 60.7274 16.2 60.7274 15.8V14.68H62.6474ZM60.7274 12.26V10.38C60.7274 9.96 60.5874 9.78 60.2874 9.78C59.9874 9.78 59.8274 9.96 59.8274 10.38V12.26H60.7274ZM65.2585 18H63.3185V8.16H65.1385L65.1785 9.02H65.2585C65.4785 8.46 65.8385 8.08 66.4785 8.08C66.6385 8.08 66.7785 8.1 66.9185 8.16V9.9C66.7585 9.84 66.6185 9.82 66.3985 9.82C65.5585 9.82 65.2585 10.24 65.2585 11.04V18ZM72.5165 18H70.4965V6.54H69.0765V4.72H73.9565V6.54H72.5165V18ZM78.2524 10.42V15.76C78.2524 17.36 77.4924 18.1 75.9124 18.1C74.3124 18.1 73.5724 17.36 73.5724 15.76V10.42C73.5724 8.82 74.3124 8.08 75.9124 8.08C77.4924 8.08 78.2524 8.82 78.2524 10.42ZM76.3524 15.76V10.42C76.3524 10.02 76.1924 9.82 75.9124 9.82C75.6324 9.82 75.4524 10.02 75.4524 10.42V15.76C75.4524 16.16 75.6324 16.36 75.9124 16.36C76.1924 16.36 76.3524 16.16 76.3524 15.76ZM83.604 10.42V15.76C83.604 17.36 82.844 18.1 81.264 18.1C79.664 18.1 78.924 17.36 78.924 15.76V10.42C78.924 8.82 79.664 8.08 81.264 8.08C82.844 8.08 83.604 8.82 83.604 10.42ZM81.704 15.76V10.42C81.704 10.02 81.544 9.82 81.264 9.82C80.984 9.82 80.804 10.02 80.804 10.42V15.76C80.804 16.16 80.984 16.36 81.264 16.36C81.544 16.36 81.704 16.16 81.704 15.76ZM86.2155 18H84.2755V4.56H86.2155V18ZM91.4923 11.14H89.6723V10.08C89.6723 9.8 89.5123 9.66 89.2323 9.66C88.9723 9.66 88.7723 9.78 88.7723 10.04V11.18C88.7723 11.5 88.8123 11.62 89.2123 11.92C89.7123 12.28 90.3523 12.54 90.8523 12.96C91.2923 13.32 91.5723 13.76 91.5723 14.76V16.1C91.5723 17.44 90.8523 18.1 89.2723 18.1C87.5923 18.1 86.8523 17.38 86.8523 16.02V14.84H88.6723V16.08C88.6723 16.38 88.8523 16.52 89.1723 16.52C89.4923 16.52 89.6323 16.38 89.6323 16.14V14.82C89.6323 14.5 89.5523 14.3 89.0523 13.94C88.6123 13.62 87.8123 13.14 87.4523 12.74C87.0323 12.28 86.9323 11.76 86.9323 11.18V9.86C86.9323 8.76 87.7523 8.08 89.1723 8.08C90.6723 8.08 91.4923 8.86 91.4923 10.18V11.14Z" fill="white"/>
<defs>
<filter id="filter0_d_2004_33" x="0" y="0" width="115" height="30" filterUnits="userSpaceOnUse" color-interpolation-filters="sRGB">
<feFlood flood-opacity="0" result="BackgroundImageFix"/>
<feColorMatrix in="SourceAlpha" type="matrix" values="0 0 0 0 0 0 0 0 0 0 0 0 0 0 0 0 0 0 127 0" result="hardAlpha"/>
<feOffset dy="4"/>
<feGaussianBlur stdDeviation="2"/>
<feComposite in2="hardAlpha" operator="out"/>
<feColorMatrix type="matrix" values="0 0 0 0 0 0 0 0 0 0 0 0 0 0 0 0 0 0 0.25 0"/>
<feBlend mode="normal" in2="BackgroundImageFix" result="effect1_dropShadow_2004_33"/>
<feBlend mode="normal" in="SourceGraphic" in2="effect1_dropShadow_2004_33" result="shape"/>
</filter>
<linearGradient id="paint0_linear_2004_33" x1="57.5" y1="22" x2="57.5" y2="0" gradientUnits="userSpaceOnUse">
<stop stop-color="#737373"/>
<stop offset="1" stop-color="#D9D9D9"/>
</linearGradient>
</defs>
</svg>
