<svg width="196" height="200" viewBox="0 0 196 200" fill="none" xmlns="http://www.w3.org/2000/svg">
<rect x="0.5" y="0.5" width="195" height="199" rx="6.5" stroke="#A8A8A8"/>
<path d="M99.982 33H96.346L95.95 27.564H94.114L93.754 33H90.19L92.53 9.096H97.642L99.982 33ZM94.978 15.18L94.33 24.432H95.734L95.122 15.18H94.978ZM104.349 33H100.677V9.096H104.349V33Z" fill="#1A1A1A"/>
<path d="M90.298 58H87.058V48.748C87.058 47.56 87.13 42.556 87.202 41.332H87.058L85.258 58H82.162L80.362 41.332H80.218C80.326 42.52 80.362 43.744 80.362 48.748V58H77.122V34.096H82.63L83.71 49.18H83.854L84.97 34.096H90.298V58ZM100.179 38.812V53.5C100.179 56.632 98.5946 58.18 95.7866 58.18C92.9066 58.18 91.3226 56.488 91.3226 53.464V38.74C91.3226 35.716 92.9426 33.952 95.7506 33.952C98.5586 33.952 100.179 35.752 100.179 38.812ZM96.5786 53.752V38.416C96.5786 37.696 96.2906 37.336 95.7506 37.336C95.2106 37.336 94.9586 37.696 94.9586 38.416V53.752C94.9586 54.472 95.2106 54.832 95.7506 54.832C96.2906 54.832 96.5786 54.472 96.5786 53.752ZM105.812 58H101.204V34.096H105.812C108.656 34.096 110.06 35.536 110.06 38.416V53.464C110.06 56.632 108.584 58 105.812 58ZM104.804 54.724H105.56C106.1 54.724 106.388 54.04 106.388 52.672V39.244C106.388 37.984 106.028 37.372 105.308 37.372H104.804V54.724ZM118.172 58H111.188V34.096H117.956V37.372H114.788V43.816H117.56V47.128H114.788V54.724H118.172V58ZM58.971 75.86H57.611C56.811 73.36 56.391 70.16 56.391 67C56.391 63.96 56.771 60.92 57.611 58.44H58.971C58.411 61.16 58.111 64.08 58.111 67.04C58.111 69.96 58.391 72.96 58.971 75.86ZM61.4304 73H59.4904V63.16H61.3104L61.3504 64.02H61.4304C61.6504 63.46 62.0104 63.08 62.6504 63.08C62.8104 63.08 62.9504 63.1 63.0904 63.16V64.9C62.9304 64.84 62.7904 64.82 62.5704 64.82C61.7304 64.82 61.4304 65.24 61.4304 66.04V73ZM68.2724 69.68V70.76C68.2724 72.32 67.4924 73.1 65.8924 73.1C64.3124 73.1 63.5724 72.34 63.5724 70.76V65.42C63.5724 63.84 64.3124 63.08 65.9124 63.08C67.4924 63.08 68.2724 63.84 68.2724 65.42V68.64H65.4524V70.8C65.4524 71.2 65.6124 71.4 65.8924 71.4C66.1924 71.4 66.3524 71.2 66.3524 70.8V69.68H68.2724ZM66.3524 67.26V65.38C66.3524 64.96 66.2124 64.78 65.9124 64.78C65.6124 64.78 65.4524 64.96 65.4524 65.38V67.26H66.3524ZM71.7235 70.76V69.44H73.5635V70.76C73.5635 72.32 72.8635 73.1 71.2635 73.1C69.6835 73.1 68.9435 72.34 68.9435 70.76V65.42C68.9435 63.84 69.6835 63.08 71.2835 63.08C72.8635 63.08 73.5635 63.84 73.5635 65.42V66.68H71.7235V65.42C71.7235 65.02 71.5835 64.82 71.2835 64.82C70.9835 64.82 70.8235 65.02 70.8235 65.42V70.76C70.8235 71.16 70.9835 71.36 71.2635 71.36C71.5635 71.36 71.7235 71.16 71.7235 70.76ZM78.9165 65.42V70.76C78.9165 72.36 78.1565 73.1 76.5765 73.1C74.9765 73.1 74.2365 72.36 74.2365 70.76V65.42C74.2365 63.82 74.9765 63.08 76.5765 63.08C78.1565 63.08 78.9165 63.82 78.9165 65.42ZM77.0165 70.76V65.42C77.0165 65.02 76.8565 64.82 76.5765 64.82C76.2965 64.82 76.1165 65.02 76.1165 65.42V70.76C76.1165 71.16 76.2965 71.36 76.5765 71.36C76.8565 71.36 77.0165 71.16 77.0165 70.76ZM87.108 73H85.148V65.26C85.148 64.94 85.008 64.76 84.748 64.76C84.508 64.76 84.348 64.9 84.288 65.2V73H82.408V65.26C82.408 64.94 82.268 64.76 82.008 64.76C81.768 64.76 81.608 64.9 81.528 65.2V73H79.588V63.16H81.408L81.448 64.02H81.528C81.828 63.34 82.248 63.08 82.768 63.08C83.388 63.08 83.928 63.46 84.148 64.12C84.508 63.36 85.008 63.08 85.548 63.08C86.428 63.08 87.108 63.78 87.108 64.86V73ZM95.3307 73H93.3707V65.26C93.3707 64.94 93.2307 64.76 92.9707 64.76C92.7307 64.76 92.5707 64.9 92.5107 65.2V73H90.6307V65.26C90.6307 64.94 90.4907 64.76 90.2307 64.76C89.9907 64.76 89.8307 64.9 89.7507 65.2V73H87.8107V63.16H89.6307L89.6707 64.02H89.7507C90.0507 63.34 90.4707 63.08 90.9907 63.08C91.6107 63.08 92.1507 63.46 92.3707 64.12C92.7307 63.36 93.2307 63.08 93.7707 63.08C94.6507 63.08 95.3307 63.78 95.3307 64.86V73ZM100.733 69.68V70.76C100.733 72.32 99.9534 73.1 98.3534 73.1C96.7734 73.1 96.0334 72.34 96.0334 70.76V65.42C96.0334 63.84 96.7734 63.08 98.3734 63.08C99.9534 63.08 100.733 63.84 100.733 65.42V68.64H97.9134V70.8C97.9134 71.2 98.0734 71.4 98.3534 71.4C98.6534 71.4 98.8134 71.2 98.8134 70.8V69.68H100.733ZM98.8134 67.26V65.38C98.8134 64.96 98.6734 64.78 98.3734 64.78C98.0734 64.78 97.9134 64.96 97.9134 65.38V67.26H98.8134ZM106.184 73H104.224V65.26C104.224 64.94 104.084 64.76 103.824 64.76C103.584 64.76 103.424 64.9 103.344 65.2V73H101.404V63.16H103.224L103.264 64.02H103.344C103.664 63.34 104.124 63.08 104.684 63.08C105.564 63.08 106.184 63.74 106.184 64.86V73ZM111.613 73H109.853L109.833 72.16H109.753C109.473 72.8 109.053 73.1 108.433 73.1C107.473 73.1 106.873 72.4 106.873 71.32V64.84C106.873 63.76 107.493 63.08 108.413 63.08C108.933 63.08 109.333 63.28 109.613 63.8H109.693V59.56H111.613V73ZM108.833 65.36V70.82C108.833 71.22 108.993 71.42 109.293 71.42C109.553 71.42 109.693 71.26 109.733 70.96V65.2C109.693 64.9 109.553 64.76 109.293 64.76C108.993 64.76 108.833 64.96 108.833 65.36ZM115.023 71.08V68.08C114.883 68.16 114.723 68.2 114.523 68.26C114.223 68.34 114.103 68.56 114.103 68.88V70.96C114.103 71.26 114.263 71.42 114.563 71.42C114.843 71.42 114.963 71.3 115.023 71.08ZM116.943 73H115.143L115.103 72.28H115.023C114.843 72.6 114.563 73.1 113.643 73.1C112.523 73.1 112.203 72.4 112.203 71.48V69.24C112.203 67.96 112.703 67.48 114.003 67.14C114.703 66.96 115.003 66.88 115.003 66.44V65.14C115.003 64.88 114.863 64.74 114.583 64.74C114.283 64.74 114.123 64.9 114.123 65.2V66.36H112.323V64.96C112.323 63.68 113.223 63.08 114.723 63.08C116.183 63.08 116.943 63.64 116.943 64.84V73ZM120.395 70.76V67.52H122.055V70.76C122.055 72.34 121.535 73.1 119.955 73.1C118.355 73.1 117.615 72.34 117.615 70.76V60.5H119.535V63.16H122.055V64.9H119.535V70.76C119.535 71.16 119.675 71.36 119.975 71.36C120.255 71.36 120.395 71.16 120.395 70.76ZM124.673 73H122.733V63.16H124.673V73ZM124.673 62.14H122.733V60.36H124.673V62.14ZM130.049 65.42V70.76C130.049 72.36 129.289 73.1 127.709 73.1C126.109 73.1 125.369 72.36 125.369 70.76V65.42C125.369 63.82 126.109 63.08 127.709 63.08C129.289 63.08 130.049 63.82 130.049 65.42ZM128.149 70.76V65.42C128.149 65.02 127.989 64.82 127.709 64.82C127.429 64.82 127.249 65.02 127.249 65.42V70.76C127.249 71.16 127.429 71.36 127.709 71.36C127.989 71.36 128.149 71.16 128.149 70.76ZM135.501 73H133.541V65.26C133.541 64.94 133.401 64.76 133.141 64.76C132.901 64.76 132.741 64.9 132.661 65.2V73H130.721V63.16H132.541L132.581 64.02H132.661C132.981 63.34 133.441 63.08 134.001 63.08C134.881 63.08 135.501 63.74 135.501 64.86V73ZM137.39 75.86H136.03C136.61 72.96 136.89 69.96 136.89 67.02C136.89 64.08 136.59 61.16 136.03 58.44H137.39C138.23 60.9 138.61 63.96 138.61 66.98C138.61 70.16 138.19 73.36 137.39 75.86Z" fill="black"/>
<path d="M23.5156 98.1016H23.9668V104.65C23.9668 106.66 22.4355 108.164 20.3574 108.164C18.2793 108.164 16.748 106.66 16.748 104.65V98.1016H17.1992V104.637C17.1992 106.414 18.5254 107.713 20.3574 107.713C22.1895 107.713 23.5156 106.414 23.5156 104.637V98.1016ZM26.4277 110.789V100.576H26.8652V102.354H26.9199C27.3027 101.26 28.1504 100.467 29.3809 100.467C31.1582 100.467 32.293 102.094 32.293 104.309C32.293 106.523 31.1445 108.15 29.3809 108.15C28.1641 108.15 27.2891 107.371 26.9199 106.25H26.8789V110.789H26.4277ZM26.8789 104.309C26.8789 106.264 27.8223 107.727 29.3535 107.727C30.8984 107.727 31.8418 106.25 31.8418 104.309C31.8418 102.367 30.9121 100.891 29.3535 100.891C27.8086 100.891 26.8789 102.354 26.8789 104.309ZM39.7168 100.576V100.986H38.1582V106.346C38.1582 107.221 38.7871 107.699 39.4844 107.699L39.9355 107.686V108.109C39.8398 108.123 39.7168 108.123 39.4707 108.123C38.541 108.123 37.7207 107.48 37.7207 106.387V100.986H36.627V100.576H37.7207V98.7988H38.1582V100.576H39.7168ZM44.3379 108.15C42.5469 108.15 41.2207 106.523 41.2207 104.309C41.2207 102.094 42.5469 100.467 44.3379 100.467C46.1289 100.467 47.4688 102.107 47.4688 104.309C47.4688 106.523 46.1289 108.15 44.3379 108.15ZM44.3379 107.727C45.9102 107.727 47.0176 106.236 47.0176 104.309C47.0176 102.381 45.8965 100.891 44.3379 100.891C42.7793 100.891 41.6582 102.381 41.6582 104.309C41.6582 106.236 42.7793 107.727 44.3379 107.727ZM54.8789 100.576V100.986H53.3203V106.346C53.3203 107.221 53.9492 107.699 54.6465 107.699L55.0977 107.686V108.109C55.002 108.123 54.8789 108.123 54.6328 108.123C53.7031 108.123 52.8828 107.48 52.8828 106.387V100.986H51.7891V100.576H52.8828V98.7988H53.3203V100.576H54.8789ZM58.4883 108L56.2871 100.576H56.752L58.748 107.371H58.7891L60.7988 100.576H61.25L63.2598 107.357H63.3008L65.2969 100.576H65.7617L63.5469 108H63.0137L61.0449 101.342H61.0039L59.0352 108H58.4883ZM69.8359 108.15C68.0449 108.15 66.7188 106.523 66.7188 104.309C66.7188 102.094 68.0449 100.467 69.8359 100.467C71.627 100.467 72.9668 102.107 72.9668 104.309C72.9668 106.523 71.627 108.15 69.8359 108.15ZM69.8359 107.727C71.4082 107.727 72.5156 106.236 72.5156 104.309C72.5156 102.381 71.3945 100.891 69.8359 100.891C68.2773 100.891 67.1562 102.381 67.1562 104.309C67.1562 106.236 68.2773 107.727 69.8359 107.727ZM77.9023 110.789V100.576H78.3398V102.354H78.3945C78.7773 101.26 79.625 100.467 80.8555 100.467C82.6328 100.467 83.7676 102.094 83.7676 104.309C83.7676 106.523 82.6191 108.15 80.8555 108.15C79.6387 108.15 78.7637 107.371 78.3945 106.25H78.3535V110.789H77.9023ZM78.3535 104.309C78.3535 106.264 79.2969 107.727 80.8281 107.727C82.373 107.727 83.3164 106.25 83.3164 104.309C83.3164 102.367 82.3867 100.891 80.8281 100.891C79.2832 100.891 78.3535 102.354 78.3535 104.309ZM88.4297 108.15C86.4473 108.15 85.1621 106.51 85.1621 104.309C85.1621 102.107 86.4883 100.467 88.2793 100.467C89.9746 100.467 91.3418 101.957 91.3418 104.008V104.35H85.5996C85.6133 106.229 86.6523 107.727 88.4297 107.727C89.7148 107.727 90.4121 106.92 90.6582 106.441H91.1367C90.8359 107.248 89.8926 108.15 88.4297 108.15ZM85.6133 103.926H90.8906C90.8906 102.23 89.7422 100.891 88.2793 100.891C86.8438 100.891 85.7021 102.189 85.6133 103.926ZM95.8535 108.15C94.0625 108.15 92.7363 106.523 92.7363 104.309C92.7363 102.094 94.0625 100.467 95.8535 100.467C97.6445 100.467 98.9844 102.107 98.9844 104.309C98.9844 106.523 97.6445 108.15 95.8535 108.15ZM95.8535 107.727C97.4258 107.727 98.5332 106.236 98.5332 104.309C98.5332 102.381 97.4121 100.891 95.8535 100.891C94.2949 100.891 93.1738 102.381 93.1738 104.309C93.1738 106.236 94.2949 107.727 95.8535 107.727ZM100.789 110.789V100.576H101.227V102.354H101.281C101.664 101.26 102.512 100.467 103.742 100.467C105.52 100.467 106.654 102.094 106.654 104.309C106.654 106.523 105.506 108.15 103.742 108.15C102.525 108.15 101.65 107.371 101.281 106.25H101.24V110.789H100.789ZM101.24 104.309C101.24 106.264 102.184 107.727 103.715 107.727C105.26 107.727 106.203 106.25 106.203 104.309C106.203 102.367 105.273 100.891 103.715 100.891C102.17 100.891 101.24 102.354 101.24 104.309ZM108.924 98.1016V108H108.473V98.1016H108.924ZM114.01 108.15C112.027 108.15 110.742 106.51 110.742 104.309C110.742 102.107 112.068 100.467 113.859 100.467C115.555 100.467 116.922 101.957 116.922 104.008V104.35H111.18C111.193 106.229 112.232 107.727 114.01 107.727C115.295 107.727 115.992 106.92 116.238 106.441H116.717C116.416 107.248 115.473 108.15 114.01 108.15ZM111.193 103.926H116.471C116.471 102.23 115.322 100.891 113.859 100.891C112.424 100.891 111.282 102.189 111.193 103.926ZM124.605 108.15C122.746 108.15 121.447 106.51 121.447 104.309C121.447 102.121 122.76 100.467 124.592 100.467C125.959 100.467 127.08 101.396 127.299 102.75H126.834C126.643 101.656 125.74 100.891 124.605 100.891C123.047 100.891 121.885 102.326 121.885 104.309C121.885 106.236 122.992 107.727 124.605 107.727C125.74 107.727 126.67 106.988 126.848 105.826H127.312C127.094 107.221 126 108.15 124.605 108.15ZM128.721 105.977C128.721 104.855 129.404 103.926 131.359 103.762C131.899 103.714 133.137 103.625 133.52 103.598V102.709C133.52 101.602 132.727 100.877 131.482 100.877C130.43 100.877 129.568 101.369 129.377 102.23H128.912C129.09 101.123 130.17 100.467 131.482 100.467C132.891 100.467 133.957 101.301 133.957 102.736V108H133.52V106.564H133.479C133.055 107.494 132.18 108.164 131.031 108.164C129.787 108.164 128.721 107.371 128.721 105.977ZM129.172 105.977C129.172 107.057 129.992 107.74 131.059 107.74C132.453 107.74 133.52 106.564 133.52 104.91V103.994C133.144 104.028 131.906 104.138 131.482 104.158C129.705 104.295 129.172 105.061 129.172 105.977ZM136.691 103.092V108H136.24V100.576H136.678V101.752H136.732C137.074 100.986 137.908 100.48 138.947 100.48C140.438 100.48 141.477 101.506 141.477 103.051V108H141.025V103.064C141.025 101.779 140.164 100.904 138.893 100.904C137.607 100.904 136.691 101.793 136.691 103.092ZM146.453 105.977C146.453 104.855 147.137 103.926 149.092 103.762C149.632 103.714 150.869 103.625 151.252 103.598V102.709C151.252 101.602 150.459 100.877 149.215 100.877C148.162 100.877 147.301 101.369 147.109 102.23H146.645C146.822 101.123 147.902 100.467 149.215 100.467C150.623 100.467 151.689 101.301 151.689 102.736V108H151.252V106.564H151.211C150.787 107.494 149.912 108.164 148.764 108.164C147.52 108.164 146.453 107.371 146.453 105.977ZM146.904 105.977C146.904 107.057 147.725 107.74 148.791 107.74C150.186 107.74 151.252 106.564 151.252 104.91V103.994C150.876 104.028 149.639 104.138 149.215 104.158C147.438 104.295 146.904 105.061 146.904 105.977ZM153.973 110.789V100.576H154.41V102.354H154.465C154.848 101.26 155.695 100.467 156.926 100.467C158.703 100.467 159.838 102.094 159.838 104.309C159.838 106.523 158.689 108.15 156.926 108.15C155.709 108.15 154.834 107.371 154.465 106.25H154.424V110.789H153.973ZM154.424 104.309C154.424 106.264 155.367 107.727 156.898 107.727C158.443 107.727 159.387 106.25 159.387 104.309C159.387 102.367 158.457 100.891 156.898 100.891C155.354 100.891 154.424 102.354 154.424 104.309ZM161.656 110.789V100.576H162.094V102.354H162.148C162.531 101.26 163.379 100.467 164.609 100.467C166.387 100.467 167.521 102.094 167.521 104.309C167.521 106.523 166.373 108.15 164.609 108.15C163.393 108.15 162.518 107.371 162.148 106.25H162.107V110.789H161.656ZM162.107 104.309C162.107 106.264 163.051 107.727 164.582 107.727C166.127 107.727 167.07 106.25 167.07 104.309C167.07 102.367 166.141 100.891 164.582 100.891C163.037 100.891 162.107 102.354 162.107 104.309ZM169.791 98.1016V108H169.34V98.1016H169.791ZM172.279 110.789C172.197 110.789 172.115 110.789 172.061 110.775V110.352C172.102 110.352 172.184 110.365 172.266 110.365C172.758 110.365 173.373 110.229 173.77 109.148L174.139 108.123L171.432 100.576H171.896L174.344 107.439H174.385L176.818 100.576H177.297L174.166 109.312C173.824 110.283 173.223 110.789 172.279 110.789ZM179.252 107.33L178.377 110.516H178.008L178.787 107.33H179.252ZM19.7354 123H19.2568L22.7979 113.102H23.3584L26.9131 123H26.4346L25.2725 119.746H20.8975L19.7354 123ZM21.0479 119.309H25.1221L23.1123 113.676H23.0576L21.0479 119.309ZM30.3311 115.576V115.986H28.7725V121.346C28.7725 122.221 29.4014 122.699 30.0986 122.699L30.5498 122.686V123.109C30.4541 123.123 30.3311 123.123 30.085 123.123C29.1553 123.123 28.335 122.48 28.335 121.387V115.986H27.2412V115.576H28.335V113.799H28.7725V115.576H30.3311ZM34.8154 115.576V115.986H33.2568V121.346C33.2568 122.221 33.8857 122.699 34.583 122.699L35.0342 122.686V123.109C34.9385 123.123 34.8154 123.123 34.5693 123.123C33.6396 123.123 32.8193 122.48 32.8193 121.387V115.986H31.7256V115.576H32.8193V113.799H33.2568V115.576H34.8154ZM39.5869 123.15C37.6045 123.15 36.3193 121.51 36.3193 119.309C36.3193 117.107 37.6455 115.467 39.4365 115.467C41.1318 115.467 42.499 116.957 42.499 119.008V119.35H36.7568C36.7705 121.229 37.8096 122.727 39.5869 122.727C40.8721 122.727 41.5693 121.92 41.8154 121.441H42.2939C41.9932 122.248 41.0498 123.15 39.5869 123.15ZM36.7705 118.926H42.0479C42.0479 117.23 40.8994 115.891 39.4365 115.891C38.001 115.891 36.8594 117.189 36.7705 118.926ZM44.7686 118.092V123H44.3174V115.576H44.7549V116.752H44.8096C45.1514 115.986 45.9854 115.48 47.0244 115.48C48.5146 115.48 49.5537 116.506 49.5537 118.051V123H49.1025V118.064C49.1025 116.779 48.2412 115.904 46.9697 115.904C45.6846 115.904 44.7686 116.793 44.7686 118.092ZM54.2705 115.576V115.986H52.7119V121.346C52.7119 122.221 53.3408 122.699 54.0381 122.699L54.4893 122.686V123.109C54.3936 123.123 54.2705 123.123 54.0244 123.123C53.0947 123.123 52.2744 122.48 52.2744 121.387V115.986H51.1807V115.576H52.2744V113.799H52.7119V115.576H54.2705ZM56.3213 123V115.576H56.7588V123H56.3213ZM56.54 114.236C56.335 114.236 56.1572 114.072 56.1572 113.854C56.1572 113.648 56.335 113.471 56.54 113.471C56.7588 113.471 56.9365 113.648 56.9365 113.854C56.9365 114.072 56.7588 114.236 56.54 114.236ZM61.7354 123.15C59.9443 123.15 58.6182 121.523 58.6182 119.309C58.6182 117.094 59.9443 115.467 61.7354 115.467C63.5264 115.467 64.8662 117.107 64.8662 119.309C64.8662 121.523 63.5264 123.15 61.7354 123.15ZM61.7354 122.727C63.3076 122.727 64.415 121.236 64.415 119.309C64.415 117.381 63.2939 115.891 61.7354 115.891C60.1768 115.891 59.0557 117.381 59.0557 119.309C59.0557 121.236 60.1768 122.727 61.7354 122.727ZM67.1221 118.092V123H66.6709V115.576H67.1084V116.752H67.1631C67.5049 115.986 68.3389 115.48 69.3779 115.48C70.8682 115.48 71.9072 116.506 71.9072 118.051V123H71.4561V118.064C71.4561 116.779 70.5947 115.904 69.3232 115.904C68.0381 115.904 67.1221 116.793 67.1221 118.092ZM74.915 113.102L74.9014 120.088H74.4639L74.4502 113.102H74.915ZM74.6826 123.055C74.4502 123.055 74.2451 122.863 74.2451 122.631C74.2451 122.398 74.4502 122.193 74.6826 122.193C74.915 122.193 75.1064 122.398 75.1064 122.631C75.1064 122.863 74.915 123.055 74.6826 123.055ZM87.3564 117.832V118.256H83.5693V117.832H87.3564ZM92.2236 113.102L95.5459 122.426H95.6006L98.9229 113.102H99.4014L95.8467 123H95.2861L91.7451 113.102H92.2236ZM107.577 117.832V118.256H103.79V117.832H107.577ZM113.019 123V113.102H118.446V113.525H113.47V117.832H117.981V118.27H113.47V123H113.019ZM120.935 113.102V123H120.483V113.102H120.935ZM125.87 123.15C124.079 123.15 122.753 121.523 122.753 119.309C122.753 117.094 124.079 115.467 125.87 115.467C127.661 115.467 129.001 117.107 129.001 119.309C129.001 121.523 127.661 123.15 125.87 123.15ZM125.87 122.727C127.442 122.727 128.55 121.236 128.55 119.309C128.55 117.381 127.429 115.891 125.87 115.891C124.312 115.891 123.19 117.381 123.19 119.309C123.19 121.236 124.312 122.727 125.87 122.727ZM132.146 123L129.944 115.576H130.409L132.405 122.371H132.446L134.456 115.576H134.907L136.917 122.357H136.958L138.954 115.576H139.419L137.204 123H136.671L134.702 116.342H134.661L132.692 123H132.146ZM143.644 123.15C141.661 123.15 140.376 121.51 140.376 119.309C140.376 117.107 141.702 115.467 143.493 115.467C145.188 115.467 146.556 116.957 146.556 119.008V119.35H140.813C140.827 121.229 141.866 122.727 143.644 122.727C144.929 122.727 145.626 121.92 145.872 121.441H146.351C146.05 122.248 145.106 123.15 143.644 123.15ZM140.827 118.926H146.104C146.104 117.23 144.956 115.891 143.493 115.891C142.058 115.891 140.916 117.189 140.827 118.926ZM148.374 123V115.576H148.812V116.752H148.866C149.194 115.973 150.042 115.48 151.04 115.48H151.259V115.918H151.026C149.741 115.918 148.825 116.807 148.825 118.064V123H148.374ZM158.478 123.15C156.618 123.15 155.319 121.51 155.319 119.309C155.319 117.121 156.632 115.467 158.464 115.467C159.831 115.467 160.952 116.396 161.171 117.75H160.706C160.515 116.656 159.612 115.891 158.478 115.891C156.919 115.891 155.757 117.326 155.757 119.309C155.757 121.236 156.864 122.727 158.478 122.727C159.612 122.727 160.542 121.988 160.72 120.826H161.185C160.966 122.221 159.872 123.15 158.478 123.15ZM167.774 120.471V115.576H168.212V123H167.774V121.811H167.733C167.378 122.576 166.544 123.096 165.505 123.096C164.028 123.096 162.989 122.07 162.989 120.525V115.576H163.44V120.512C163.44 121.783 164.315 122.658 165.573 122.658C166.804 122.658 167.774 121.783 167.774 120.471ZM170.468 125.789V115.576H170.905V117.354H170.96C171.343 116.26 172.19 115.467 173.421 115.467C175.198 115.467 176.333 117.094 176.333 119.309C176.333 121.523 175.185 123.15 173.421 123.15C172.204 123.15 171.329 122.371 170.96 121.25H170.919V125.789H170.468ZM170.919 119.309C170.919 121.264 171.862 122.727 173.394 122.727C174.938 122.727 175.882 121.25 175.882 119.309C175.882 117.367 174.952 115.891 173.394 115.891C171.849 115.891 170.919 117.354 170.919 119.309ZM37.4541 133.543V133.967H33.667V133.543H37.4541ZM45.4111 138.15C43.5518 138.15 42.2529 136.51 42.2529 134.309C42.2529 132.121 43.5654 130.467 45.3975 130.467C46.7646 130.467 47.8857 131.396 48.1045 132.75H47.6396C47.4482 131.656 46.5459 130.891 45.4111 130.891C43.8525 130.891 42.6904 132.326 42.6904 134.309C42.6904 136.236 43.7979 137.727 45.4111 137.727C46.5459 137.727 47.4756 136.988 47.6533 135.826H48.1182C47.8994 137.221 46.8057 138.15 45.4111 138.15ZM50.374 133.092V138H49.9229V128.102H50.374V131.752H50.415C50.7705 130.973 51.5908 130.48 52.6436 130.48C54.1338 130.48 55.1729 131.506 55.1729 133.051V138H54.7217V133.064C54.7217 131.779 53.8604 130.904 52.5889 130.904C51.3037 130.904 50.374 131.793 50.374 133.092ZM60.2588 138.15C58.2764 138.15 56.9912 136.51 56.9912 134.309C56.9912 132.107 58.3174 130.467 60.1084 130.467C61.8037 130.467 63.1709 131.957 63.1709 134.008V134.35H57.4287C57.4424 136.229 58.4814 137.727 60.2588 137.727C61.5439 137.727 62.2412 136.92 62.4873 136.441H62.9658C62.665 137.248 61.7217 138.15 60.2588 138.15ZM57.4424 133.926H62.7197C62.7197 132.23 61.5713 130.891 60.1084 130.891C58.6729 130.891 57.5312 132.189 57.4424 133.926ZM67.833 138.15C65.8506 138.15 64.5654 136.51 64.5654 134.309C64.5654 132.107 65.8916 130.467 67.6826 130.467C69.3779 130.467 70.7451 131.957 70.7451 134.008V134.35H65.0029C65.0166 136.229 66.0557 137.727 67.833 137.727C69.1182 137.727 69.8154 136.92 70.0615 136.441H70.54C70.2393 137.248 69.2959 138.15 67.833 138.15ZM65.0166 133.926H70.2939C70.2939 132.23 69.1455 130.891 67.6826 130.891C66.2471 130.891 65.1055 132.189 65.0166 133.926ZM72.5635 138V128.102H73.0146V134.35H73.0693L76.8975 130.576H77.499L74.2725 133.775L77.6357 138H77.0615L73.9443 134.062L73.0146 134.965V138H72.5635ZM82.6123 133.092V138H82.1611V128.102H82.6123V131.752H82.6533C83.0088 130.973 83.8291 130.48 84.8818 130.48C86.3721 130.48 87.4111 131.506 87.4111 133.051V138H86.96V133.064C86.96 131.779 86.0986 130.904 84.8271 130.904C83.542 130.904 82.6123 131.793 82.6123 133.092ZM92.4971 138.15C90.5146 138.15 89.2295 136.51 89.2295 134.309C89.2295 132.107 90.5557 130.467 92.3467 130.467C94.042 130.467 95.4092 131.957 95.4092 134.008V134.35H89.667C89.6807 136.229 90.7197 137.727 92.4971 137.727C93.7822 137.727 94.4795 136.92 94.7256 136.441H95.2041C94.9033 137.248 93.96 138.15 92.4971 138.15ZM89.6807 133.926H94.958C94.958 132.23 93.8096 130.891 92.3467 130.891C90.9111 130.891 89.7695 132.189 89.6807 133.926ZM96.8311 135.977C96.8311 134.855 97.5146 133.926 99.4697 133.762C100.01 133.714 101.247 133.625 101.63 133.598V132.709C101.63 131.602 100.837 130.877 99.5928 130.877C98.54 130.877 97.6787 131.369 97.4873 132.23H97.0225C97.2002 131.123 98.2803 130.467 99.5928 130.467C101.001 130.467 102.067 131.301 102.067 132.736V138H101.63V136.564H101.589C101.165 137.494 100.29 138.164 99.1416 138.164C97.8975 138.164 96.8311 137.371 96.8311 135.977ZM97.2822 135.977C97.2822 137.057 98.1025 137.74 99.1689 137.74C100.563 137.74 101.63 136.564 101.63 134.91V133.994C101.254 134.028 100.017 134.138 99.5928 134.158C97.8154 134.295 97.2822 135.061 97.2822 135.977ZM104.351 138V130.576H104.788V131.752H104.843C105.171 130.973 106.019 130.48 107.017 130.48H107.235V130.918H107.003C105.718 130.918 104.802 131.807 104.802 133.064V138H104.351ZM111.528 130.576V130.986H109.97V136.346C109.97 137.221 110.599 137.699 111.296 137.699L111.747 137.686V138.109C111.651 138.123 111.528 138.123 111.282 138.123C110.353 138.123 109.532 137.48 109.532 136.387V130.986H108.438V130.576H109.532V128.799H109.97V130.576H111.528ZM116.847 134.227C116.86 131.793 117.448 129.564 118.501 127.678H118.952C117.913 129.51 117.298 131.834 117.298 134.227C117.298 136.646 117.927 138.957 118.952 140.789H118.501C117.448 138.889 116.86 136.646 116.847 134.227ZM122.192 127.281V128.73H129.192V127.281H129.63V131.15H125.87V132.695H131.079V133.092H120.251V132.695H125.446V131.15H121.755V127.281H122.192ZM122.192 130.727H129.192V129.141H122.192V130.727ZM129.616 134.445V136.715H122.11V138.383H130.026V138.793H121.687V136.318H129.192V134.842H121.646V134.445H129.616ZM141.388 127.09V132.23H143.589V132.627H141.388V138.984H140.95V127.09H141.388ZM139.446 129.127V129.551H132.282V129.127H135.7V127.186H136.138V129.127H139.446ZM135.96 130.836C137.587 130.85 138.735 131.93 138.735 133.475C138.735 135.033 137.587 136.1 135.96 136.086C134.319 136.1 133.157 135.033 133.171 133.475C133.157 131.93 134.319 130.85 135.96 130.836ZM135.96 131.246C134.579 131.26 133.567 132.23 133.581 133.475C133.567 134.705 134.579 135.676 135.96 135.676C137.313 135.676 138.312 134.705 138.325 133.475C138.312 132.23 137.313 131.26 135.96 131.246ZM154.007 133.789V134.199H145.981V128.279H153.856V128.676H146.419V130.945H153.61V131.355H146.419V133.789H154.007ZM155.333 136.852V137.262H144.45V136.852H155.333ZM158.751 134.227C158.737 136.646 158.149 138.889 157.097 140.789H156.646C157.671 138.957 158.3 136.646 158.3 134.227C158.3 131.834 157.685 129.51 156.646 127.678H157.097C158.149 129.564 158.737 131.793 158.751 134.227ZM161.95 137.33L161.075 140.516H160.706L161.485 137.33H161.95ZM27.5693 153.15C25.7783 153.15 24.4521 151.523 24.4521 149.309C24.4521 147.094 25.7783 145.467 27.5693 145.467C29.3604 145.467 30.7002 147.107 30.7002 149.309C30.7002 151.523 29.3604 153.15 27.5693 153.15ZM27.5693 152.727C29.1416 152.727 30.249 151.236 30.249 149.309C30.249 147.381 29.1279 145.891 27.5693 145.891C26.0107 145.891 24.8896 147.381 24.8896 149.309C24.8896 151.236 26.0107 152.727 27.5693 152.727ZM32.9561 148.092V153H32.5049V145.576H32.9424V146.752H32.9971C33.3389 145.986 34.1729 145.48 35.2119 145.48C36.7021 145.48 37.7412 146.506 37.7412 148.051V153H37.29V148.064C37.29 146.779 36.4287 145.904 35.1572 145.904C33.8721 145.904 32.9561 146.793 32.9561 148.092ZM40.4346 143.102V153H39.9834V143.102H40.4346ZM42.9229 155.789C42.8408 155.789 42.7588 155.789 42.7041 155.775V155.352C42.7451 155.352 42.8271 155.365 42.9092 155.365C43.4014 155.365 44.0166 155.229 44.4131 154.148L44.7822 153.123L42.0752 145.576H42.54L44.9873 152.439H45.0283L47.4619 145.576H47.9404L44.8096 154.312C44.4678 155.283 43.8662 155.789 42.9229 155.789ZM54.3115 153L52.1104 145.576H52.5752L54.5713 152.371H54.6123L56.6221 145.576H57.0732L59.083 152.357H59.124L61.1201 145.576H61.585L59.3701 153H58.8369L56.8682 146.342H56.8271L54.8584 153H54.3115ZM63.6768 148.092V153H63.2256V143.102H63.6768V146.752H63.7178C64.0732 145.973 64.8936 145.48 65.9463 145.48C67.4365 145.48 68.4756 146.506 68.4756 148.051V153H68.0244V148.064C68.0244 146.779 67.1631 145.904 65.8916 145.904C64.6064 145.904 63.6768 146.793 63.6768 148.092ZM73.5615 153.15C71.5791 153.15 70.2939 151.51 70.2939 149.309C70.2939 147.107 71.6201 145.467 73.4111 145.467C75.1064 145.467 76.4736 146.957 76.4736 149.008V149.35H70.7314C70.7451 151.229 71.7842 152.727 73.5615 152.727C74.8467 152.727 75.5439 151.92 75.79 151.441H76.2686C75.9678 152.248 75.0244 153.15 73.5615 153.15ZM70.7451 148.926H76.0225C76.0225 147.23 74.874 145.891 73.4111 145.891C71.9756 145.891 70.834 147.189 70.7451 148.926ZM78.7432 148.092V153H78.292V145.576H78.7295V146.752H78.7842C79.126 145.986 79.96 145.48 80.999 145.48C82.4893 145.48 83.5283 146.506 83.5283 148.051V153H83.0771V148.064C83.0771 146.779 82.2158 145.904 80.9443 145.904C79.6592 145.904 78.7432 146.793 78.7432 148.092ZM91.376 145.576V145.986H89.8174V151.346C89.8174 152.221 90.4463 152.699 91.1436 152.699L91.5947 152.686V153.109C91.499 153.123 91.376 153.123 91.1299 153.123C90.2002 153.123 89.3799 152.48 89.3799 151.387V145.986H88.2861V145.576H89.3799V143.799H89.8174V145.576H91.376ZM94.001 148.092V153H93.5498V143.102H94.001V146.752H94.042C94.3975 145.973 95.2178 145.48 96.2705 145.48C97.7607 145.48 98.7998 146.506 98.7998 148.051V153H98.3486V148.064C98.3486 146.779 97.4873 145.904 96.2158 145.904C94.9307 145.904 94.001 146.793 94.001 148.092ZM103.886 153.15C101.903 153.15 100.618 151.51 100.618 149.309C100.618 147.107 101.944 145.467 103.735 145.467C105.431 145.467 106.798 146.957 106.798 149.008V149.35H101.056C101.069 151.229 102.108 152.727 103.886 152.727C105.171 152.727 105.868 151.92 106.114 151.441H106.593C106.292 152.248 105.349 153.15 103.886 153.15ZM101.069 148.926H106.347C106.347 147.23 105.198 145.891 103.735 145.891C102.3 145.891 101.158 147.189 101.069 148.926ZM116.532 150.471V145.576H116.97V153H116.532V151.811H116.491C116.136 152.576 115.302 153.096 114.263 153.096C112.786 153.096 111.747 152.07 111.747 150.525V145.576H112.198V150.512C112.198 151.783 113.073 152.658 114.331 152.658C115.562 152.658 116.532 151.783 116.532 150.471ZM123.354 147.23C123.177 146.396 122.479 145.891 121.468 145.877C120.333 145.877 119.54 146.52 119.54 147.436C119.54 148.16 120.032 148.68 121.017 148.926L122.165 149.213C123.3 149.486 123.874 150.17 123.874 151.1C123.874 152.303 122.876 153.15 121.331 153.15C119.923 153.15 119.007 152.453 118.815 151.223H119.28C119.458 152.207 120.183 152.74 121.331 152.74C122.589 152.74 123.423 152.098 123.423 151.113C123.423 150.389 122.972 149.855 122.028 149.637L120.88 149.35C119.704 149.062 119.103 148.393 119.103 147.449C119.103 146.273 120.073 145.453 121.468 145.467C122.767 145.467 123.614 146.191 123.806 147.23H123.354ZM128.55 153.15C126.567 153.15 125.282 151.51 125.282 149.309C125.282 147.107 126.608 145.467 128.399 145.467C130.095 145.467 131.462 146.957 131.462 149.008V149.35H125.72C125.733 151.229 126.772 152.727 128.55 152.727C129.835 152.727 130.532 151.92 130.778 151.441H131.257C130.956 152.248 130.013 153.15 128.55 153.15ZM125.733 148.926H131.011C131.011 147.23 129.862 145.891 128.399 145.891C126.964 145.891 125.822 147.189 125.733 148.926ZM133.28 153V145.576H133.718V146.752H133.772C134.101 145.973 134.948 145.48 135.946 145.48H136.165V145.918H135.933C134.647 145.918 133.731 146.807 133.731 148.064V153H133.28ZM140.649 155.789V145.576H141.087V147.354H141.142C141.524 146.26 142.372 145.467 143.603 145.467C145.38 145.467 146.515 147.094 146.515 149.309C146.515 151.523 145.366 153.15 143.603 153.15C142.386 153.15 141.511 152.371 141.142 151.25H141.101V155.789H140.649ZM141.101 149.309C141.101 151.264 142.044 152.727 143.575 152.727C145.12 152.727 146.063 151.25 146.063 149.309C146.063 147.367 145.134 145.891 143.575 145.891C142.03 145.891 141.101 147.354 141.101 149.309ZM151.026 153.15C149.235 153.15 147.909 151.523 147.909 149.309C147.909 147.094 149.235 145.467 151.026 145.467C152.817 145.467 154.157 147.107 154.157 149.309C154.157 151.523 152.817 153.15 151.026 153.15ZM151.026 152.727C152.599 152.727 153.706 151.236 153.706 149.309C153.706 147.381 152.585 145.891 151.026 145.891C149.468 145.891 148.347 147.381 148.347 149.309C148.347 151.236 149.468 152.727 151.026 152.727ZM160.091 147.23C159.913 146.396 159.216 145.891 158.204 145.877C157.069 145.877 156.276 146.52 156.276 147.436C156.276 148.16 156.769 148.68 157.753 148.926L158.901 149.213C160.036 149.486 160.61 150.17 160.61 151.1C160.61 152.303 159.612 153.15 158.067 153.15C156.659 153.15 155.743 152.453 155.552 151.223H156.017C156.194 152.207 156.919 152.74 158.067 152.74C159.325 152.74 160.159 152.098 160.159 151.113C160.159 150.389 159.708 149.855 158.765 149.637L157.616 149.35C156.44 149.062 155.839 148.393 155.839 147.449C155.839 146.273 156.81 145.453 158.204 145.467C159.503 145.467 160.351 146.191 160.542 147.23H160.091ZM165.286 153.15C163.304 153.15 162.019 151.51 162.019 149.309C162.019 147.107 163.345 145.467 165.136 145.467C166.831 145.467 168.198 146.957 168.198 149.008V149.35H162.456C162.47 151.229 163.509 152.727 165.286 152.727C166.571 152.727 167.269 151.92 167.515 151.441H167.993C167.692 152.248 166.749 153.15 165.286 153.15ZM162.47 148.926H167.747C167.747 147.23 166.599 145.891 165.136 145.891C163.7 145.891 162.559 147.189 162.47 148.926ZM174.146 147.23C173.968 146.396 173.271 145.891 172.259 145.877C171.124 145.877 170.331 146.52 170.331 147.436C170.331 148.16 170.823 148.68 171.808 148.926L172.956 149.213C174.091 149.486 174.665 150.17 174.665 151.1C174.665 152.303 173.667 153.15 172.122 153.15C170.714 153.15 169.798 152.453 169.606 151.223H170.071C170.249 152.207 170.974 152.74 172.122 152.74C173.38 152.74 174.214 152.098 174.214 151.113C174.214 150.389 173.763 149.855 172.819 149.637L171.671 149.35C170.495 149.062 169.894 148.393 169.894 147.449C169.894 146.273 170.864 145.453 172.259 145.467C173.558 145.467 174.405 146.191 174.597 147.23H174.146Z" fill="#1A1A1A"/>
</svg>
