<svg width="232" height="41" viewBox="0 0 232 41" fill="none" xmlns="http://www.w3.org/2000/svg">
<g filter="url(#filter0_d_2056_95)">
<rect x="4" width="224" height="33" rx="7" fill="url(#paint0_linear_2056_95)"/>
</g>
<path d="M58.4548 13.768H56.1748V11.92C56.1748 11.464 55.9588 11.224 55.5748 11.224C55.1668 11.224 54.9748 11.488 54.9748 11.848V13.24C54.9748 14.128 55.0468 14.368 55.4788 14.848C56.3188 15.808 57.3988 16.552 57.9988 17.344C58.4548 17.968 58.6708 18.592 58.6708 19.888V22.024C58.6708 24.04 57.7348 25.12 55.5748 25.12C53.4388 25.12 52.5028 24.064 52.5028 22V20.224H54.8068V22.192C54.8068 22.624 55.0468 22.888 55.4788 22.888C55.9108 22.888 56.1028 22.624 56.1028 22.192V20.44C56.1028 19.264 55.9348 18.976 55.4548 18.448C54.6868 17.608 53.7748 16.888 53.2228 15.928C52.7908 15.184 52.5748 14.44 52.5748 13.12V11.776C52.5748 9.976 53.6068 8.968 55.5268 8.968C57.6868 8.968 58.4548 10.24 58.4548 12.208V13.768ZM63.1213 25H60.6973V11.248H58.9933V9.064H64.8493V11.248H63.1213V25ZM70.7445 25H68.3205L68.0565 21.376H66.8325L66.5925 25H64.2165L65.7765 9.064H69.1845L70.7445 25ZM67.4085 13.12L66.9765 19.288H67.9125L67.5045 13.12H67.4085ZM73.6077 25H71.2077V9.064H74.6877C76.4157 9.064 77.0397 10 77.0397 11.584V15.16C77.0397 16.216 76.5357 16.936 75.7437 17.08V17.176C76.5357 17.296 77.0877 17.776 77.0877 19.096V25H74.6877V18.88C74.6877 18.448 74.5197 18.208 74.1357 18.208H73.6077V25ZM74.6877 15.424V11.872C74.6877 11.44 74.4957 11.248 74.0877 11.248H73.6077V16.216H74.0877C74.4957 16.216 74.6877 15.928 74.6877 15.424ZM81.5901 25H79.1661V11.248H77.4621V9.064H83.3181V11.248H81.5901V25ZM92.3305 25H89.9065L89.6425 21.376H88.4185L88.1785 25H85.8025L87.3625 9.064H90.7705L92.3305 25ZM88.9945 13.12L88.5625 19.288H89.4985L89.0905 13.12H88.9945ZM95.2416 25H92.7936V9.064H95.2416V25ZM106.968 25H104.808V18.832C104.808 18.04 104.856 14.704 104.904 13.888H104.808L103.608 25H101.544L100.344 13.888H100.248C100.32 14.68 100.344 15.496 100.344 18.832V25H98.1842V9.064H101.856L102.576 19.12H102.672L103.416 9.064H106.968V25ZM113.555 12.208V22C113.555 24.088 112.499 25.12 110.627 25.12C108.707 25.12 107.651 23.992 107.651 21.976V12.16C107.651 10.144 108.731 8.968 110.603 8.968C112.475 8.968 113.555 10.168 113.555 12.208ZM111.155 22.168V11.944C111.155 11.464 110.963 11.224 110.603 11.224C110.243 11.224 110.075 11.464 110.075 11.944V22.168C110.075 22.648 110.243 22.888 110.603 22.888C110.963 22.888 111.155 22.648 111.155 22.168ZM117.311 25H114.239V9.064H117.311C119.207 9.064 120.143 10.024 120.143 11.944V21.976C120.143 24.088 119.159 25 117.311 25ZM116.639 22.816H117.143C117.503 22.816 117.695 22.36 117.695 21.448V12.496C117.695 11.656 117.455 11.248 116.975 11.248H116.639V22.816ZM125.551 25H120.895V9.064H125.407V11.248H123.295V15.544H125.143V17.752H123.295V22.816H125.551V25ZM130.827 25H126.075V9.064H128.523V22.768H130.827V25ZM137.582 25H135.158V11.248H133.454V9.064H139.31V11.248H137.582V25ZM142.28 25H139.88V9.064H143.36C145.088 9.064 145.712 10 145.712 11.584V15.16C145.712 16.216 145.208 16.936 144.416 17.08V17.176C145.208 17.296 145.76 17.776 145.76 19.096V25H143.36V18.88C143.36 18.448 143.192 18.208 142.808 18.208H142.28V25ZM143.36 15.424V11.872C143.36 11.44 143.168 11.248 142.76 11.248H142.28V16.216H142.76C143.168 16.216 143.36 15.928 143.36 15.424ZM152.659 25H150.235L149.971 21.376H148.747L148.507 25H146.131L147.691 9.064H151.099L152.659 25ZM149.323 13.12L148.891 19.288H149.827L149.419 13.12H149.323ZM155.57 25H153.122V9.064H155.57V25ZM162.645 25H159.789L158.397 13.936H158.301C158.373 15.136 158.397 16.552 158.397 19.888V25H156.309V9.064H159.549L160.533 19.312H160.629C160.581 17.8 160.533 16.336 160.533 12.616V9.064H162.645V25ZM165.812 25H163.364V9.064H165.812V25ZM172.887 25H170.031L168.639 13.936H168.543C168.615 15.136 168.639 16.552 168.639 19.888V25H166.551V9.064H169.791L170.775 19.312H170.871C170.823 17.8 170.775 16.336 170.775 12.616V9.064H172.887V25ZM179.39 25H177.83L177.734 24.376H177.638C177.422 24.736 177.086 25.12 176.174 25.12C174.566 25.12 173.606 23.968 173.606 21.976V12.16C173.606 10.144 174.614 8.968 176.486 8.968C178.382 8.968 179.39 10.168 179.39 12.208V13.984H177.11V11.944C177.11 11.464 176.918 11.224 176.558 11.224C176.198 11.224 176.03 11.464 176.03 11.944V22.168C176.03 22.648 176.198 22.888 176.558 22.888C176.918 22.888 177.11 22.648 177.11 22.168V18.952H176.414V16.792H179.39V25Z" fill="white"/>
<defs>
<filter id="filter0_d_2056_95" x="0" y="0" width="232" height="41" filterUnits="userSpaceOnUse" color-interpolation-filters="sRGB">
<feFlood flood-opacity="0" result="BackgroundImageFix"/>
<feColorMatrix in="SourceAlpha" type="matrix" values="0 0 0 0 0 0 0 0 0 0 0 0 0 0 0 0 0 0 127 0" result="hardAlpha"/>
<feOffset dy="4"/>
<feGaussianBlur stdDeviation="2"/>
<feComposite in2="hardAlpha" operator="out"/>
<feColorMatrix type="matrix" values="0 0 0 0 0 0 0 0 0 0 0 0 0 0 0 0 0 0 0.25 0"/>
<feBlend mode="normal" in2="BackgroundImageFix" result="effect1_dropShadow_2056_95"/>
<feBlend mode="normal" in="SourceGraphic" in2="effect1_dropShadow_2056_95" result="shape"/>
</filter>
<linearGradient id="paint0_linear_2056_95" x1="116" y1="33" x2="116" y2="0" gradientUnits="userSpaceOnUse">
<stop stop-color="#BD1414"/>
<stop offset="1" stop-color="#EF6868"/>
</linearGradient>
</defs>
</svg>
