<svg width="115" height="30" viewBox="0 0 115 30" fill="none" xmlns="http://www.w3.org/2000/svg">
<g filter="url(#filter0_d_2056_121)">
<rect x="4" width="107" height="22" rx="7" fill="url(#paint0_linear_2056_121)"/>
</g>
<path d="M43.7156 8.64H41.8156V7.1C41.8156 6.72 41.6356 6.52 41.3156 6.52C40.9756 6.52 40.8156 6.74 40.8156 7.04V8.2C40.8156 8.94 40.8756 9.14 41.2356 9.54C41.9356 10.34 42.8356 10.96 43.3356 11.62C43.7156 12.14 43.8956 12.66 43.8956 13.74V15.52C43.8956 17.2 43.1156 18.1 41.3156 18.1C39.5356 18.1 38.7556 17.22 38.7556 15.5V14.02H40.6756V15.66C40.6756 16.02 40.8756 16.24 41.2356 16.24C41.5956 16.24 41.7556 16.02 41.7556 15.66V14.2C41.7556 13.22 41.6156 12.98 41.2156 12.54C40.5756 11.84 39.8156 11.24 39.3556 10.44C38.9956 9.82 38.8156 9.2 38.8156 8.1V6.98C38.8156 5.48 39.6756 4.64 41.2756 4.64C43.0756 4.64 43.7156 5.7 43.7156 7.34V8.64ZM44.5002 8.16H46.4602V15.72C46.4602 16.24 46.5202 16.42 46.8802 16.42C47.2202 16.42 47.3002 16.24 47.3002 15.72V8.16H49.2602V18H47.4202L47.4002 17.16H47.3202C46.9602 17.86 46.6002 18.1 45.9802 18.1C44.6802 18.1 44.5002 17.08 44.5002 15.72V8.16ZM51.8894 18H49.9494V8.16H51.7694L51.8094 9.02H51.8894C52.1094 8.46 52.4694 8.08 53.1094 8.08C53.2694 8.08 53.4094 8.1 53.5494 8.16V9.9C53.3894 9.84 53.2494 9.82 53.0294 9.82C52.1894 9.82 51.8894 10.24 51.8894 11.04V18ZM56.8114 15.82V10.36C56.8114 9.96 56.6514 9.76 56.3514 9.76C56.0914 9.76 55.9514 9.9 55.9114 10.2V15.96C55.9514 16.26 56.0914 16.42 56.3514 16.42C56.6514 16.42 56.8114 16.22 56.8114 15.82ZM55.9514 22.66H54.0314V8.16H55.7914L55.8114 9.02H55.8914C56.2114 8.36 56.5914 8.08 57.2114 8.08C58.1714 8.08 58.7714 8.76 58.7714 9.84V16.32C58.7714 17.4 58.1514 18.1 57.2314 18.1C56.7114 18.1 56.2914 17.88 56.0314 17.38H55.9514V22.66ZM61.4011 18H59.4611V8.16H61.2811L61.3211 9.02H61.4011C61.6211 8.46 61.9811 8.08 62.6211 8.08C62.7811 8.08 62.9211 8.1 63.0611 8.16V9.9C62.9011 9.84 62.7611 9.82 62.5411 9.82C61.7011 9.82 61.4011 10.24 61.4011 11.04V18ZM65.4831 18H63.5431V8.16H65.4831V18ZM65.4831 7.14H63.5431V5.36H65.4831V7.14ZM70.7598 11.14H68.9398V10.08C68.9398 9.8 68.7798 9.66 68.4998 9.66C68.2398 9.66 68.0398 9.78 68.0398 10.04V11.18C68.0398 11.5 68.0798 11.62 68.4798 11.92C68.9798 12.28 69.6198 12.54 70.1198 12.96C70.5598 13.32 70.8398 13.76 70.8398 14.76V16.1C70.8398 17.44 70.1198 18.1 68.5398 18.1C66.8598 18.1 66.1198 17.38 66.1198 16.02V14.84H67.9398V16.08C67.9398 16.38 68.1198 16.52 68.4398 16.52C68.7598 16.52 68.8998 16.38 68.8998 16.14V14.82C68.8998 14.5 68.8198 14.3 68.3198 13.94C67.8798 13.62 67.0798 13.14 66.7198 12.74C66.2998 12.28 66.1998 11.76 66.1998 11.18V9.86C66.1998 8.76 67.0198 8.08 68.4398 8.08C69.9398 8.08 70.7598 8.86 70.7598 10.18V11.14ZM76.1533 14.68V15.76C76.1533 17.32 75.3733 18.1 73.7733 18.1C72.1933 18.1 71.4533 17.34 71.4533 15.76V10.42C71.4533 8.84 72.1933 8.08 73.7933 8.08C75.3733 8.08 76.1533 8.84 76.1533 10.42V13.64H73.3333V15.8C73.3333 16.2 73.4933 16.4 73.7733 16.4C74.0733 16.4 74.2333 16.2 74.2333 15.8V14.68H76.1533ZM74.2333 12.26V10.38C74.2333 9.96 74.0933 9.78 73.7933 9.78C73.4933 9.78 73.3333 9.96 73.3333 10.38V12.26H74.2333Z" fill="white"/>
<defs>
<filter id="filter0_d_2056_121" x="0" y="0" width="115" height="30" filterUnits="userSpaceOnUse" color-interpolation-filters="sRGB">
<feFlood flood-opacity="0" result="BackgroundImageFix"/>
<feColorMatrix in="SourceAlpha" type="matrix" values="0 0 0 0 0 0 0 0 0 0 0 0 0 0 0 0 0 0 127 0" result="hardAlpha"/>
<feOffset dy="4"/>
<feGaussianBlur stdDeviation="2"/>
<feComposite in2="hardAlpha" operator="out"/>
<feColorMatrix type="matrix" values="0 0 0 0 0 0 0 0 0 0 0 0 0 0 0 0 0 0 0.25 0"/>
<feBlend mode="normal" in2="BackgroundImageFix" result="effect1_dropShadow_2056_121"/>
<feBlend mode="normal" in="SourceGraphic" in2="effect1_dropShadow_2056_121" result="shape"/>
</filter>
<linearGradient id="paint0_linear_2056_121" x1="57.5" y1="22" x2="57.5" y2="0" gradientUnits="userSpaceOnUse">
<stop stop-color="#737373"/>
<stop offset="1" stop-color="#D9D9D9"/>
</linearGradient>
</defs>
</svg>
