<svg width="232" height="41" viewBox="0 0 232 41" fill="none" xmlns="http://www.w3.org/2000/svg">
<g filter="url(#filter0_d_2056_55)">
<rect x="4" width="224" height="33" rx="7" fill="url(#paint0_linear_2056_55)"/>
</g>
<path d="M105.461 24H103.037V10.248H101.333V8.064H107.189V10.248H105.461V24ZM110.158 24H107.758V8.064H111.238C112.966 8.064 113.59 9 113.59 10.584V14.16C113.59 15.216 113.086 15.936 112.294 16.08V16.176C113.086 16.296 113.638 16.776 113.638 18.096V24H111.238V17.88C111.238 17.448 111.07 17.208 110.686 17.208H110.158V24ZM111.238 14.424V10.872C111.238 10.44 111.046 10.248 110.638 10.248H110.158V15.216H110.638C111.046 15.216 111.238 14.928 111.238 14.424ZM120.537 24H118.113L117.849 20.376H116.625L116.385 24H114.009L115.569 8.064H118.977L120.537 24ZM117.201 12.12L116.769 18.288H117.705L117.297 12.12H117.201ZM123.449 24H121.001V8.064H123.449V24ZM130.524 24H127.668L126.276 12.936H126.18C126.252 14.136 126.276 15.552 126.276 18.888V24H124.188V8.064H127.428L128.412 18.312H128.508C128.46 16.8 128.412 15.336 128.412 11.616V8.064H130.524V24Z" fill="white"/>
<defs>
<filter id="filter0_d_2056_55" x="0" y="0" width="232" height="41" filterUnits="userSpaceOnUse" color-interpolation-filters="sRGB">
<feFlood flood-opacity="0" result="BackgroundImageFix"/>
<feColorMatrix in="SourceAlpha" type="matrix" values="0 0 0 0 0 0 0 0 0 0 0 0 0 0 0 0 0 0 127 0" result="hardAlpha"/>
<feOffset dy="4"/>
<feGaussianBlur stdDeviation="2"/>
<feComposite in2="hardAlpha" operator="out"/>
<feColorMatrix type="matrix" values="0 0 0 0 0 0 0 0 0 0 0 0 0 0 0 0 0 0 0.25 0"/>
<feBlend mode="normal" in2="BackgroundImageFix" result="effect1_dropShadow_2056_55"/>
<feBlend mode="normal" in="SourceGraphic" in2="effect1_dropShadow_2056_55" result="shape"/>
</filter>
<linearGradient id="paint0_linear_2056_55" x1="116" y1="33" x2="116" y2="0" gradientUnits="userSpaceOnUse">
<stop stop-color="#BD1414"/>
<stop offset="1" stop-color="#EF6868"/>
</linearGradient>
</defs>
</svg>
