<svg width="115" height="30" viewBox="0 0 115 30" fill="none" xmlns="http://www.w3.org/2000/svg">
<g filter="url(#filter0_d_2056_117)">
<rect x="4" width="107" height="22" rx="7" fill="url(#paint0_linear_2056_117)"/>
</g>
<path d="M48.3992 18H45.5592L44.2592 4.72H46.2792L46.9792 14.28H47.0592L47.7392 4.72H49.6992L48.3992 18ZM56.8211 8.64H54.9211V7.1C54.9211 6.72 54.7411 6.52 54.4211 6.52C54.0811 6.52 53.9211 6.74 53.9211 7.04V8.2C53.9211 8.94 53.9811 9.14 54.3411 9.54C55.0411 10.34 55.9411 10.96 56.4411 11.62C56.8211 12.14 57.0011 12.66 57.0011 13.74V15.52C57.0011 17.2 56.2211 18.1 54.4211 18.1C52.6411 18.1 51.8611 17.22 51.8611 15.5V14.02H53.7811V15.66C53.7811 16.02 53.9811 16.24 54.3411 16.24C54.7011 16.24 54.8611 16.02 54.8611 15.66V14.2C54.8611 13.22 54.7211 12.98 54.3211 12.54C53.6811 11.84 52.9211 11.24 52.4611 10.44C52.1011 9.82 51.9211 9.2 51.9211 8.1V6.98C51.9211 5.48 52.7811 4.64 54.3811 4.64C56.1811 4.64 56.8211 5.7 56.8211 7.34V8.64ZM59.5456 18H57.6056V8.16H59.5456V18ZM59.5456 7.14H57.6056V5.36H59.5456V7.14ZM64.9823 20.32C64.9823 21.88 64.1823 22.66 62.6023 22.66C61.0623 22.66 60.2823 21.88 60.2823 20.32V18.6H62.1423V20.32C62.1423 20.72 62.3023 20.92 62.6023 20.92C62.9023 20.92 63.0423 20.72 63.0423 20.32V17.28H62.9623C62.7223 17.76 62.3223 18 61.7423 18C60.5623 18 60.2423 17.24 60.2423 15.82V9.88C60.2423 8.76 60.8423 8.08 61.7823 8.08C62.4023 8.08 62.8023 8.4 63.1223 9.02H63.2023L63.2223 8.16H64.9823V20.32ZM62.2023 10.36V15.34C62.2023 15.96 62.2623 16.24 62.6423 16.24C62.9823 16.24 63.1023 15.94 63.1023 15.46V10.58C63.1023 10.08 63.0023 9.76 62.6623 9.76C62.3623 9.76 62.2023 9.96 62.2023 10.36ZM70.452 18H68.492V10.26C68.492 9.94 68.352 9.76 68.092 9.76C67.852 9.76 67.692 9.9 67.612 10.2V18H65.672V8.16H67.492L67.532 9.02H67.612C67.932 8.34 68.392 8.08 68.952 8.08C69.832 8.08 70.452 8.74 70.452 9.86V18Z" fill="white"/>
<defs>
<filter id="filter0_d_2056_117" x="0" y="0" width="115" height="30" filterUnits="userSpaceOnUse" color-interpolation-filters="sRGB">
<feFlood flood-opacity="0" result="BackgroundImageFix"/>
<feColorMatrix in="SourceAlpha" type="matrix" values="0 0 0 0 0 0 0 0 0 0 0 0 0 0 0 0 0 0 127 0" result="hardAlpha"/>
<feOffset dy="4"/>
<feGaussianBlur stdDeviation="2"/>
<feComposite in2="hardAlpha" operator="out"/>
<feColorMatrix type="matrix" values="0 0 0 0 0 0 0 0 0 0 0 0 0 0 0 0 0 0 0.25 0"/>
<feBlend mode="normal" in2="BackgroundImageFix" result="effect1_dropShadow_2056_117"/>
<feBlend mode="normal" in="SourceGraphic" in2="effect1_dropShadow_2056_117" result="shape"/>
</filter>
<linearGradient id="paint0_linear_2056_117" x1="57.5" y1="22" x2="57.5" y2="0" gradientUnits="userSpaceOnUse">
<stop stop-color="#737373"/>
<stop offset="1" stop-color="#D9D9D9"/>
</linearGradient>
</defs>
</svg>
