<svg width="749" height="1080" viewBox="0 0 749 1080" fill="none" xmlns="http://www.w3.org/2000/svg">
<rect x="0.5" y="-0.5" width="748" height="1081" fill="#F5F5F5" stroke="#A8A8A8" stroke-linejoin="round"/>
<rect x="164" y="103" width="422" height="874.63" rx="7" fill="#D9D9D9"/>
<rect x="244" y="499.762" width="262" height="337" fill="#1A1A1A"/>
<path d="M362.5 398.762H387.5V471.762H362.5V398.762Z" fill="#1A1A1A"/>
<path d="M400 398.762H425V471.762H400V398.762Z" fill="#1A1A1A"/>
<path d="M325 398.762H350V471.762H325V398.762Z" fill="#1A1A1A"/>
<path d="M291.914 221.077H286.538V253.333H273.482V168.341H291.914C301.13 168.341 304.586 173.333 304.586 181.781V207.765C304.586 216.213 301.13 221.077 291.914 221.077ZM286.538 179.989V209.941H289.226C291.274 209.941 292.298 208.405 292.298 205.717V183.317C292.298 181.013 291.274 179.989 289.226 179.989H286.538ZM339.604 253.333H326.548V213.781H320.788V253.333H307.732V168.341H320.788V202.133H326.548V168.341H339.604V253.333ZM374.711 185.109V237.333C374.711 248.469 369.079 253.973 359.095 253.973C348.855 253.973 343.223 247.957 343.223 237.205V184.853C343.223 174.101 348.983 167.829 358.967 167.829C368.951 167.829 374.711 174.229 374.711 185.109ZM361.911 238.229V183.701C361.911 181.141 360.887 179.861 358.967 179.861C357.047 179.861 356.151 181.141 356.151 183.701V238.229C356.151 240.789 357.047 242.069 358.967 242.069C360.887 242.069 361.911 240.789 361.911 238.229ZM398.605 253.333H385.677V179.989H376.589V168.341H407.821V179.989H398.605V253.333ZM440.961 185.109V237.333C440.961 248.469 435.329 253.973 425.345 253.973C415.105 253.973 409.473 247.957 409.473 237.205V184.853C409.473 174.101 415.233 167.829 425.217 167.829C435.201 167.829 440.961 174.229 440.961 185.109ZM428.161 238.229V183.701C428.161 181.141 427.137 179.861 425.217 179.861C423.297 179.861 422.401 181.141 422.401 183.701V238.229C422.401 240.789 423.297 242.069 425.217 242.069C427.137 242.069 428.161 240.789 428.161 238.229ZM475.592 193.429H463.432V183.573C463.432 181.141 462.28 179.861 460.232 179.861C458.056 179.861 457.032 181.269 457.032 183.189V190.613C457.032 195.349 457.416 196.629 459.72 199.189C464.2 204.309 469.96 208.277 473.16 212.501C475.592 215.829 476.744 219.157 476.744 226.069V237.461C476.744 248.213 471.752 253.973 460.232 253.973C448.84 253.973 443.848 248.341 443.848 237.333V227.861H456.136V238.357C456.136 240.661 457.416 242.069 459.72 242.069C462.024 242.069 463.048 240.661 463.048 238.357V229.013C463.048 222.741 462.152 221.205 459.592 218.389C455.496 213.909 450.632 210.069 447.688 204.949C445.384 200.981 444.232 197.013 444.232 189.973V182.805C444.232 173.205 449.736 167.829 459.976 167.829C471.496 167.829 475.592 174.613 475.592 185.109V193.429ZM345.792 353.333H332.736V313.781H326.976V353.333H313.92V268.341H326.976V302.133H332.736V268.341H345.792V353.333ZM374.627 353.333H349.795V268.341H373.859V279.989H362.595V302.901H372.451V314.677H362.595V341.685H374.627V353.333ZM390.22 353.333H377.42V268.341H395.98C405.196 268.341 408.524 273.333 408.524 281.781V300.853C408.524 306.485 405.836 310.325 401.612 311.093V311.605C405.836 312.245 408.78 314.805 408.78 321.845V353.333H395.98V320.693C395.98 318.389 395.084 317.109 393.036 317.109H390.22V353.333ZM395.98 302.261V283.317C395.98 281.013 394.956 279.989 392.78 279.989H390.22V306.485H392.78C394.956 306.485 395.98 304.949 395.98 302.261ZM437.127 353.333H412.295V268.341H436.359V279.989H425.095V302.901H434.951V314.677H425.095V341.685H437.127V353.333Z" fill="black"/>
</svg>
